<svg width="128" height="128" viewBox="0 0 128 128" fill="none" xmlns="http://www.w3.org/2000/svg">
<path d="M10.6665 108.8H14.9332C15.499 108.8 16.0416 108.575 16.4417 108.175C16.8418 107.775 17.0665 107.232 17.0665 106.667C17.0665 106.101 16.8418 105.558 16.4417 105.158C16.0416 104.758 15.499 104.533 14.9332 104.533H10.6665C10.1007 104.533 9.55812 104.758 9.15804 105.158C8.75796 105.558 8.5332 106.101 8.5332 106.667C8.5332 107.232 8.75796 107.775 9.15804 108.175C9.55812 108.575 10.1007 108.8 10.6665 108.8Z" fill="#525252"/>
<path d="M113.067 108.8H117.334C117.899 108.8 118.442 108.575 118.842 108.175C119.242 107.775 119.467 107.232 119.467 106.667C119.467 106.101 119.242 105.558 118.842 105.158C118.442 104.758 117.899 104.533 117.334 104.533H113.067C112.501 104.533 111.959 104.758 111.558 105.158C111.158 105.558 110.934 106.101 110.934 106.667C110.934 107.232 111.158 107.775 111.558 108.175C111.959 108.575 112.501 108.8 113.067 108.8Z" fill="#525252"/>
<path d="M10.6665 121.6H14.9332C15.499 121.6 16.0416 121.375 16.4417 120.975C16.8418 120.575 17.0665 120.032 17.0665 119.467C17.0665 118.901 16.8418 118.358 16.4417 117.958C16.0416 117.558 15.499 117.333 14.9332 117.333H10.6665C10.1007 117.333 9.55812 117.558 9.15804 117.958C8.75796 118.358 8.5332 118.901 8.5332 119.467C8.5332 120.032 8.75796 120.575 9.15804 120.975C9.55812 121.375 10.1007 121.6 10.6665 121.6Z" fill="#525252"/>
<path d="M61.8667 108.8H66.1334C66.6992 108.8 67.2418 108.575 67.6419 108.175C68.042 107.775 68.2667 107.232 68.2667 106.667C68.2667 106.101 68.042 105.558 67.6419 105.158C67.2418 104.758 66.6992 104.533 66.1334 104.533H61.8667C61.3009 104.533 60.7583 104.758 60.3582 105.158C59.9582 105.558 59.7334 106.101 59.7334 106.667C59.7334 107.232 59.9582 107.775 60.3582 108.175C60.7583 108.575 61.3009 108.8 61.8667 108.8Z" fill="#525252"/>
<path d="M61.8667 121.6H66.1334C66.6992 121.6 67.2418 121.375 67.6419 120.975C68.042 120.575 68.2667 120.032 68.2667 119.467C68.2667 118.901 68.042 118.358 67.6419 117.958C67.2418 117.558 66.6992 117.333 66.1334 117.333H61.8667C61.3009 117.333 60.7583 117.558 60.3582 117.958C59.9582 118.358 59.7334 118.901 59.7334 119.467C59.7334 120.032 59.9582 120.575 60.3582 120.975C60.7583 121.375 61.3009 121.6 61.8667 121.6Z" fill="#525252"/>
<path d="M113.067 121.6H117.334C117.899 121.6 118.442 121.375 118.842 120.975C119.242 120.575 119.467 120.032 119.467 119.467C119.467 118.901 119.242 118.358 118.842 117.958C118.442 117.558 117.899 117.333 117.334 117.333H113.067C112.501 117.333 111.959 117.558 111.558 117.958C111.158 118.358 110.934 118.901 110.934 119.467C110.934 120.032 111.158 120.575 111.558 120.975C111.959 121.375 112.501 121.6 113.067 121.6Z" fill="#525252"/>
<path d="M35.0988 66.2579C34.9969 65.9969 34.8447 65.7585 34.6507 65.5564C34.4568 65.3542 34.2249 65.1922 33.9683 65.0797C33.7118 64.9672 33.4355 64.9062 33.1554 64.9004C32.8753 64.8947 32.5968 64.9441 32.3358 65.0459L28.3609 66.5969C28.0999 66.6987 27.8615 66.851 27.6593 67.045C27.4571 67.239 27.2952 67.4709 27.1826 67.7275C27.0701 67.984 27.0092 68.2603 27.0034 68.5404C26.9976 68.8205 27.047 69.0991 27.1489 69.3601C27.2507 69.6211 27.403 69.8595 27.597 70.0617C27.791 70.2638 28.0229 70.4258 28.2795 70.5384C28.5361 70.6509 28.8123 70.7118 29.0924 70.7176C29.3726 70.7234 29.6511 70.6739 29.9121 70.5721L33.8868 69.0209C34.1478 68.919 34.3862 68.7668 34.5883 68.5728C34.7905 68.3789 34.9525 68.147 35.065 67.8904C35.1776 67.6339 35.2385 67.3576 35.2443 67.0775C35.25 66.7974 35.2006 66.5189 35.0988 66.2579Z" fill="#525252"/>
<path d="M125.274 51.2192C125.55 48.6729 124.851 46.1166 123.318 44.0652C121.784 42.0138 119.53 40.6197 117.01 40.1637C115.359 37.6551 113.112 35.5959 110.468 34.1709C107.825 32.746 104.869 32 101.867 32C98.8639 32 95.9081 32.746 93.2649 34.1709C90.6217 35.5959 88.3739 37.6551 86.7235 40.1637C85.5238 40.3815 84.3737 40.8158 83.3296 41.4456L91.5912 19.9659C91.6947 19.6968 91.7426 19.4095 91.732 19.1213C91.7214 18.8332 91.6525 18.5502 91.5294 18.2894C91.4064 18.0287 91.2318 17.7956 91.0161 17.6042C90.8004 17.4128 90.5482 17.2672 90.2747 17.176L83.8747 15.0427C83.3537 14.8688 82.7857 14.9025 82.289 15.1369C81.7923 15.3712 81.4051 15.7881 81.208 16.3008L78.9333 22.2171V2.13333C78.9333 1.56754 78.7086 1.02492 78.3085 0.624839C77.9084 0.224761 77.3658 0 76.8 0H68.2667C67.7009 0 67.1582 0.224761 66.7582 0.624839C66.3581 1.02492 66.1333 1.56754 66.1333 2.13333V22.2181L63.8579 16.3011C63.6609 15.7884 63.2737 15.3714 62.7769 15.137C62.2802 14.9026 61.7122 14.8688 61.1912 15.0427L54.7912 17.176C54.5177 17.2672 54.2654 17.4128 54.0498 17.6042C53.8341 17.7956 53.6595 18.0287 53.5364 18.2894C53.4134 18.5502 53.3445 18.8332 53.3339 19.1213C53.3232 19.4095 53.3711 19.6968 53.4747 19.9659L62.6136 43.7259C63.5319 46.1081 64.0021 48.6395 64.0003 51.1925V53.6029C63.29 53.8751 62.6013 54.2006 61.94 54.5765L61.2144 53.1251C60.2899 51.26 58.8614 49.6914 57.0907 48.597C55.32 47.5026 53.2781 46.9262 51.1965 46.9333H46.1333C45.7697 46.9333 45.4121 47.0263 45.0945 47.2034C44.7769 47.3805 44.5098 47.6358 44.3186 47.9452C44.1275 48.2545 44.0186 48.6076 44.0022 48.9709C43.9859 49.3341 44.0627 49.6956 44.2253 50.0208L45.9853 53.5408C46.9097 55.406 48.3383 56.9749 50.109 58.0694C51.8797 59.164 53.9218 59.7404 56.0035 59.7333H56.5792C55.7871 61.0101 55.1901 62.3981 54.808 63.8512C53.972 63.0018 52.9655 62.3392 51.8548 61.9071C50.7441 61.475 49.5544 61.2833 48.3642 61.3444C47.174 61.4056 46.0102 61.7183 44.9496 62.2619C43.8891 62.8056 42.9557 63.5678 42.2112 64.4984L41.7104 65.1248C41.2166 65.7429 40.7694 66.3969 40.3725 67.0813L38.4733 60.5117C37.5754 57.4221 35.6302 54.7413 32.9715 52.9293C34.8345 51.5301 36.1883 49.5595 36.8263 47.3186C37.4642 45.0777 37.3512 42.6896 36.5045 40.5189C35.6405 38.3377 34.0859 36.4994 32.0785 35.2851C30.071 34.0708 27.7211 33.5473 25.388 33.7947C23.6264 32.2891 21.4892 31.2897 19.2043 30.9033C16.9194 30.5168 14.5725 30.7576 12.4137 31.6001C10.2549 32.4425 8.36521 33.8551 6.94609 35.6871C5.52696 37.5191 4.6316 39.7018 4.35547 42.0027C2.472 43.4015 1.09821 45.3785 0.443965 47.6316C-0.210283 49.8846 -0.109027 52.2899 0.732267 54.48C1.57337 56.6548 3.10638 58.4927 5.09503 59.7103C7.08369 60.928 9.4176 61.4578 11.7371 61.2181C11.0093 64.3515 11.3945 67.6404 12.8267 70.5208L20.2152 85.3333H2.13333C1.56754 85.3333 1.02492 85.5581 0.624839 85.9582C0.224761 86.3583 0 86.9009 0 87.4667V125.867C0 126.432 0.224761 126.975 0.624839 127.375C1.02492 127.775 1.56754 128 2.13333 128H125.867C126.432 128 126.975 127.775 127.375 127.375C127.775 126.975 128 126.432 128 125.867V87.4667C128 86.9009 127.775 86.3583 127.375 85.9582C126.975 85.5581 126.432 85.3333 125.867 85.3333H112.507C112.749 83.8303 113.249 82.3802 113.984 81.0469C114.21 81.0587 114.438 81.0667 114.666 81.0667C116.766 81.0661 118.835 80.5488 120.688 79.5602C122.541 78.5717 124.123 77.1423 125.294 75.3981C126.464 73.654 127.188 71.6486 127.4 69.5588C127.613 67.469 127.308 65.359 126.512 63.4149C127.667 61.5261 128.171 59.3109 127.947 57.1084C127.724 54.9059 126.785 52.8373 125.274 51.2192H125.274ZM102.034 81.7659C101.724 80.2593 101.215 78.8005 100.521 77.4275C100.981 77.2083 101.43 76.968 101.867 76.7045C102.389 77.0185 102.93 77.3013 103.485 77.5515C102.824 78.8887 102.336 80.305 102.034 81.7659ZM96.3952 78.7579C97.5368 80.7611 98.136 83.0276 98.1333 85.3333H95.8712C95.6423 83.4664 95.1137 81.6485 94.3059 79.9499C95.0382 79.6191 95.7378 79.22 96.3952 78.7579ZM90.0723 81.028C90.8131 82.3665 91.3165 83.8231 91.5603 85.3333H85.2117C84.9037 83.8789 84.2817 82.5093 83.3893 81.3203L81.1136 78.2848C83.3722 80.0877 86.1768 81.0687 89.0667 81.0667C89.4044 81.0667 89.7396 81.0538 90.0723 81.028ZM72.2347 83.6C73.5644 81.4677 74.3738 79.0524 74.5977 76.5494C74.8215 74.0465 74.4534 71.5259 73.5232 69.1915L76.4749 61.9184C76.6823 62.4369 76.9321 62.9374 77.2216 63.4149C76.1147 66.1179 75.9659 69.1182 76.8 71.9173V78.9333C76.8 79.3949 76.9497 79.8441 77.2267 80.2133L79.9763 83.8805C80.3093 84.3253 80.5785 84.8144 80.7763 85.3336H71.1496L72.2347 83.6ZM84.4595 19.7352L86.8075 20.5179L78.4704 42.1939C77.5531 44.5786 77.0077 47.0901 76.8533 49.6405L70.768 64.6341L70.6595 64.4984C69.9977 63.6706 69.1859 62.9749 68.2667 62.4475V59.228L84.4595 19.7352ZM70.4 33.0667V4.26667H74.6667V32.4864C74.667 32.6891 74.6962 32.8906 74.7533 33.0851L72.5333 38.8587L70.3896 33.2853C70.3968 33.2127 70.4002 33.1397 70.4 33.0667ZM58.2592 20.5179L60.6059 19.7352L69.2965 42.3336C69.6336 43.2121 69.8939 44.1182 70.0744 45.0416L68.1811 49.1749C67.9912 46.7839 67.4575 44.4327 66.5963 42.1941L58.2592 20.5179ZM64 58.7624V61.3355C62.5832 61.3471 61.1923 61.716 59.956 62.408C60.9113 60.7048 62.3084 59.2907 64 58.3149V58.7624ZM49.8021 51.6339L49.5851 51.2H51.1965C52.4851 51.1956 53.7491 51.5524 54.8452 52.2298C55.9413 52.9073 56.8256 53.8783 57.3979 55.0328L57.6149 55.4667H56.0035C54.7149 55.4711 53.4509 55.1143 52.3548 54.4368C51.2588 53.7594 50.3744 52.7884 49.8021 51.6339ZM45.0419 67.7901L45.5429 67.164C45.9524 66.6524 46.4767 66.2445 47.0734 65.9736C47.6701 65.7026 48.3222 65.5762 48.9769 65.6046C49.6316 65.633 50.2703 65.8154 50.8413 66.137C51.4123 66.4586 51.8993 66.9103 52.2629 67.4555C52.7207 68.1422 53.341 68.7053 54.0687 69.0947C54.7964 69.4841 55.6089 69.6879 56.4343 69.6879C57.2596 69.6879 58.0722 69.4841 58.7998 69.0947C59.5275 68.7053 60.1478 68.1422 60.6056 67.4555C61.1178 66.6883 61.8697 66.1125 62.7439 65.8182C63.6181 65.5239 64.5652 65.5276 65.4371 65.8288C65.4504 65.8333 65.4637 65.8389 65.4771 65.8432C66.2046 66.1029 66.8452 66.5604 67.3269 67.1643L67.8277 67.7901C69.3444 69.6896 70.2346 72.0127 70.3757 74.4393C70.5168 76.8659 69.9018 79.2765 68.6155 81.3389L66.1195 85.3333H46.7512L44.2544 81.3387C42.968 79.2763 42.3529 76.8658 42.4939 74.4392C42.635 72.0126 43.5252 69.6895 45.0419 67.7901ZM38.2315 74.2968C38.2267 74.2824 38.2224 74.2683 38.2173 74.2539L38.2325 74.2709C38.232 74.2805 38.232 74.2891 38.2315 74.2979V74.2968ZM4.70693 52.928C4.15807 51.5022 4.13432 49.9277 4.63992 48.486C5.14553 47.0444 6.14751 45.8296 7.46667 45.0589C7.78231 44.8773 8.0462 44.6178 8.23319 44.3053C8.42019 43.9928 8.52407 43.6376 8.53493 43.2736C8.58389 41.5986 9.12482 39.975 10.0903 38.6054C11.0557 37.2357 12.403 36.1805 13.9641 35.5714C15.5251 34.9623 17.231 34.8261 18.8689 35.1799C20.5069 35.5338 22.0045 36.3619 23.1749 37.5611C23.4296 37.8214 23.7466 38.0123 24.0958 38.1154C24.4451 38.2186 24.8149 38.2306 25.1701 38.1504C26.6626 37.8239 28.2225 38.039 29.5709 38.7572C30.9193 39.4753 31.9682 40.6498 32.5301 42.0704C32.8836 42.9676 33.0292 43.9332 32.9557 44.8948C32.8823 45.8563 32.5918 46.7887 32.1061 47.6217C31.6205 48.4548 30.9522 49.167 30.1517 49.7046C29.3512 50.2423 28.4392 50.5914 27.4843 50.7259C27.4099 50.7136 27.336 50.6992 27.2616 50.6872C27.711 48.5896 28.7028 46.6465 30.1379 45.052C30.3285 44.8447 30.4762 44.6016 30.5724 44.3369C30.6686 44.0722 30.7114 43.7911 30.6984 43.5097C30.6854 43.2284 30.6168 42.9524 30.4966 42.6977C30.3764 42.443 30.207 42.2146 29.9981 42.0257C29.7892 41.8368 29.5449 41.6912 29.2794 41.5972C29.0139 41.5032 28.7324 41.4627 28.4512 41.478C28.17 41.4934 27.8946 41.5642 27.6409 41.6865C27.3872 41.8088 27.1602 41.9802 26.9731 42.1907C24.9621 44.4261 23.5978 47.1669 23.0264 50.1189C22.6823 50.1499 22.351 50.2643 22.0611 50.4523L19.0547 42.7488C18.9528 42.4878 18.8006 42.2494 18.6066 42.0473C18.4127 41.8451 18.1808 41.6831 17.9242 41.5706C17.6677 41.458 17.3914 41.3971 17.1113 41.3913C16.8312 41.3855 16.5527 41.435 16.2917 41.5368C16.0307 41.6386 15.7924 41.7909 15.5902 41.9848C15.388 42.1788 15.2261 42.4107 15.1135 42.6673C15.001 42.9238 14.9401 43.2 14.9343 43.4801C14.9285 43.7602 14.9779 44.0387 15.0797 44.2997L18.0861 52.0032C17.7457 52.0616 17.4245 52.2018 17.1501 52.4117C14.7301 50.6275 11.8701 49.5357 8.8768 49.2533C8.5978 49.2277 8.31649 49.2573 8.04892 49.3404C7.78135 49.4234 7.53276 49.5584 7.31736 49.7376C7.10195 49.9167 6.92394 50.1366 6.79349 50.3845C6.66304 50.6325 6.5827 50.9037 6.55707 51.1827C6.53143 51.4617 6.561 51.743 6.64409 52.0106C6.72717 52.2781 6.86215 52.5267 7.0413 52.7421C7.22046 52.9575 7.44029 53.1355 7.68824 53.266C7.93619 53.3964 8.2074 53.4768 8.4864 53.5024C10.6222 53.7033 12.668 54.4609 14.4195 55.6997C14.372 55.7587 14.3277 55.82 14.2813 55.8795C13.4877 56.4269 12.5804 56.7874 11.6275 56.9338C10.6745 57.0802 9.70083 57.0088 8.77949 56.7249C7.85814 56.4409 7.01313 55.9518 6.30795 55.2944C5.60277 54.637 5.05575 53.8283 4.708 52.9291L4.70693 52.928ZM23.4475 82.2549L27.0528 80.848C27.3148 80.7469 27.5542 80.595 27.7574 80.4012C27.9605 80.2073 28.1234 79.9752 28.2367 79.7182C28.3499 79.4613 28.4113 79.1845 28.4174 78.9037C28.4234 78.623 28.374 78.3438 28.2719 78.0822C28.1698 77.8206 28.017 77.5817 27.8224 77.3793C27.6278 77.1769 27.3951 77.0148 27.1378 76.9025C26.8804 76.7902 26.6034 76.7298 26.3226 76.7248C26.0418 76.7198 25.7628 76.7703 25.5016 76.8733L21.5352 78.4213L19.6227 74.5867L21.9632 73.6733C22.4903 73.4676 22.9141 73.061 23.1414 72.5428C23.3687 72.0246 23.3808 71.4374 23.1751 70.9103C22.9694 70.3832 22.5627 69.9594 22.0445 69.7321C21.5263 69.5048 20.9391 69.4927 20.412 69.6984L17.7101 70.7528L16.6435 68.6155C16.0444 67.4293 15.7022 66.1301 15.6393 64.8027C15.5764 63.4753 15.7942 62.1495 16.2784 60.912C16.5437 60.224 16.8867 59.5686 17.3008 58.9584C18.0948 58.3296 18.7942 57.59 19.3776 56.7621C20.0921 56.2176 20.8793 55.7757 21.7163 55.4493H21.7203L21.7245 55.4475C22.5617 55.1207 23.4404 54.9126 24.3352 54.8293C25.3245 55.0429 26.3393 55.1132 27.3485 55.0381C28.0669 55.2064 28.7636 55.4562 29.4251 55.7829C30.6193 56.3653 31.6772 57.193 32.5299 58.212C33.3825 59.231 34.0107 60.4183 34.3733 61.6965L37.7688 73.4416C37.7821 73.4883 37.7992 73.5328 37.8157 73.5779C37.5271 73.2483 37.1441 73.0156 36.7186 72.9114C36.2931 72.8072 35.8459 72.8364 35.4376 72.9952L33.4501 73.7709C32.923 73.9766 32.4992 74.3832 32.2719 74.9014C32.0446 75.4195 32.0325 76.0068 32.2381 76.5339C32.4438 77.061 32.8504 77.4848 33.3686 77.7121C33.8867 77.9394 34.474 77.9515 35.0011 77.7459L36.9885 76.9704C37.2732 76.8593 37.5306 76.6882 37.7432 76.4688C37.9559 76.2494 38.1188 75.9867 38.2208 75.6987C38.3183 78.4987 39.151 81.2237 40.6352 83.6L41.7184 85.3333H24.9832L23.4475 82.2549ZM123.733 110.933H4.26667V102.4H123.733V110.933ZM123.733 123.733H4.26667V115.2H123.733V123.733ZM123.733 98.1333H4.26667V89.6H123.733V98.1333ZM108.197 85.3333H105.934C105.933 83.0917 106.499 80.8863 107.58 78.9227C108.251 79.3714 108.962 79.7554 109.706 80.0693C108.929 81.7339 108.42 83.5103 108.197 85.3333ZM122.406 61.8477C122.137 62.1753 121.972 62.5754 121.932 62.997C121.891 63.4187 121.977 63.8429 122.179 64.2155C122.879 65.5156 123.23 66.9753 123.198 68.4518C123.166 69.9283 122.751 71.3712 121.994 72.6393C121.237 73.9074 120.164 74.9574 118.879 75.6867C117.595 76.416 116.144 76.7996 114.667 76.8C112.769 76.8059 110.925 76.1726 109.431 75.0021C109.131 74.7685 108.774 74.6193 108.397 74.5699C106.492 74.319 104.685 73.5812 103.148 72.4277C102.778 72.1502 102.329 72.0001 101.867 72.0001C101.405 72.0001 100.955 72.1502 100.585 72.4277C99.0488 73.5812 97.2409 74.319 95.336 74.5699C94.959 74.6193 94.6021 74.7685 94.3021 75.0021C92.8085 76.1726 90.9642 76.8059 89.0667 76.8C87.5898 76.7996 86.1383 76.416 84.8541 75.6867C83.5698 74.9574 82.4968 73.9074 81.7398 72.6393C80.9828 71.3712 80.5678 69.9283 80.5354 68.4518C80.5029 66.9753 80.8541 65.5156 81.5547 64.2155C81.7562 63.8429 81.8422 63.4187 81.8018 62.997C81.7614 62.5754 81.5964 62.1753 81.3277 61.8477C80.5685 60.9215 80.1113 59.7848 80.0178 58.5907C79.9244 57.3967 80.1991 56.2027 80.8051 55.1696L80.8104 55.1605C81.1542 54.5766 81.5962 54.0564 82.1171 53.6229C82.4219 53.369 82.65 53.0351 82.7755 52.6587C82.901 52.2823 82.9191 51.8784 82.8277 51.4923C82.6299 50.6627 82.6153 49.7999 82.7852 48.9642C82.9551 48.1284 83.3052 47.3397 83.8112 46.6532C84.3172 45.9667 84.9669 45.3988 85.715 44.9892C86.463 44.5796 87.2914 44.3381 88.1424 44.2816C88.4926 44.2586 88.8316 44.1495 89.1296 43.9641C89.4275 43.7787 89.6751 43.5227 89.8504 43.2187C91.0655 41.1057 92.8162 39.3504 94.9261 38.1299C97.0359 36.9093 99.4303 36.2667 101.868 36.2667C104.305 36.2667 106.7 36.9093 108.809 38.1299C110.919 39.3504 112.67 41.1057 113.885 43.2187C114.06 43.5227 114.308 43.7787 114.606 43.9641C114.904 44.1495 115.243 44.2586 115.593 44.2816C116.444 44.338 117.272 44.5795 118.02 44.989C118.769 45.3986 119.418 45.9664 119.924 46.6529C120.43 47.3394 120.78 48.128 120.95 48.9637C121.12 49.7994 121.106 50.6622 120.908 51.4917C120.816 51.8779 120.834 52.282 120.96 52.6585C121.085 53.035 121.313 53.369 121.618 53.6229C122.281 54.1729 122.814 54.8623 123.18 55.642C123.545 56.4216 123.734 57.2723 123.733 58.1333C123.739 59.4887 123.269 60.803 122.406 61.8477Z" fill="#525252"/>
<path d="M101.866 40.5333C100.102 40.535 98.3812 41.0828 96.9404 42.1014C95.4996 43.1199 94.4093 44.5595 93.8192 46.2224C93.6307 46.7558 93.6618 47.3424 93.9056 47.8529C94.1495 48.3635 94.5863 48.7562 95.1197 48.9448C95.6532 49.1333 96.2397 49.1022 96.7503 48.8583C97.2608 48.6144 97.6536 48.1777 97.8421 47.6442C98.1367 46.8123 98.6818 46.0922 99.4024 45.5828C100.123 45.0735 100.984 44.8 101.866 44.8C102.749 44.8 103.61 45.0735 104.33 45.5828C105.051 46.0922 105.596 46.8123 105.891 47.6442C105.984 47.9084 106.129 48.1516 106.316 48.3599C106.503 48.5682 106.73 48.7376 106.983 48.8583C107.235 48.9791 107.509 49.0489 107.789 49.0637C108.069 49.0785 108.349 49.0381 108.613 48.9448C108.877 48.8514 109.12 48.7069 109.329 48.5196C109.537 48.3322 109.706 48.1057 109.827 47.8529C109.948 47.6001 110.018 47.326 110.033 47.0462C110.047 46.7665 110.007 46.4865 109.914 46.2224C109.323 44.5595 108.233 43.1199 106.792 42.1014C105.352 41.0828 103.631 40.535 101.866 40.5333Z" fill="#525252"/>
<path d="M91.1998 55.4667C91.7656 55.4667 92.3082 55.2419 92.7083 54.8418C93.1084 54.4418 93.3331 53.8991 93.3331 53.3333C93.3331 52.7676 93.1084 52.2249 92.7083 51.8248C92.3082 51.4248 91.7656 51.2 91.1998 51.2C89.5024 51.2 87.8746 51.8743 86.6743 53.0745C85.4741 54.2748 84.7998 55.9026 84.7998 57.6C84.7998 59.2974 85.4741 60.9253 86.6743 62.1255C87.8746 63.3257 89.5024 64 91.1998 64C91.7656 64 92.3082 63.7753 92.7083 63.3752C93.1084 62.9751 93.3331 62.4325 93.3331 61.8667C93.3331 61.3009 93.1084 60.7583 92.7083 60.3582C92.3082 59.9581 91.7656 59.7333 91.1998 59.7333C90.634 59.7333 90.0914 59.5086 89.6913 59.1085C89.2912 58.7084 89.0665 58.1658 89.0665 57.6C89.0665 57.0342 89.2912 56.4916 89.6913 56.0915C90.0914 55.6914 90.634 55.4667 91.1998 55.4667Z" fill="#525252"/>
<path d="M14.9332 91.7333H10.6665C10.1007 91.7333 9.55812 91.958 9.15804 92.3581C8.75796 92.7582 8.5332 93.3008 8.5332 93.8666C8.5332 94.4324 8.75796 94.975 9.15804 95.3751C9.55812 95.7752 10.1007 95.9999 10.6665 95.9999H14.9332C15.499 95.9999 16.0416 95.7752 16.4417 95.3751C16.8418 94.975 17.0665 94.4324 17.0665 93.8666C17.0665 93.3008 16.8418 92.7582 16.4417 92.3581C16.0416 91.958 15.499 91.7333 14.9332 91.7333Z" fill="#525252"/>
<path d="M113.067 95.9999H117.334C117.899 95.9999 118.442 95.7752 118.842 95.3751C119.242 94.975 119.467 94.4324 119.467 93.8666C119.467 93.3008 119.242 92.7582 118.842 92.3581C118.442 91.958 117.899 91.7333 117.334 91.7333H113.067C112.501 91.7333 111.959 91.958 111.558 92.3581C111.158 92.7582 110.934 93.3008 110.934 93.8666C110.934 94.4324 111.158 94.975 111.558 95.3751C111.959 95.7752 112.501 95.9999 113.067 95.9999Z" fill="#525252"/>
<path d="M66.1334 91.7333H61.8667C61.3009 91.7333 60.7583 91.958 60.3582 92.3581C59.9582 92.7582 59.7334 93.3008 59.7334 93.8666C59.7334 94.4324 59.9582 94.975 60.3582 95.3751C60.7583 95.7752 61.3009 95.9999 61.8667 95.9999H66.1334C66.6992 95.9999 67.2418 95.7752 67.6419 95.3751C68.042 94.975 68.2667 94.4324 68.2667 93.8666C68.2667 93.3008 68.042 92.7582 67.6419 92.3581C67.2418 91.958 66.6992 91.7333 66.1334 91.7333Z" fill="#525252"/>
<path d="M50.2929 81.0667C50.7148 81.0667 51.1273 80.9416 51.4781 80.7072C51.829 80.4728 52.1024 80.1396 52.2639 79.7498C52.4254 79.3599 52.4676 78.931 52.3853 78.5172C52.303 78.1033 52.0998 77.7232 51.8014 77.4248C51.4964 77.1205 51.2951 76.7278 51.2261 76.3025C51.1571 75.8772 51.2238 75.441 51.4169 75.0558L52.2009 73.4875C52.4487 72.9821 52.4867 72.3992 52.3067 71.8659C52.1266 71.3325 51.7431 70.892 51.2396 70.6402C50.7361 70.3884 50.1536 70.3458 49.6188 70.5217C49.0841 70.6976 48.6406 71.0777 48.3849 71.5792L47.5995 73.1467C47.0052 74.3327 46.7997 75.6758 47.0122 76.9853C47.2247 78.2947 47.8444 79.5039 48.7833 80.4411C48.9813 80.6397 49.2165 80.7973 49.4756 80.9046C49.7347 81.012 50.0124 81.0671 50.2929 81.0667Z" fill="#525252"/>
</svg>
