<svg width="128" height="128" viewBox="0 0 128 128" fill="none" xmlns="http://www.w3.org/2000/svg">
<path d="M104.258 53.6778C102.551 53.6778 101.161 55.0672 101.161 56.7746C101.161 58.4819 102.551 59.8713 104.258 59.8713C105.965 59.8713 107.355 58.4819 107.355 56.7746C107.355 55.0672 105.965 53.6778 104.258 53.6778Z" fill="#525252"/>
<path d="M81.5479 53.6778C79.8406 53.6778 78.4512 55.0672 78.4512 56.7746C78.4512 58.4819 79.8406 59.8713 81.5479 59.8713C83.2553 59.8713 84.6447 58.4819 84.6447 56.7746C84.6447 55.0672 83.2553 53.6778 81.5479 53.6778Z" fill="#525252"/>
<path d="M106.322 35.0973C108.03 35.0973 109.419 33.7079 109.419 32.0005C109.419 30.2932 108.03 28.9037 106.322 28.9037C104.615 28.9037 103.226 30.2932 103.226 32.0005C103.226 33.7079 104.615 35.0973 106.322 35.0973Z" fill="#525252"/>
<path d="M79.4835 35.0973C81.1908 35.0973 82.5802 33.7079 82.5802 32.0005C82.5802 30.2932 81.1908 28.9037 79.4835 28.9037C77.7761 28.9037 76.3867 30.2932 76.3867 32.0005C76.3867 33.7079 77.7761 35.0973 79.4835 35.0973Z" fill="#525252"/>
<path d="M126.16 25.52C124.126 22.4686 120.722 20.6457 117.051 20.6457H116.467L116.492 20.6209C118.587 18.5275 119.741 15.7384 119.741 12.7758C119.741 9.30122 118.081 5.98356 115.303 3.89841L110.658 0.413523C110.032 -0.0592493 109.194 -0.129443 108.496 0.217394C107.796 0.56836 107.354 1.28268 107.354 2.06513C107.354 5.26098 106.487 8.34742 104.92 11.1097C103.256 10.6019 101.493 10.3232 99.664 10.3232H86.1395C84.3124 10.3232 82.5472 10.6019 80.8853 11.1097C79.3183 8.34742 78.4512 5.26098 78.4512 2.06513C78.4512 1.28268 78.0094 0.56836 77.3096 0.217394C76.6118 -0.127378 75.7715 -0.0551203 75.148 0.413523L70.5029 3.89841C67.7241 5.98149 66.0642 9.30122 66.0642 12.7758C66.0642 15.7404 67.2183 18.5275 69.3137 20.623L69.3385 20.6457H68.7542C65.0856 20.6457 61.6792 22.4686 59.6456 25.52C58.442 27.3223 57.8062 29.424 57.8062 31.5938V35.2768L27.4063 38.0391C22.6043 38.4748 18.244 40.5682 14.9305 43.7723C6.09236 46.7761 0 55.1725 0 64.5784V102.194C0 104.778 1.23457 107.248 3.30527 108.8L9.08589 113.136C9.44718 113.41 9.88486 113.548 10.3225 113.548C10.6363 113.548 10.9543 113.476 11.2454 113.332C11.9452 112.981 12.387 112.266 12.387 111.484V102.925C12.387 99.7761 10.6363 96.9457 7.82241 95.5377L4.12901 93.692V64.5784C4.12901 59.4832 6.3339 54.7555 9.92615 51.4419C9.66602 52.1439 9.4286 52.8561 9.24486 53.5952L9.02809 54.4747C8.5037 56.5619 8.3117 58.709 8.45622 60.8561L10.3267 88.9127C10.3349 89.0366 10.3556 89.1563 10.3845 89.2761L16.4748 113.637C14.0077 115.522 12.387 118.466 12.387 121.806V125.935C12.387 127.077 13.3099 128 14.4515 128H30.9676H39.2256C40.3673 128 41.2901 127.077 41.2901 125.935V121.806C41.2901 117.657 38.8148 114.093 35.2742 112.456L35.974 107.566C36.6698 102.679 37.0455 97.7178 37.126 92.7878C37.2086 92.8084 37.287 92.8373 37.3696 92.858C38.15 96.9127 41.2261 100.301 45.4191 102.014V107.355H49.5481V103.086C50.2253 103.168 50.9107 103.226 51.6127 103.226C52.3146 103.226 53 103.168 53.6772 103.086V107.355H57.8062V102.014C61.545 100.486 64.3961 97.627 65.5233 94.1524C69.3468 93.5723 73.1227 92.6866 76.8203 91.4768C77.3488 98.8512 78.3728 106.195 79.9748 113.41L80.0946 113.949C77.8484 115.844 76.3867 118.644 76.3867 121.806V125.935C76.3867 127.077 77.3096 128 78.4512 128H94.9673H103.225C104.367 128 105.29 127.077 105.29 125.935V121.806C105.29 117.713 102.876 114.199 99.4142 112.531L99.7115 111.339C102.026 102.088 103.201 92.5628 103.219 83.0309C105.81 78.7037 107.28 73.7303 107.336 68.5257C112.22 66.4055 115.532 62.4705 115.602 57.9534H115.606L117.091 37.1803C118.932 38.4933 121.114 39.2262 123.42 39.2262H125.935C127.077 39.2262 127.999 38.3034 127.999 37.1617V31.5938C127.999 29.424 127.364 27.3223 126.16 25.52ZM5.97675 99.2311C7.38267 99.9351 8.25802 101.351 8.25802 102.925V107.355L5.78268 105.499C4.7463 104.723 4.12901 103.486 4.12901 102.194V98.3083L5.97675 99.2311ZM99.3378 14.4522H99.6661C107.319 14.4522 113.548 20.6808 113.548 28.336C113.548 28.6663 113.535 28.9987 113.513 29.3249L112.836 38.8051C111.725 39.0735 110.585 39.2262 109.419 39.2262C101.452 39.2262 94.9673 32.7416 94.9673 24.7747C94.9673 20.879 96.5611 17.1649 99.3378 14.4522ZM111.149 5.94433L112.825 7.19955C114.57 8.50845 115.612 10.5936 115.612 12.7758C115.612 14.446 114.972 16.0625 113.884 17.3218C112.476 15.5071 110.732 13.9732 108.742 12.8068C109.912 10.6535 110.73 8.34535 111.149 5.94433ZM94.0011 14.4522C91.9737 17.4829 90.8383 21.0606 90.8383 24.7747C90.8383 35.0208 99.1727 43.3552 109.419 43.3552C110.472 43.3552 111.508 43.252 112.53 43.0807L112.026 50.1248C109 47.2634 104.334 45.4198 99.0963 45.4198C96.9678 45.4198 94.8888 45.7232 92.9028 46.324C90.9167 45.7232 88.8378 45.4198 86.7093 45.4198C81.4716 45.4198 76.8058 47.2634 73.7793 50.1227L72.2949 29.3269C72.2701 28.9987 72.2577 28.6663 72.2577 28.336C72.2577 20.6808 78.4863 14.4522 86.1415 14.4522H94.0011ZM72.9803 7.19955L74.6567 5.94433C75.0758 8.34535 75.8933 10.6535 77.0618 12.8047C75.0716 13.9732 73.3292 15.5071 71.9191 17.3198C70.8332 16.0625 70.1932 14.4439 70.1932 12.7758C70.1932 10.5936 71.2358 8.50845 72.9803 7.19955ZM61.9352 31.5938C61.9352 30.2436 62.3295 28.9347 63.081 27.8116C64.2949 25.9886 66.3016 24.8986 68.4817 24.8098C68.2526 25.9494 68.1287 27.1282 68.1287 28.336C68.1287 28.7633 68.1452 29.1886 68.1741 29.618L68.3413 31.9654L67.2038 33.1029C65.9176 34.387 64.2061 35.0972 62.3852 35.0972H61.9352V31.5938ZM47.4836 45.4198C47.4836 49.9741 43.7799 53.6778 39.2256 53.6778C34.6713 53.6778 30.9676 49.9741 30.9676 45.4198C30.9676 44.1398 31.269 42.9093 31.8244 41.7842L45.863 40.5083C46.92 41.9349 47.4836 43.6319 47.4836 45.4198ZM12.9465 66.1206C17.2366 66.4137 20.6451 69.9605 20.6451 74.3228C20.6451 78.3135 17.8002 81.6498 14.0324 82.4136L12.9465 66.1206ZM28.9031 123.871H24.7741V119.742H20.6451V123.871H16.516V121.806C16.516 118.392 19.2949 115.613 22.7096 115.613C26.1243 115.613 28.9031 118.392 28.9031 121.806V123.871ZM37.1611 121.806V123.871H33.0321V121.806C33.0321 119.476 32.2269 117.349 30.9201 115.619C30.9366 115.619 30.9511 115.613 30.9676 115.613C34.3823 115.613 37.1611 118.392 37.1611 121.806ZM31.8842 106.979L31.236 111.511C31.1451 111.509 31.0605 111.484 30.9676 111.484C29.6153 111.484 28.2837 111.75 27.0471 112.258C28.0587 105.111 29.8651 98.1411 32.4499 91.4355C32.6378 91.4975 32.8298 91.5388 33.0176 91.6007C32.9846 96.7248 32.6109 101.896 31.8842 106.979ZM51.6127 99.0969C47.2421 99.0969 43.5198 96.9044 42.0168 93.8283C46.1004 94.5612 50.2377 94.9679 54.4101 94.9679H55.0067C56.8957 94.9679 58.7786 94.8915 60.6531 94.7408C58.9045 97.3214 55.5311 99.0969 51.6127 99.0969ZM92.9028 123.871H88.7738V119.742H84.6447V123.871H80.5157V121.806C80.5157 118.392 83.2946 115.613 86.7093 115.613C90.1239 115.613 92.9028 118.392 92.9028 121.806V123.871ZM101.161 123.871H97.0318V121.806C97.0318 119.476 96.2266 117.349 94.9198 115.619C94.9363 115.619 94.9508 115.613 94.9673 115.613C98.382 115.613 101.161 118.392 101.161 121.806V123.871ZM94.9673 111.484C94.4264 111.484 93.8896 111.54 93.359 111.622L93.3632 111.579C94.0795 105.123 94.5379 98.589 94.7732 92.0446C96.2844 91.0102 97.6511 89.8273 98.9167 88.5555C98.543 95.899 97.486 103.203 95.7043 110.338L95.407 111.527C95.2604 111.521 95.118 111.484 94.9673 111.484ZM94.9095 86.7099C94.9322 85.3328 94.9673 83.9558 94.9673 82.5809L90.8383 82.6242C90.8383 92.1168 90.3077 101.702 89.2589 111.123L89.1825 111.816C88.3856 111.62 87.566 111.484 86.7093 111.484C85.7265 111.484 84.7955 111.666 83.8933 111.924C81.6615 101.684 80.5157 91.1857 80.5157 80.5164L76.3867 80.7166C76.3867 82.8864 76.4714 85.0583 76.5663 87.2281L75.8995 87.451C69.1486 89.6972 62.121 90.8389 55.0088 90.8389H54.4121C47.4754 90.8389 40.6233 89.7344 34.0272 87.5956C34.6899 86.0802 35.3774 84.5731 36.1206 83.0887L36.9443 81.4392L33.2509 79.5915L32.4272 81.241C27.6644 90.7666 24.5119 100.92 22.9903 111.511C22.8933 111.509 22.8045 111.484 22.7096 111.484C21.8652 111.484 21.058 111.614 20.2714 111.806L14.435 88.4523L14.3091 86.5447C20.228 85.6178 24.7741 80.4978 24.7741 74.3228C24.7741 67.5864 19.3671 62.101 12.6678 61.9503L12.577 60.5815C12.4614 58.8638 12.6141 57.1462 13.0332 55.4739L13.25 54.5924C14.9119 47.9508 20.5233 43.058 27.2866 42.2342C27.0141 43.2665 26.8386 44.3276 26.8386 45.4198C26.8386 52.2512 32.3942 57.8068 39.2256 57.8068C46.0571 57.8068 51.6127 52.2512 51.6127 45.4198C51.6127 43.5452 51.175 41.747 50.3843 40.0975L59.9698 39.2262H62.3852C64.6913 39.2262 66.8755 38.4933 68.715 37.1782L70.1994 57.9534H70.2035C70.3088 64.7167 77.6688 70.1938 86.7093 70.1938C88.8378 70.1938 90.9167 69.8903 92.9028 69.2896C94.8888 69.8903 96.9678 70.1938 99.0963 70.1938C100.49 70.1938 101.834 70.0493 103.126 69.8057C102.709 76.3419 99.7652 82.3951 94.9095 86.7099ZM99.0963 66.0648C97.1804 66.0648 95.3203 65.7634 93.5655 65.1668C93.3508 65.0945 93.1257 65.0573 92.9028 65.0573C92.6798 65.0573 92.4548 65.0945 92.2401 65.1668C90.4852 65.7634 88.6251 66.0648 86.7093 66.0648C79.9955 66.0648 74.3222 62.2826 74.3222 57.8068C74.3222 53.3309 79.9955 49.5488 86.7093 49.5488C88.6251 49.5488 90.4852 49.8502 92.2401 50.4468C92.6715 50.5913 93.1361 50.5913 93.5675 50.4468C95.3203 49.8502 97.1804 49.5488 99.0963 49.5488C105.81 49.5488 111.483 53.3309 111.483 57.8068C111.483 62.2826 105.81 66.0648 99.0963 66.0648ZM123.87 35.0972H123.42C121.599 35.0972 119.888 34.387 118.6 33.1008L117.464 31.9654L117.631 29.6139C117.66 29.1886 117.677 28.7633 117.677 28.336C117.677 27.1282 117.553 25.9515 117.326 24.8098C119.504 24.8986 121.511 25.9886 122.727 27.8116C123.476 28.9347 123.87 30.2415 123.87 31.5938V35.0972Z" fill="#525252"/>
<path d="M61.9351 66.0648C61.867 66.0648 61.7988 66.0648 61.7266 66.0669C60.7707 61.3598 56.5984 57.8068 51.6126 57.8068C45.9207 57.8068 41.29 62.4374 41.29 68.1293C41.29 73.8211 45.9207 78.4518 51.6126 78.4518C51.6807 78.4518 51.7488 78.4518 51.8211 78.4498C52.777 83.1568 56.9493 86.7098 61.9351 86.7098C67.6269 86.7098 72.2576 82.0792 72.2576 76.3873C72.2576 70.6955 67.6269 66.0648 61.9351 66.0648ZM61.9351 82.5808C58.5204 82.5808 55.7416 79.802 55.7354 76.5153C55.7457 76.4451 55.7684 76.2387 55.7705 76.1685C55.7973 75.5161 55.5124 74.8885 55.0025 74.4777C54.6309 74.1783 54.1746 74.0214 53.708 74.0214C53.5346 74.0214 53.3591 74.0441 53.1878 74.0875C52.5746 74.2485 52.075 74.3228 51.6126 74.3228C48.1979 74.3228 45.4191 71.544 45.4191 68.1293C45.4191 64.7146 48.1979 61.9358 51.6126 61.9358C55.0273 61.9358 57.8061 64.7146 57.8123 68.0013C57.802 68.0694 57.7792 68.28 57.7772 68.3502C57.7503 69.0026 58.0373 69.6323 58.5472 70.041C59.0572 70.4477 59.7302 70.5922 60.3661 70.4271C60.973 70.2681 61.4706 70.1938 61.9351 70.1938C65.3498 70.1938 68.1286 72.9726 68.1286 76.3873C68.1286 79.802 65.3498 82.5808 61.9351 82.5808Z" fill="#525252"/>
</svg>
