<svg width="100" height="100" viewBox="0 0 100 100" fill="none" xmlns="http://www.w3.org/2000/svg">
<mask id="mask0_45_119" style="mask-type:alpha" maskUnits="userSpaceOnUse" x="0" y="0" width="100" height="100">
<path d="M100 100H0V12C0 5.37258 5.37258 0 12 0H100V100Z" fill="#C4C4C4"/>
</mask>
<g mask="url(#mask0_45_119)">
<path d="M42.9363 31.2944C44.3288 31.3573 45.7017 30.8369 46.7024 29.8667C48.71 27.91 48.7695 24.6899 46.8225 22.6757C46.1948 22.0264 45.1597 22.009 44.5106 22.6365C44.5037 22.6431 44.4972 22.6496 44.4904 22.6564C43.861 23.2858 43.8504 24.3061 44.4716 24.9485C45.1671 25.6678 45.1532 26.8168 44.4267 27.5186C44.0646 27.8696 43.5879 28.0504 43.084 28.0277C42.1818 27.9869 41.4174 28.6853 41.3768 29.5872C41.336 30.4891 42.0342 31.2537 42.9363 31.2944Z" fill="#333333" fill-opacity="0.06"/>
<path d="M33.0174 33.6774C34.2047 34.156 35.552 34.1236 36.7142 33.5881C39.0509 32.5108 40.0787 29.7328 39.0062 27.3953C38.6296 26.5745 37.659 26.2146 36.8383 26.591C36.6566 26.6744 36.4975 26.7869 36.364 26.9204C35.8943 27.3901 35.7411 28.1198 36.0343 28.7589C36.3565 29.4609 36.0462 30.2953 35.3456 30.6182C34.9933 30.7805 34.6007 30.7899 34.2405 30.6446C33.4032 30.307 32.45 30.7121 32.1127 31.5494C31.7748 32.387 32.18 33.3395 33.0174 33.6774Z" fill="#333333" fill-opacity="0.06"/>
<path d="M35.8058 51.3676C36.7089 51.3668 37.44 50.6339 37.439 49.731L37.4368 47.5493C37.4359 46.6463 36.7031 45.915 35.8002 45.9161C35.3495 45.9164 34.9415 46.0994 34.646 46.3949C34.3497 46.6911 34.1666 47.1005 34.1671 47.5526L34.1692 49.7344C34.1701 50.6374 34.903 51.3687 35.8058 51.3676Z" fill="#333333" fill-opacity="0.06"/>
<path d="M28.0736 29.2501L29.6144 27.7092C30.253 27.0706 30.2529 26.0355 29.6144 25.397C28.9759 24.7586 27.9409 24.7584 27.3022 25.397L25.7614 26.9379C25.1228 27.5765 25.1229 28.6116 25.7614 29.2501C26.3999 29.8885 27.435 29.8887 28.0736 29.2501Z" fill="#333333" fill-opacity="0.06"/>
<path d="M16.259 41.0644L17.8 39.5234C18.4386 38.8848 18.4384 37.8497 17.8 37.2112C17.1615 36.5728 16.1263 36.5728 15.4878 37.2112L13.9468 38.7522C13.3083 39.3907 13.3083 40.4259 13.9468 41.0644C14.5853 41.7029 15.6205 41.7029 16.259 41.0644Z" fill="#333333" fill-opacity="0.06"/>
<path d="M-34.733 50.3653L-32.807 51.6893C-31.5767 52.5357 -29.9164 52.3826 -28.8591 51.3254C-28.7264 51.1926 -28.6048 51.0467 -28.4974 50.8908L-23.4944 43.6361L-24.4145 48.2671C-24.6558 49.4807 -24.1537 50.718 -23.1324 51.4222C-22.852 51.6144 -22.5426 51.7585 -22.2107 51.8511L-19.8834 52.4986C-19.0847 52.7217 -18.2142 52.6106 -17.4973 52.1946C-17.1458 51.9911 -16.8392 51.7175 -16.5931 51.3977C-15.1963 53.4125 -13.6136 55.314 -11.8401 57.0875C-11.0532 57.8744 -9.90285 58.0783 -8.92618 57.7031C-7.70875 60.687 -5.36404 63.1523 -2.28854 64.4816C-2.03867 64.59 -1.7737 64.6447 -1.50133 64.6449C-1.23126 64.6449 -0.968904 64.5912 -0.717649 64.484C0.74519 63.8544 2.05588 62.9661 3.17822 61.8438C3.32172 61.7002 3.46092 61.5537 3.59656 61.4044C6.98344 64.471 12.2299 64.3764 15.4901 61.1162C15.9194 60.6869 16.2924 60.2226 16.6116 59.7332C18.011 61.6942 19.9341 63.2866 22.2387 64.2825C22.4904 64.3936 22.7588 64.4508 23.0481 64.4531C23.3244 64.4531 23.5929 64.3976 23.844 64.2893C25.4198 63.6112 26.8318 62.6543 28.0409 61.4451C29.8623 59.6238 31.0925 57.3694 31.6447 54.9132C33.786 55.9556 36.1867 56.5438 38.7219 56.5467C39.4643 56.5473 40.1623 56.2588 40.6871 55.7339C41.212 55.209 41.5005 54.5111 41.5001 53.7679L41.4873 42.5602C43.4471 42.4483 45.3625 41.6375 46.842 40.158C47.1777 39.8223 47.4872 39.4539 47.7621 39.0631C48.758 37.6473 49.2775 35.9474 49.2638 34.2322C50.881 33.6677 52.3103 32.5976 53.3022 31.1877C53.5205 30.8775 53.7121 30.5565 53.8819 30.2287L58.2051 34.5519C61.1823 37.5291 66.0014 37.5627 69.0125 34.6539L71.4643 37.1058C70.715 38.1686 70.8129 39.6501 71.7631 40.6002L77.3183 46.1555C78.3807 47.2178 80.1094 47.218 81.1719 46.1555L90.5734 36.754C91.6359 35.6915 91.6358 33.9628 90.5734 32.9004L85.0182 27.3451C84.068 26.395 82.5865 26.2971 81.5237 27.0464L79.0722 24.5949C81.9811 21.584 81.9473 16.7649 78.97 13.7876L45.2282 -19.9541C45.4519 -24.3468 43.9803 -28.6923 40.7639 -31.9087C34.4368 -38.2357 23.7362 -37.8302 16.9104 -31.0043L-29.3484 15.2816C-30.9272 16.8616 -31.7184 19.041 -31.5192 21.2607C-31.3259 23.4222 -30.2149 25.3696 -28.4658 26.6369L-39.3688 34.218C-39.5197 34.323 -39.6624 34.4423 -39.7924 34.5723C-40.2533 35.0331 -40.5534 35.6163 -40.66 36.2575C-40.7974 37.0817 -40.5911 37.9388 -40.0948 38.6087L-38.6654 40.5387C-38.4608 40.8154 -38.2145 41.0537 -37.9331 41.2473C-36.9151 41.9472 -35.5796 41.9746 -34.5309 41.3169L-30.5261 38.8066L-35.5241 46.0542C-35.9955 46.7377 -36.1723 47.5628 -36.022 48.3778C-35.8723 49.1909 -35.4145 49.8966 -34.733 50.3653ZM0.866347 59.5319C0.17038 60.2278 -0.624087 60.8019 -1.49917 61.2426C-3.87732 60.0403 -5.58817 57.8892 -6.26271 55.3735L-3.14836 52.2592L-3.14605 54.249C-3.14513 55.152 -2.41216 55.8831 -1.50903 55.882C-0.605891 55.881 0.125371 55.1482 0.123982 54.2453L0.122752 53.1925C1.1808 53.7576 2.33782 54.0539 3.49961 54.0842C3.26331 56.1428 2.35076 58.0475 0.866347 59.5319ZM13.1782 58.8043C11.0903 60.8922 7.68819 60.8871 5.59413 58.7931C5.55529 58.7542 5.51876 58.714 5.4813 58.6744C6.30366 57.0594 6.76486 55.2741 6.82375 53.4169C7.034 53.3223 7.24225 53.2213 7.44495 53.1065C9.61007 54.5952 12.3056 54.8285 14.6159 53.886C14.9867 55.6067 14.51 57.4725 13.1782 58.8043ZM25.7292 59.1331C24.944 59.9183 24.0453 60.563 23.0504 61.0553C20.6758 59.8759 18.8891 57.8451 17.9973 55.4302C18.0531 54.2341 17.8627 53.0279 17.4249 51.8958C17.6193 51.6774 17.8029 51.4482 17.9714 51.2088C18.7196 50.1452 19.1712 48.9074 19.3081 47.6305C19.9901 47.8303 20.692 47.9419 21.3965 47.9699L21.4025 53.2782C21.4034 54.1812 22.1364 54.9123 23.0394 54.9111C23.9423 54.9102 24.6736 54.1773 24.6725 53.2742L24.6659 47.4723C25.4779 47.1816 26.2551 46.767 26.9662 46.2255C28.0753 47.8756 28.7057 49.8449 28.7082 51.9185C28.7114 54.6467 27.6534 57.2089 25.7292 59.1331ZM16.7122 32.3986L17.7143 31.3966C18.3125 31.6572 19.0342 31.5444 19.5236 31.055C20.013 30.5655 20.1257 29.8437 19.8652 29.2456L21.0441 28.0667C21.2161 28.7863 21.8621 29.3216 22.6343 29.3208C23.5372 29.3199 24.2685 28.5871 24.2676 27.6841L24.2653 25.5025C24.2651 25.3066 24.2286 25.1196 24.1652 24.9456L26.5183 22.5926C28.7518 23.0636 30.8858 24.122 32.6666 25.7755L14.3255 44.1166C12.672 42.3358 11.6136 40.2018 11.1426 37.9682L13.5912 35.5196C13.7651 35.5831 13.9525 35.6195 14.1483 35.6198L16.3297 35.6223C17.2327 35.6229 17.9657 34.8924 17.9664 33.9893C17.9675 33.2168 17.432 32.5707 16.7122 32.3986ZM26.3788 36.6877C27.558 38.7385 27.2765 41.4033 25.5306 43.1492C23.7846 44.8952 21.1196 45.1765 19.069 43.9975L26.3788 36.6877ZM38.23 53.2673C35.9419 53.1785 33.8038 52.4945 31.964 51.3679C31.9129 50.1363 31.6944 48.9372 31.327 47.7962C31.6101 47.7282 31.879 47.5855 32.0998 47.3646L33.6404 45.8241C34.2788 45.1856 34.2788 44.1504 33.6404 43.5119C33.0019 42.8734 31.9667 42.8734 31.3282 43.5119L29.9768 44.8633C29.7336 44.4681 29.4695 44.0859 29.1868 43.7175C29.5253 43.1379 29.792 42.5278 29.9837 41.8989C32.0841 42.4582 34.3511 42.1731 36.2605 41.0588C36.2642 41.0616 36.2681 41.0642 36.2719 41.0668C36.8857 41.4994 37.5402 41.8376 38.2172 42.0833L38.23 53.2673ZM48.6968 21.9367C48.9542 22.0584 49.2001 22.2016 49.429 22.363C51.6721 23.943 52.2098 27.058 50.6282 29.3063C50.4615 29.5434 50.2742 29.7665 50.0716 29.969C49.31 30.7306 48.3392 31.2156 47.2645 31.3713C46.8198 31.4355 46.421 31.6805 46.162 32.048C45.9032 32.4156 45.807 32.8734 45.8963 33.3141C46.1722 34.6755 45.885 36.0491 45.0881 37.1821C44.921 37.4198 44.7331 37.6431 44.5301 37.8461C42.8172 39.559 40.136 39.7893 38.1548 38.3932C37.9278 38.2333 37.7089 38.049 37.5043 37.8451C36.9049 37.2477 35.9484 37.2066 35.2997 37.7504C33.8936 38.9293 31.9799 39.2162 30.3239 38.5803C30.1872 37.0779 29.6599 35.6038 28.741 34.3255L35.3341 27.7324C36.1539 26.9126 36.3512 25.7032 35.9283 24.6937C38.3668 24.2311 40.6085 23.0539 42.4 21.2624C43.5223 20.1401 44.4105 18.8292 45.0406 17.3655C45.1473 17.117 45.2014 16.8536 45.2014 16.5829C45.2014 16.3085 45.1459 16.0425 45.0386 15.7971C44.6337 14.86 44.1213 13.9928 43.5231 13.2028C44.4091 13.2601 45.2876 13.5547 46.0598 14.0988C47.9003 15.3955 48.641 17.7784 47.8618 19.8932C47.5689 20.6879 47.9313 21.5747 48.6968 21.9367ZM34.8052 14.9379L34.1737 14.9371L36.9503 12.1605C39.0199 12.9833 40.7606 14.5348 41.7985 16.5847C41.3572 17.4611 40.7833 18.2551 40.088 18.9504C38.346 20.6924 36.0264 21.6503 33.557 21.6475C33.2285 21.647 32.9034 21.6274 32.5819 21.5929C31.499 20.9019 30.3506 20.3556 29.1652 19.9459L30.9075 18.2036L34.8017 18.208C35.7047 18.2087 36.438 17.4779 36.4384 16.575C36.4393 15.6717 35.7082 14.9388 34.8052 14.9379ZM39.4125 9.69831L43.5339 5.57693C44.47 6.88054 44.751 8.50877 44.3789 10.0068C43.0838 9.8187 41.7617 9.94155 40.5231 10.3678C40.1643 10.1267 39.7946 9.90163 39.4125 9.69831ZM87.8759 34.8272L79.2451 43.4579L74.4606 38.6734L83.0914 30.0427L87.8759 34.8272ZM73.7463 34.7634L71.3273 32.3444L76.7622 26.9095L79.1812 29.3285L73.7463 34.7634ZM71.9692 11.4115L64.4618 18.9188C63.8232 19.5574 63.8234 20.5925 64.4618 21.231C65.1003 21.8695 66.1354 21.8696 66.774 21.231L74.2814 13.7237L76.6577 16.1C78.3918 17.8341 78.3961 20.6512 76.6674 22.38L66.7978 32.2496C65.0689 33.9785 62.2517 33.9742 60.5176 32.24L58.1413 29.8637L60.2999 27.7051C60.9385 27.0665 60.9384 26.0314 60.2999 25.3929C59.6615 24.7544 58.6264 24.7543 57.9877 25.3929L55.8291 27.5515L54.803 26.5254C54.8289 23.9022 53.6123 21.3098 51.3136 19.6905C51.3091 19.6872 51.3043 19.684 51.2997 19.6806C51.8819 16.5534 50.6079 13.303 47.9433 11.4255C47.7878 11.3159 47.6286 11.2143 47.4681 11.1168C47.7272 10.2207 47.8347 9.29075 47.798 8.36495L58.3603 -2.19738L71.9692 11.4115ZM56.0485 -4.50955L46.8284 4.71048C46.5614 4.19811 46.2425 3.70592 45.8659 3.24487L46.0608 3.05003C47.1248 1.98597 47.1242 0.253685 46.0592 -0.811301C44.2235 -2.64702 42.2508 -4.27849 40.157 -5.71096C40.5159 -6.01648 40.8709 -6.3428 41.2174 -6.68932C42.6155 -8.08742 43.7258 -9.64135 44.3431 -11.0646C45.2876 -13.2416 44.8439 -14.5481 44.3327 -15.2478C44.4157 -15.4955 44.4913 -15.7449 44.5633 -15.9948L56.0485 -4.50955ZM27.207 -4.0724C26.4575 -3.98916 25.9199 -4.01783 25.5681 -4.07456C25.5818 -4.08858 25.5962 -4.10323 25.6108 -4.11787C26.2651 -4.77222 27.7046 -5.68414 29.7815 -6.28099C30.555 -6.50296 31.3251 -6.65001 32.0084 -6.70658C32.8052 -6.7724 33.4374 -7.40517 33.503 -8.20148C33.5593 -8.88512 33.7064 -9.65492 33.9285 -10.4273C34.5253 -12.5049 35.4372 -13.9443 36.0914 -14.5985C36.1064 -14.6135 36.1209 -14.6276 36.1351 -14.6415C36.1919 -14.2899 36.2208 -13.7521 36.1375 -13.0023C36.0649 -12.3471 36.3931 -11.7121 36.9696 -11.3924C37.5464 -11.0727 38.2587 -11.1305 38.7762 -11.5395C40.0366 -12.5354 41.0372 -12.9616 41.5802 -13.0866C41.4224 -12.4075 40.8087 -10.905 38.9047 -9.00103C37.3278 -7.42413 35.8437 -6.60315 34.9805 -6.36084C34.4316 -6.20654 34.0029 -5.77786 33.8485 -5.22911C33.6058 -4.36558 32.7847 -2.88132 31.2078 -1.30441C29.3037 0.599743 27.8012 1.21308 27.1223 1.37093C27.2471 0.827875 27.6736 -0.17268 28.6698 -1.43344C29.0786 -1.95105 29.1367 -2.66336 28.8167 -3.24017C28.4973 -3.81729 27.8624 -4.14546 27.207 -4.0724ZM15.4483 -20.4563L15.1943 -20.6308C14.3143 -21.2358 13.3429 -21.6274 12.3452 -21.8148L19.2226 -28.6921C24.7733 -34.2429 33.3994 -34.6488 38.4517 -29.5965C41.9044 -26.1438 42.8058 -21.0225 41.2604 -16.3541C40.6372 -16.2636 39.9626 -16.0484 39.2496 -15.7059C39.1014 -16.2727 38.8628 -16.8029 38.4963 -17.2382C38.0088 -17.8169 37.3396 -18.16 36.6111 -18.2041C35.6484 -18.2625 34.6956 -17.8274 33.7791 -16.9108C32.5577 -15.6894 31.4386 -13.6032 30.7856 -11.3305C30.6352 -10.8073 30.5135 -10.292 30.4211 -9.78825C29.9176 -9.69576 29.4023 -9.57415 28.8787 -9.42386C26.6061 -8.77074 24.5201 -7.65149 23.2985 -6.4302L23.2983 -6.43005C22.3821 -5.51381 21.9469 -4.56104 22.0053 -3.59871C22.0493 -2.87007 22.3923 -2.20061 22.9712 -1.71321C23.4065 -1.34665 23.9368 -1.10803 24.5036 -0.959898C24.1612 -0.246671 23.9459 0.428024 23.8552 1.05108C20.1528 2.27669 16.1663 1.96223 12.9524 0.0576114L18.0229 -11.2252C19.5068 -14.5281 18.4242 -18.4102 15.4483 -20.4563ZM-28.2623 20.9686C-28.3748 19.716 -27.9273 18.4855 -27.0352 17.5927L-25.8222 16.3788L-20.9708 19.714C-20.2266 20.2255 -19.2086 20.0377 -18.6971 19.2929C-18.1857 18.549 -18.374 17.531 -19.1181 17.0194L-23.4716 14.0267L-19.4953 10.0473L-16.2148 12.3027C-15.4706 12.8142 -14.4529 12.6258 -13.9411 11.8816C-13.4297 11.1377 -13.6181 10.1197 -14.3621 9.60814L-17.1447 7.69488L-7.89572 -1.56122L-3.44001 1.50164C-2.69564 2.01294 -1.67828 1.82489 -1.16652 1.08037C-0.654916 0.336307 -0.843585 -0.681667 -1.58765 -1.19328L-5.54516 -3.91363L7.95949 -17.4288C7.9598 -17.4291 7.96011 -17.4294 7.96042 -17.4297C9.40506 -18.8743 11.6682 -19.0874 13.3429 -17.9362L13.5969 -17.7617C15.2695 -16.6116 15.8767 -14.4266 15.0408 -12.5659L12.2231 -6.2961L10.0577 -7.78452C9.39797 -8.23802 8.52304 -8.14121 7.97675 -7.59492C7.90677 -7.52494 7.84234 -7.44756 7.78423 -7.36324C7.27293 -6.61918 7.46145 -5.60136 8.20566 -5.08991L10.861 -3.26483L6.67855 6.04199C6.30844 6.86559 6.67608 7.83346 7.49967 8.20356C8.32342 8.57382 9.29192 8.20526 9.66109 7.38259L11.6073 3.05173C15.6051 5.28852 20.471 5.63058 24.9623 4.12288C25.662 4.63418 26.9685 5.07781 29.1453 4.13352C30.5686 3.51617 32.1225 2.40586 33.5206 1.00776C34.4828 0.0455905 35.2954 -0.979476 35.9131 -1.98404L36.6114 -1.28576C37.2498 -0.64729 38.2849 -0.647139 38.9235 -1.28576C39.1935 -1.55567 39.3479 -1.89633 39.3897 -2.24824C40.7779 -1.22472 42.1048 -0.101932 43.3638 1.12322L5.70804 38.779C5.06942 39.4176 5.06958 40.4527 5.70804 41.0912C6.34652 41.7297 7.3816 41.7298 8.02022 41.0912L8.49329 40.6181C9.27326 42.8705 10.5573 44.9863 12.3539 46.7829C13.3738 47.8028 14.9945 47.8626 16.0845 46.9635C16.0598 47.8048 15.7947 48.6206 15.2973 49.3279C15.1514 49.5351 14.9879 49.7298 14.8109 49.9068C13.3183 51.3993 10.9823 51.5999 9.25662 50.3838C9.05685 50.2429 8.86602 50.0823 8.68937 49.906C8.0899 49.3081 7.13296 49.2667 6.48416 49.8107C4.98125 51.071 2.81181 51.1623 1.20855 50.0328C0.782336 49.7324 0.431656 49.366 0.151571 48.9598L1.39198 47.7194C2.0306 47.0808 2.03045 46.0457 1.39198 45.4073C0.753512 44.7688 -0.281574 44.7686 -0.920194 45.4073L-9.90562 54.3927C-11.9977 52.2433 -13.7961 49.8986 -15.2965 47.3792L-12.7297 37.4153C-11.0128 38.3658 -8.99092 38.6064 -7.0769 38.0661C-4.93028 37.46 -3.17426 35.9448 -2.2594 33.9093L5.74211 16.1035C6.11237 15.2798 5.74457 14.312 4.92098 13.9419C4.09723 13.5717 3.12919 13.9404 2.75956 14.7629L1.70536 17.1085L-1.67212 14.7866C-2.33186 14.3331 -3.20694 14.4298 -3.75338 14.9762C-3.82321 15.0461 -3.88764 15.1234 -3.94575 15.2078C-4.45721 15.9517 -4.26884 16.9696 -3.52479 17.4813L0.342868 20.1401L-5.24211 32.5682C-5.75973 33.7197 -6.75228 34.5762 -7.96571 34.9188C-9.17682 35.2608 -10.4639 35.0496 -11.4967 34.3399L-26.4623 24.052C-27.4943 23.3425 -28.1504 22.2187 -28.2623 20.9686ZM-23.338 34.1428C-22.8977 33.5043 -22.9666 32.6447 -23.5028 32.0842C-24.039 31.5239 -24.8951 31.4175 -25.5521 31.8294L-36.1339 38.4626L-37.3615 36.8049L-25.5899 28.6196L-15.6085 35.4814L-19.1693 49.3033L-21.1753 48.7453L-18.7449 36.514C-18.5939 35.7535 -18.9977 34.9914 -19.712 34.6895C-20.4262 34.3876 -21.2546 34.629 -21.6946 35.2673L-31.0949 48.8982L-32.7356 47.7705L-23.338 34.1428Z" fill="#333333" fill-opacity="0.06"/>
</g>
</svg>
