<svg width="100" height="100" viewBox="0 0 100 100" fill="none" xmlns="http://www.w3.org/2000/svg">
<mask id="mask0_45_161" style="mask-type:alpha" maskUnits="userSpaceOnUse" x="0" y="0" width="100" height="100">
<path d="M100 0L100 100H12C5.37258 100 0 94.6274 0 88V0L100 0Z" fill="#C4C4C4"/>
</mask>
<g mask="url(#mask0_45_161)">
<path d="M31.294 57.0637C31.3569 55.6712 30.8365 54.2984 29.8664 53.2977C27.9096 51.2901 24.6895 51.2306 22.6753 53.1776C22.0261 53.8053 22.0087 54.8404 22.6362 55.4895C22.6428 55.4964 22.6493 55.5029 22.6561 55.5097C23.2854 56.139 24.3057 56.1497 24.9482 55.5285C25.6674 54.833 26.8164 54.8468 27.5183 55.5733C27.8692 55.9354 28.0501 56.4122 28.0274 56.9161C27.9866 57.8183 28.685 58.5827 29.5869 58.6232C30.4888 58.6641 31.2534 57.9658 31.294 57.0637Z" fill="#333333" fill-opacity="0.06"/>
<path d="M33.6774 66.9822C34.156 65.7948 34.1236 64.4476 33.5881 63.2853C32.5108 60.9487 29.7328 59.9208 27.3954 60.9934C26.5745 61.3699 26.2146 62.3406 26.591 63.1613C26.6744 63.343 26.787 63.5021 26.9204 63.6356C27.3901 64.1052 28.1198 64.2585 28.7589 63.9653C29.4609 63.6431 30.2953 63.9534 30.6182 64.654C30.7805 65.0062 30.7899 65.3988 30.6446 65.7591C30.307 66.5964 30.7121 67.5496 31.5494 67.8869C32.387 68.2248 33.3395 67.8195 33.6774 66.9822Z" fill="#333333" fill-opacity="0.06"/>
<path d="M51.3672 64.1943C51.3664 63.2912 50.6335 62.5601 49.7306 62.5612L47.5489 62.5633C46.6459 62.5643 45.9146 63.2971 45.9157 64.1999C45.916 64.6506 46.099 65.0586 46.3945 65.3541C46.6907 65.6504 47.1001 65.8335 47.5523 65.8331L49.734 65.8309C50.637 65.83 51.3683 65.0972 51.3672 64.1943Z" fill="#333333" fill-opacity="0.06"/>
<path d="M29.2497 71.9267L27.7088 70.3859C27.0702 69.7473 26.0351 69.7474 25.3966 70.3859C24.7582 71.0244 24.758 72.0595 25.3966 72.6981L26.9375 74.2389C27.5761 74.8775 28.6112 74.8774 29.2497 74.2389C29.8881 73.6004 29.8883 72.5654 29.2497 71.9267Z" fill="#333333" fill-opacity="0.06"/>
<path d="M41.0643 83.741L39.5233 82.2C38.8847 81.5614 37.8496 81.5616 37.2111 82.2C36.5726 82.8385 36.5726 83.8737 37.2111 84.5122L38.7521 86.0532C39.3906 86.6917 40.4258 86.6917 41.0643 86.0532C41.7027 85.4147 41.7027 84.3795 41.0643 83.741Z" fill="#333333" fill-opacity="0.06"/>
<path d="M50.3651 134.733L51.689 132.807C52.5354 131.577 52.3824 129.916 51.3251 128.859C51.1924 128.726 51.0464 128.605 50.8906 128.497L43.6359 123.494L48.2668 124.415C49.4804 124.656 50.7177 124.154 51.4219 123.132C51.6141 122.852 51.7582 122.543 51.8509 122.211L52.4983 119.883C52.7215 119.085 52.6103 118.214 52.1943 117.497C51.9908 117.146 51.7172 116.839 51.3974 116.593C53.4122 115.196 55.3137 113.614 57.0872 111.84C57.8741 111.053 58.078 109.903 57.7028 108.926C60.6868 107.709 63.152 105.364 64.4814 102.289C64.5897 102.039 64.6445 101.774 64.6446 101.501C64.6446 101.231 64.591 100.969 64.4837 100.718C63.8541 99.2548 62.9658 97.9441 61.8435 96.8218C61.7 96.6783 61.5534 96.5391 61.4042 96.4034C64.4707 93.0166 64.3761 87.7701 61.1159 84.5099C60.6866 84.0806 60.2223 83.7076 59.7329 83.3884C61.694 81.989 63.2863 80.0659 64.2822 77.7613C64.3934 77.5096 64.4505 77.2412 64.4528 76.9519C64.4528 76.6756 64.3974 76.4071 64.289 76.156C63.6109 74.5802 62.654 73.1682 61.4449 71.9591C59.6235 70.1377 57.3691 68.9075 54.913 68.3553C55.9553 66.214 56.5435 63.8133 56.5464 61.2781C56.5471 60.5357 56.2585 59.8377 55.7336 59.3129C55.2088 58.788 54.5108 58.4995 53.7677 58.4999L42.5599 58.5127C42.448 56.5529 41.6372 54.6375 40.1577 53.158C39.822 52.8223 39.4536 52.5128 39.0628 52.2379C37.647 51.242 35.9471 50.7225 34.2319 50.7362C33.6674 49.119 32.5974 47.6897 31.1874 46.6978C30.8773 46.4795 30.5562 46.2879 30.2285 46.1181L34.5516 41.7949C37.5288 38.8177 37.5624 33.9986 34.6537 30.9875L37.1055 28.5357C38.1683 29.285 39.6498 29.1871 40.6 28.2369L46.1552 22.6817C47.2176 21.6193 47.2177 19.8906 46.1552 18.8281L36.7537 9.42659C35.6912 8.36407 33.9625 8.36422 32.9001 9.42659L27.3449 14.9818C26.3947 15.932 26.2968 17.4135 27.0461 18.4763L24.5946 20.9278C21.5837 18.0189 16.7647 18.0527 13.7874 21.03L-19.9544 54.7718C-24.3471 54.5481 -28.6926 56.0197 -31.909 59.2361C-38.236 65.5632 -37.8305 76.2638 -31.0046 83.0896L15.2813 129.348C16.8613 130.927 19.0408 131.718 21.2605 131.519C23.4219 131.326 25.3693 130.215 26.6366 128.466L34.2177 139.369C34.3227 139.52 34.442 139.662 34.572 139.792C35.0329 140.253 35.616 140.553 36.2572 140.66C37.0815 140.797 37.9385 140.591 38.6084 140.095L40.5385 138.665C40.8152 138.461 41.0535 138.215 41.2471 137.933C41.9469 136.915 41.9743 135.58 41.3166 134.531L38.8063 130.526L46.0539 135.524C46.7374 135.995 47.5626 136.172 48.3775 136.022C49.1906 135.872 49.8963 135.414 50.3651 134.733ZM59.5316 99.1337C60.2276 99.8296 60.8016 100.624 61.2423 101.499C60.04 103.877 57.8889 105.588 55.3732 106.263L52.2589 103.148L54.2488 103.146C55.1517 103.145 55.8828 102.412 55.8818 101.509C55.8807 100.606 55.1479 99.8746 54.2451 99.876L53.1922 99.8772C53.7573 98.8192 54.0536 97.6622 54.084 96.5004C56.1426 96.7367 58.0472 97.6492 59.5316 99.1337ZM58.804 86.8218C60.8919 88.9097 60.8869 92.3118 58.7928 94.4059C58.7539 94.4447 58.7137 94.4812 58.6741 94.5187C57.0591 93.6963 55.2738 93.2351 53.4167 93.1763C53.322 92.966 53.2211 92.7578 53.1062 92.5551C54.595 90.3899 54.8282 87.6944 53.8857 85.3841C55.6065 85.0133 57.4722 85.49 58.804 86.8218ZM59.1328 74.2708C59.918 75.056 60.5627 75.9547 61.055 76.9496C59.8757 79.3242 57.8448 81.1109 55.43 82.0027C54.2338 81.9469 53.0276 82.1373 51.8956 82.5751C51.6771 82.3807 51.4479 82.1971 51.2085 82.0286C50.1449 81.2804 48.9072 80.8288 47.6302 80.6919C47.83 80.0099 47.9416 79.308 47.9696 78.6035L53.2779 78.5975C54.1809 78.5966 54.912 77.8636 54.9108 76.9606C54.9099 76.0577 54.1771 75.3264 53.2739 75.3275L47.4721 75.3341C47.1813 74.5221 46.7667 73.7449 46.2252 73.0338C47.8753 71.9247 49.8447 71.2943 51.9182 71.2918C54.6464 71.2886 57.2086 72.3466 59.1328 74.2708ZM32.3984 83.2878L31.3963 82.2857C31.6569 81.6875 31.5441 80.9658 31.0547 80.4764C30.5653 79.987 29.8434 79.8743 29.2453 80.1348L28.0664 78.9559C28.786 78.7839 29.3213 78.1379 29.3206 77.3657C29.3196 76.4628 28.5868 75.7315 27.6838 75.7324L25.5022 75.7347C25.3063 75.7349 25.1193 75.7714 24.9453 75.8348L22.5923 73.4817C23.0633 71.2482 24.1217 69.1142 25.7752 67.3334L44.1163 85.6745C42.3355 87.328 40.2015 88.3864 37.9679 88.8574L35.5193 86.4088C35.5829 86.2349 35.6192 86.0475 35.6195 85.8517L35.622 83.6703C35.6226 82.7673 34.8921 82.0343 33.989 82.0336C33.2166 82.0325 32.5704 82.568 32.3984 83.2878ZM36.6875 73.6212C38.7382 72.442 41.4031 72.7235 43.1489 74.4694C44.8949 76.2154 45.1762 78.8804 43.9972 80.931L36.6875 73.6212ZM53.267 61.77C53.1782 64.0581 52.4943 66.1962 51.3676 68.036C50.136 68.0871 48.9369 68.3056 47.7959 68.673C47.7279 68.3899 47.5852 68.121 47.3643 67.9002L45.8238 66.3596C45.1853 65.7212 44.1501 65.7212 43.5116 66.3596C42.8731 66.9981 42.8731 68.0333 43.5116 68.6718L44.863 70.0232C44.4678 70.2664 44.0857 70.5305 43.7172 70.8132C43.1377 70.4747 42.5276 70.208 41.8986 70.0163C42.4579 67.9159 42.1729 65.6489 41.0586 63.7395C41.0613 63.7358 41.0639 63.7319 41.0666 63.7281C41.4991 63.1143 41.8373 62.4598 42.083 61.7828L53.267 61.77ZM21.9364 51.3032C22.0582 51.0458 22.2014 50.7999 22.3628 50.571C23.9427 48.3279 27.0577 47.7902 29.3061 49.3718C29.5431 49.5385 29.7662 49.7258 29.9687 49.9284C30.7304 50.69 31.2153 51.6608 31.371 52.7355C31.4353 53.1802 31.6802 53.579 32.0477 53.838C32.4153 54.0968 32.8731 54.193 33.3138 54.1037C34.6752 53.8278 36.0488 54.115 37.1818 54.9119C37.4195 55.079 37.6428 55.2669 37.8459 55.4699C39.5587 57.1828 39.789 59.864 38.3929 61.8452C38.2331 62.0722 38.0487 62.2911 37.8448 62.4957C37.2475 63.0951 37.2063 64.0516 37.7501 64.7003C38.929 66.1064 39.2159 68.0201 38.5801 69.6761C37.0776 69.8128 35.6035 70.3401 34.3252 71.259L27.7321 64.6659C26.9123 63.8461 25.7029 63.6488 24.6934 64.0717C24.2308 61.6332 23.0536 59.3915 21.2622 57.6C20.1398 56.4777 18.829 55.5895 17.3652 54.9594C17.1167 54.8527 16.8533 54.7986 16.5826 54.7986C16.3082 54.7986 16.0422 54.8541 15.7968 54.9614C14.8597 55.3663 13.9925 55.8787 13.2025 56.4769C13.2599 55.5909 13.5544 54.7124 14.0986 53.9402C15.3952 52.0997 17.7782 51.359 19.8929 52.1382C20.6877 52.4311 21.5745 52.0687 21.9364 51.3032ZM14.9376 65.1948L14.9368 65.8263L12.1602 63.0497C12.983 60.9801 14.5345 59.2394 16.5845 58.2015C17.4608 58.6428 18.2548 59.2167 18.9501 59.912C20.6921 61.654 21.65 63.9736 21.6472 66.443C21.6467 66.7715 21.6272 67.0966 21.5926 67.4181C20.9016 68.501 20.3553 69.6494 19.9456 70.8348L18.2033 69.0925L18.2078 65.1983C18.2084 64.2953 17.4776 63.562 16.5748 63.5616C15.6715 63.5607 14.9385 64.2918 14.9376 65.1948ZM9.69804 60.5875L5.57666 56.4661C6.88027 55.53 8.5085 55.249 10.0065 55.6211C9.81842 56.9162 9.94128 58.2383 10.3675 59.4769C10.1264 59.8357 9.90135 60.2054 9.69804 60.5875ZM34.8269 12.1241L43.4577 20.7549L38.6732 25.5394L30.0424 16.9086L34.8269 12.1241ZM34.7631 26.2537L32.3441 28.6727L26.9093 23.2378L29.3283 20.8188L34.7631 26.2537ZM11.4112 28.0308L18.9185 35.5382C19.5572 36.1768 20.5922 36.1766 21.2307 35.5382C21.8692 34.8997 21.8693 33.8646 21.2307 33.226L13.7234 25.7186L16.0997 23.3423C17.8338 21.6082 20.651 21.6039 22.3797 23.3326L32.2493 33.2022C33.9782 34.9311 33.9739 37.7483 32.2398 39.4824L29.8635 41.8587L27.7048 39.7001C27.0662 39.0615 26.0311 39.0616 25.3926 39.7001C24.7542 40.3385 24.754 41.3736 25.3926 42.0123L27.5513 44.1709L26.5251 45.197C23.9019 45.1711 21.3095 46.3877 19.6902 48.6864C19.6869 48.6909 19.6837 48.6957 19.6803 48.7003C16.5532 48.1181 13.3027 49.3921 11.4252 52.0567C11.3156 52.2122 11.2141 52.3714 11.1165 52.5319C10.2204 52.2728 9.29048 52.1653 8.36468 52.202L-2.19765 41.6397L11.4112 28.0308ZM-4.50983 43.9515L4.71021 53.1716C4.19783 53.4386 3.70564 53.7575 3.2446 54.1341L3.04976 53.9392C1.98569 52.8752 0.253411 52.8758 -0.811576 53.9408C-2.64729 55.7765 -4.27876 57.7492 -5.71124 59.843C-6.01675 59.4841 -6.34308 59.1291 -6.6896 58.7826C-8.08769 57.3845 -9.64163 56.2742 -11.0649 55.6569C-13.2418 54.7124 -14.5484 55.1561 -15.248 55.6673C-15.4958 55.5843 -15.7452 55.5087 -15.995 55.4367L-4.50983 43.9515ZM-4.07267 72.793C-3.98943 73.5425 -4.01811 74.0801 -4.07483 74.4319C-4.08885 74.4182 -4.1035 74.4038 -4.11815 74.3892C-4.77249 73.7349 -5.68442 72.2954 -6.28127 70.2185C-6.50324 69.445 -6.65028 68.6749 -6.70685 67.9916C-6.77268 67.1948 -7.40544 66.5626 -8.20176 66.497C-8.88539 66.4407 -9.65519 66.2936 -10.4276 66.0715C-12.5052 65.4747 -13.9446 64.5628 -14.5988 63.9086C-14.6137 63.8936 -14.6279 63.8791 -14.6418 63.8649C-14.2902 63.8081 -13.7524 63.7792 -13.0026 63.8625C-12.3473 63.9351 -11.7124 63.6069 -11.3927 63.0304C-11.073 62.4536 -11.1308 61.7413 -11.5398 61.2238C-12.5357 59.9634 -12.9619 58.9628 -13.0869 58.4198C-12.4078 58.5776 -10.9053 59.1913 -9.00131 61.0953C-7.4244 62.6722 -6.60343 64.1563 -6.36111 65.0195C-6.20681 65.5684 -5.77813 65.9971 -5.22938 66.1515C-4.36586 66.3942 -2.88159 67.2153 -1.30469 68.7922C0.599468 70.6963 1.21281 72.1988 1.37065 72.8777C0.8276 72.7529 -0.172955 72.3264 -1.43371 71.3302C-1.95133 70.9214 -2.66364 70.8633 -3.24044 71.1833C-3.81756 71.5027 -4.14574 72.1376 -4.07267 72.793ZM-20.4566 84.5517L-20.6311 84.8057C-21.2361 85.6857 -21.6276 86.6571 -21.8151 87.6548L-28.6924 80.7774C-34.2432 75.2267 -34.6491 66.6006 -29.5968 61.5483C-26.1441 58.0956 -21.0228 57.1942 -16.3543 58.7396C-16.2639 59.3628 -16.0487 60.0374 -15.7062 60.7504C-16.273 60.8986 -16.8032 61.1372 -17.2385 61.5037C-17.8172 61.9912 -18.1603 62.6604 -18.2044 63.3889C-18.2628 64.3516 -17.8277 65.3044 -16.9111 66.2209C-15.6897 67.4423 -13.6035 68.5614 -11.3307 69.2144C-10.8076 69.3648 -10.2923 69.4865 -9.78852 69.5789C-9.69604 70.0824 -9.57442 70.5977 -9.42413 71.1213C-8.77101 73.3939 -7.65177 75.4799 -6.43048 76.7015L-6.43032 76.7017C-5.51409 77.6179 -4.56131 78.0531 -3.59898 77.9947C-2.87034 77.9507 -2.20089 77.6077 -1.71348 77.0288C-1.34692 76.5935 -1.10831 76.0632 -0.960173 75.4964C-0.246946 75.8388 0.427749 76.0541 1.0508 76.1448C2.27641 79.8472 1.96196 83.8337 0.0573368 87.0476L-11.2255 81.9771C-14.5283 80.4932 -18.4105 81.5758 -20.4566 84.5517ZM20.9684 128.262C19.7158 128.375 18.4852 127.927 17.5924 127.035L16.3785 125.822L19.7138 120.971C20.2252 120.227 20.0375 119.209 19.2926 118.697C18.5487 118.186 17.5308 118.374 17.0192 119.118L14.0264 123.472L10.047 119.495L12.3025 116.215C12.8139 115.471 12.6256 114.453 11.8813 113.941C11.1374 113.43 10.1195 113.618 9.60786 114.362L7.69461 117.145L-1.56149 107.896L1.50137 103.44C2.01267 102.696 1.82461 101.678 1.08009 101.167C0.336032 100.655 -0.681942 100.844 -1.19355 101.588L-3.9139 105.545L-17.429 92.0405C-17.4293 92.0402 -17.4297 92.0399 -17.43 92.0396C-18.8746 90.5949 -19.0876 88.3318 -17.9365 86.6571L-17.762 86.4031C-16.6119 84.7305 -14.4269 84.1233 -12.5662 84.9592L-6.29637 87.7769L-7.7848 89.9423C-8.23829 90.602 -8.14149 91.477 -7.5952 92.0232C-7.52521 92.0932 -7.44783 92.1577 -7.36352 92.2158C-6.61945 92.7271 -5.60163 92.5385 -5.09018 91.7943L-3.26511 89.139L6.04172 93.3215C6.86531 93.6916 7.83319 93.3239 8.20329 92.5003C8.57355 91.6766 8.20498 90.7081 7.38231 90.3389L3.05145 88.3927C5.28825 84.3949 5.6303 79.529 4.12261 75.0377C4.63391 74.338 5.07753 73.0315 4.13324 70.8547C3.51589 69.4314 2.40559 67.8775 1.00749 66.4794C0.0453158 65.5172 -0.979751 64.7046 -1.98431 64.0869L-1.28603 63.3886C-0.647565 62.7502 -0.647414 61.7151 -1.28604 61.0765C-1.55594 60.8065 -1.89661 60.6521 -2.24852 60.6103C-1.225 59.2221 -0.102206 57.8952 1.12294 56.6362L38.7787 94.292C39.4174 94.9306 40.4524 94.9304 41.0909 94.292C41.7294 93.6535 41.7295 92.6184 41.0909 91.9798L40.6178 91.5067C42.8702 90.7267 44.986 89.4427 46.7826 87.6461C47.8026 86.6262 47.8624 85.0055 46.9632 83.9155C47.8046 83.9402 48.6203 84.2053 49.3277 84.7027C49.5348 84.8486 49.7295 85.0121 49.9065 85.1891C51.3991 86.6817 51.5996 89.0177 50.3836 90.7434C50.2427 90.9431 50.0821 91.134 49.9057 91.3106C49.3078 91.9101 49.2665 92.867 49.8104 93.5158C51.0707 95.0187 51.162 97.1882 50.0326 98.7915C49.7321 99.2177 49.3657 99.5683 48.9596 99.8484L47.7192 98.608C47.0805 97.9694 46.0455 97.9695 45.407 98.608C44.7685 99.2465 44.7684 100.282 45.407 100.92L54.3924 109.906C52.243 111.998 49.8983 113.796 47.379 115.297L37.415 112.73C38.3655 111.013 38.6061 108.991 38.0658 107.077C37.4597 104.93 35.9445 103.174 33.909 102.259L16.1032 94.2579C15.2795 93.8876 14.3118 94.2554 13.9417 95.079C13.5714 95.9028 13.9401 96.8708 14.7626 97.2404L17.1083 98.2946L14.7864 101.672C14.3329 102.332 14.4295 103.207 14.976 103.753C15.0458 103.823 15.1232 103.888 15.2075 103.946C15.9514 104.457 16.9694 104.269 17.481 103.525L20.1398 99.6571L32.5679 105.242C33.7194 105.76 34.576 106.752 34.9185 107.966C35.2605 109.177 35.0494 110.464 34.3397 111.497L24.0517 126.462C23.3422 127.494 22.2185 128.15 20.9684 128.262ZM34.1425 123.338C33.5041 122.898 32.6444 122.967 32.0839 123.503C31.5236 124.039 31.4172 124.895 31.8291 125.552L38.4623 136.134L36.8046 137.361L28.6193 125.59L35.4811 115.609L49.303 119.169L48.745 121.175L36.5137 118.745C35.7532 118.594 34.9911 118.998 34.6893 119.712C34.3873 120.426 34.6287 121.255 35.267 121.695L48.8979 131.095L47.7702 132.736L34.1425 123.338Z" fill="#333333" fill-opacity="0.06"/>
</g>
</svg>
