<svg width="100" height="100" viewBox="0 0 100 100" fill="none" xmlns="http://www.w3.org/2000/svg">
<mask id="mask0_45_140" style="mask-type:alpha" maskUnits="userSpaceOnUse" x="0" y="0" width="100" height="100">
<path d="M0 100L0 0L88 0C94.6274 0 100 5.37258 100 12L100 100L0 100Z" fill="#C4C4C4"/>
</mask>
<g mask="url(#mask0_45_140)">
<path d="M68.706 42.9363C68.6431 44.3288 69.1635 45.7016 70.1336 46.7023C72.0904 48.7099 75.3105 48.7694 77.3247 46.8224C77.9739 46.1947 77.9913 45.1597 77.3638 44.5106C77.3572 44.5036 77.3507 44.4971 77.3439 44.4904C76.7146 43.861 75.6943 43.8504 75.0518 44.4716C74.3326 45.1671 73.1836 45.1532 72.4817 44.4267C72.1308 44.0646 71.9499 43.5878 71.9726 43.0839C72.0134 42.1817 71.315 41.4173 70.4131 41.3768C69.5112 41.3359 68.7466 42.0342 68.706 42.9363Z" fill="#333333" fill-opacity="0.06"/>
<path d="M66.3226 33.0178C65.844 34.2052 65.8764 35.5524 66.4119 36.7147C67.4892 39.0513 70.2672 40.0792 72.6046 39.0066C73.4255 38.6301 73.7854 37.6594 73.409 36.8387C73.3256 36.657 73.213 36.4979 73.0796 36.3644C72.6099 35.8948 71.8802 35.7415 71.2411 36.0347C70.5391 36.3569 69.7047 36.0466 69.3818 35.346C69.2195 34.9938 69.2101 34.6012 69.3554 34.2409C69.693 33.4036 69.2879 32.4504 68.4506 32.1131C67.613 31.7752 66.6605 32.1805 66.3226 33.0178Z" fill="#333333" fill-opacity="0.06"/>
<path d="M48.6328 35.8057C48.6336 36.7088 49.3665 37.4399 50.2694 37.4388L52.4511 37.4367C53.3541 37.4357 54.0854 36.7029 54.0843 35.8001C54.084 35.3494 53.901 34.9414 53.6055 34.6459C53.3093 34.3496 52.8999 34.1665 52.4477 34.1669L50.266 34.1691C49.363 34.17 48.6317 34.9028 48.6328 35.8057Z" fill="#333333" fill-opacity="0.06"/>
<path d="M70.7503 28.0733L72.2912 29.6141C72.9298 30.2527 73.9649 30.2526 74.6034 29.6141C75.2418 28.9756 75.242 27.9406 74.6034 27.3019L73.0625 25.7611C72.4239 25.1225 71.3888 25.1226 70.7503 25.7611C70.1119 26.3996 70.1117 27.4347 70.7503 28.0733Z" fill="#333333" fill-opacity="0.06"/>
<path d="M58.9357 16.259L60.4767 17.8C61.1153 18.4386 62.1504 18.4385 62.7889 17.8C63.4274 17.1615 63.4274 16.1263 62.7889 15.4878L61.2479 13.9468C60.6094 13.3084 59.5742 13.3084 58.9357 13.9468C58.2973 14.5853 58.2973 15.6205 58.9357 16.259Z" fill="#333333" fill-opacity="0.06"/>
<path d="M49.6349 -34.733L48.311 -32.807C47.4646 -31.5767 47.6176 -29.9164 48.6749 -28.8591C48.8076 -28.7264 48.9536 -28.6048 49.1094 -28.4974L56.3641 -23.4944L51.7332 -24.4145C50.5196 -24.6558 49.2823 -24.1537 48.5781 -23.1324C48.3859 -22.852 48.2418 -22.5426 48.1491 -22.2107L47.5017 -19.8834C47.2785 -19.0847 47.3897 -18.2142 47.8057 -17.4973C48.0092 -17.1458 48.2828 -16.8392 48.6026 -16.5931C46.5878 -15.1963 44.6863 -13.6136 42.9128 -11.8401C42.1259 -11.0532 41.922 -9.90285 42.2972 -8.92618C39.3132 -7.70875 36.848 -5.36404 35.5186 -2.28854C35.4103 -2.03867 35.3555 -1.7737 35.3554 -1.50133C35.3554 -1.23126 35.409 -0.968904 35.5163 -0.717649C36.1459 0.74519 37.0342 2.05588 38.1565 3.17822C38.3 3.32172 38.4466 3.46092 38.5958 3.59656C35.5293 6.98344 35.6239 12.2299 38.8841 15.4901C39.3134 15.9194 39.7777 16.2924 40.2671 16.6116C38.306 18.011 36.7137 19.9341 35.7178 22.2387C35.6066 22.4904 35.5495 22.7588 35.5472 23.0481C35.5472 23.3244 35.6026 23.5929 35.711 23.844C36.3891 25.4198 37.346 26.8318 38.5551 28.0409C40.3765 29.8623 42.6309 31.0925 45.087 31.6447C44.0447 33.786 43.4565 36.1867 43.4536 38.7219C43.4529 39.4643 43.7415 40.1623 44.2664 40.6871C44.7912 41.212 45.4892 41.5005 46.2323 41.5001L57.4401 41.4873C57.552 43.4471 58.3628 45.3625 59.8423 46.842C60.178 47.1777 60.5464 47.4872 60.9372 47.7621C62.353 48.758 64.0529 49.2775 65.7681 49.2638C66.3326 50.881 67.4026 52.3103 68.8126 53.3022C69.1227 53.5205 69.4438 53.7121 69.7715 53.8819L65.4484 58.2051C62.4712 61.1823 62.4376 66.0014 65.3463 69.0125L62.8945 71.4643C61.8317 70.715 60.3502 70.8129 59.4 71.7631L53.8448 77.3183C52.7824 78.3807 52.7823 80.1094 53.8448 81.1719L63.2463 90.5734C64.3088 91.6359 66.0375 91.6358 67.0999 90.5734L72.6551 85.0182C73.6053 84.068 73.7032 82.5865 72.9539 81.5237L75.4054 79.0722C78.4163 81.9811 83.2353 81.9473 86.2126 78.97L119.954 45.2282C124.347 45.4519 128.693 43.9803 131.909 40.7639C138.236 34.4368 137.83 23.7362 131.005 16.9104L84.7187 -29.3484C83.1387 -30.9272 80.9592 -31.7184 78.7395 -31.5192C76.5781 -31.3259 74.6307 -30.2149 73.3634 -28.4658L65.7823 -39.3688C65.6773 -39.5197 65.558 -39.6624 65.428 -39.7924C64.9671 -40.2533 64.384 -40.5534 63.7428 -40.66C62.9185 -40.7974 62.0615 -40.5911 61.3916 -40.0948L59.4615 -38.6654C59.1848 -38.4608 58.9465 -38.2145 58.7529 -37.9331C58.0531 -36.9151 58.0257 -35.5796 58.6834 -34.5309L61.1937 -30.5261L53.9461 -35.5241C53.2626 -35.9955 52.4374 -36.1723 51.6225 -36.022C50.8094 -35.8723 50.1037 -35.4145 49.6349 -34.733ZM40.4684 0.866347C39.7724 0.17038 39.1984 -0.624087 38.7577 -1.49917C39.96 -3.87732 42.1111 -5.58817 44.6268 -6.26271L47.7411 -3.14836L45.7512 -3.14605C44.8483 -3.14513 44.1172 -2.41216 44.1182 -1.50903C44.1193 -0.605891 44.8521 0.125371 45.7549 0.123982L46.8078 0.122752C46.2427 1.1808 45.9464 2.33782 45.916 3.49961C43.8574 3.26331 41.9528 2.35076 40.4684 0.866347ZM41.196 13.1782C39.1081 11.0903 39.1131 7.68819 41.2072 5.59413C41.2461 5.55529 41.2863 5.51876 41.3259 5.4813C42.9409 6.30366 44.7262 6.76486 46.5833 6.82375C46.678 7.034 46.7789 7.24225 46.8938 7.44495C45.405 9.61007 45.1718 12.3056 46.1143 14.6159C44.3935 14.9867 42.5278 14.51 41.196 13.1782ZM40.8672 25.7292C40.082 24.944 39.4373 24.0453 38.945 23.0504C40.1243 20.6758 42.1552 18.8891 44.57 17.9973C45.7662 18.0531 46.9724 17.8627 48.1044 17.4249C48.3229 17.6193 48.5521 17.8029 48.7915 17.9714C49.8551 18.7196 51.0928 19.1712 52.3698 19.3081C52.17 19.9901 52.0584 20.692 52.0304 21.3965L46.7221 21.4025C45.8191 21.4034 45.088 22.1364 45.0892 23.0394C45.0901 23.9423 45.8229 24.6736 46.7261 24.6725L52.5279 24.6659C52.8187 25.4779 53.2333 26.2551 53.7748 26.9662C52.1247 28.0753 50.1553 28.7057 48.0818 28.7082C45.3536 28.7114 42.7914 27.6534 40.8672 25.7292ZM67.6016 16.7122L68.6037 17.7143C68.3431 18.3125 68.4559 19.0342 68.9453 19.5236C69.4347 20.013 70.1566 20.1257 70.7547 19.8652L71.9336 21.0441C71.214 21.2161 70.6787 21.8621 70.6794 22.6343C70.6804 23.5372 71.4132 24.2685 72.3162 24.2676L74.4978 24.2653C74.6937 24.2651 74.8807 24.2286 75.0547 24.1652L77.4077 26.5183C76.9367 28.7518 75.8783 30.8858 74.2248 32.6666L55.8837 14.3255C57.6645 12.672 59.7985 11.6136 62.0321 11.1426L64.4807 13.5912C64.4171 13.7651 64.3808 13.9525 64.3805 14.1483L64.378 16.3297C64.3774 17.2327 65.1079 17.9657 66.011 17.9664C66.7834 17.9675 67.4296 17.432 67.6016 16.7122ZM63.3125 26.3788C61.2618 27.558 58.5969 27.2765 56.8511 25.5306C55.1051 23.7846 54.8238 21.1196 56.0028 19.069L63.3125 26.3788ZM46.733 38.23C46.8218 35.9419 47.5057 33.8038 48.6324 31.964C49.864 31.9129 51.0631 31.6944 52.2041 31.327C52.2721 31.6101 52.4148 31.879 52.6357 32.0998L54.1762 33.6404C54.8147 34.2788 55.8499 34.2788 56.4884 33.6404C57.1269 33.0019 57.1269 31.9667 56.4884 31.3282L55.137 29.9768C55.5322 29.7336 55.9143 29.4695 56.2828 29.1868C56.8623 29.5253 57.4724 29.792 58.1014 29.9837C57.5421 32.0841 57.8271 34.3511 58.9414 36.2605C58.9387 36.2642 58.9361 36.2681 58.9334 36.2719C58.5009 36.8857 58.1627 37.5402 57.917 38.2172L46.733 38.23ZM78.0636 48.6968C77.9418 48.9542 77.7986 49.2001 77.6372 49.429C76.0573 51.6721 72.9423 52.2098 70.6939 50.6282C70.4569 50.4615 70.2338 50.2742 70.0313 50.0716C69.2696 49.31 68.7847 48.3392 68.629 47.2645C68.5647 46.8198 68.3198 46.421 67.9523 46.162C67.5847 45.9032 67.1269 45.807 66.6862 45.8963C65.3248 46.1722 63.9512 45.885 62.8182 45.0881C62.5805 44.921 62.3572 44.7331 62.1541 44.5301C60.4413 42.8172 60.211 40.136 61.6071 38.1548C61.7669 37.9278 61.9513 37.7089 62.1552 37.5043C62.7525 36.9049 62.7937 35.9484 62.2499 35.2997C61.071 33.8936 60.7841 31.9799 61.4199 30.3239C62.9224 30.1872 64.3965 29.6599 65.6748 28.741L72.2679 35.3341C73.0877 36.1539 74.2971 36.3512 75.3066 35.9283C75.7692 38.3668 76.9464 40.6085 78.7378 42.4C79.8602 43.5223 81.171 44.4105 82.6348 45.0406C82.8833 45.1473 83.1467 45.2014 83.4174 45.2014C83.6918 45.2014 83.9578 45.1459 84.2032 45.0386C85.1403 44.6337 86.0075 44.1213 86.7975 43.5231C86.7401 44.4091 86.4456 45.2876 85.9014 46.0598C84.6048 47.9003 82.2218 48.641 80.1071 47.8618C79.3123 47.5689 78.4255 47.9313 78.0636 48.6968ZM85.0624 34.8052L85.0632 34.1737L87.8398 36.9503C87.017 39.0199 85.4655 40.7606 83.4155 41.7985C82.5392 41.3572 81.7452 40.7833 81.0499 40.088C79.3079 38.346 78.35 36.0264 78.3528 33.557C78.3533 33.2285 78.3728 32.9034 78.4074 32.5819C79.0984 31.499 79.6447 30.3506 80.0544 29.1652L81.7967 30.9075L81.7922 34.8017C81.7916 35.7047 82.5224 36.438 83.4252 36.4384C84.3285 36.4393 85.0615 35.7082 85.0624 34.8052ZM90.302 39.4125L94.4233 43.5339C93.1197 44.47 91.4915 44.751 89.9935 44.3789C90.1816 43.0838 90.0587 41.7617 89.6325 40.5231C89.8736 40.1643 90.0986 39.7946 90.302 39.4125ZM65.1731 87.8759L56.5423 79.2451L61.3268 74.4606L69.9576 83.0914L65.1731 87.8759ZM65.2369 73.7463L67.6559 71.3273L73.0907 76.7622L70.6717 79.1812L65.2369 73.7463ZM88.5888 71.9692L81.0815 64.4618C80.4428 63.8232 79.4078 63.8234 78.7693 64.4618C78.1308 65.1003 78.1307 66.1354 78.7693 66.774L86.2766 74.2814L83.9003 76.6577C82.1662 78.3918 79.349 78.3961 77.6203 76.6674L67.7507 66.7978C66.0218 65.0689 66.0261 62.2517 67.7602 60.5176L70.1365 58.1413L72.2952 60.2999C72.9338 60.9385 73.9689 60.9384 74.6074 60.2999C75.2458 59.6615 75.246 58.6264 74.6074 57.9877L72.4487 55.8291L73.4749 54.803C76.0981 54.8289 78.6905 53.6123 80.3098 51.3136C80.3131 51.3091 80.3163 51.3043 80.3197 51.2997C83.4468 51.8819 86.6973 50.6079 88.5748 47.9433C88.6844 47.7878 88.7859 47.6286 88.8835 47.4681C89.7796 47.7272 90.7095 47.8347 91.6353 47.798L102.198 58.3603L88.5888 71.9692ZM104.51 56.0485L95.2898 46.8284C95.8022 46.5614 96.2944 46.2425 96.7554 45.8659L96.9502 46.0608C98.0143 47.1248 99.7466 47.1242 100.812 46.0592C102.647 44.2235 104.279 42.2508 105.711 40.157C106.017 40.5159 106.343 40.8709 106.69 41.2174C108.088 42.6155 109.642 43.7258 111.065 44.3431C113.242 45.2876 114.548 44.8439 115.248 44.3327C115.496 44.4157 115.745 44.4913 115.995 44.5633L104.51 56.0485ZM104.073 27.207C103.989 26.4575 104.018 25.9199 104.075 25.5681C104.089 25.5818 104.104 25.5962 104.118 25.6108C104.772 26.2651 105.684 27.7046 106.281 29.7815C106.503 30.555 106.65 31.3251 106.707 32.0084C106.773 32.8052 107.405 33.4374 108.202 33.503C108.885 33.5593 109.655 33.7064 110.428 33.9285C112.505 34.5253 113.945 35.4372 114.599 36.0914C114.614 36.1064 114.628 36.1209 114.642 36.1351C114.29 36.1919 113.752 36.2208 113.003 36.1375C112.347 36.0649 111.712 36.3931 111.393 36.9696C111.073 37.5464 111.131 38.2587 111.54 38.7762C112.536 40.0366 112.962 41.0372 113.087 41.5802C112.408 41.4224 110.905 40.8087 109.001 38.9047C107.424 37.3278 106.603 35.8437 106.361 34.9805C106.207 34.4316 105.778 34.0029 105.229 33.8485C104.366 33.6058 102.882 32.7847 101.305 31.2078C99.4005 29.3037 98.7872 27.8012 98.6293 27.1223C99.1724 27.2471 100.173 27.6736 101.434 28.6698C101.951 29.0786 102.664 29.1367 103.24 28.8167C103.818 28.4973 104.146 27.8624 104.073 27.207ZM120.457 15.4483L120.631 15.1943C121.236 14.3143 121.628 13.3429 121.815 12.3452L128.692 19.2226C134.243 24.7733 134.649 33.3994 129.597 38.4517C126.144 41.9044 121.023 42.8058 116.354 41.2604C116.264 40.6372 116.049 39.9626 115.706 39.2496C116.273 39.1014 116.803 38.8628 117.239 38.4963C117.817 38.0088 118.16 37.3396 118.204 36.6111C118.263 35.6484 117.828 34.6956 116.911 33.7791C115.69 32.5577 113.603 31.4386 111.331 30.7856C110.808 30.6352 110.292 30.5135 109.789 30.4211C109.696 29.9176 109.574 29.4023 109.424 28.8787C108.771 26.6061 107.652 24.5201 106.43 23.2985L106.43 23.2983C105.514 22.3821 104.561 21.9469 103.599 22.0053C102.87 22.0493 102.201 22.3923 101.713 22.9712C101.347 23.4065 101.108 23.9368 100.96 24.5036C100.247 24.1612 99.5723 23.9459 98.9492 23.8552C97.7236 20.1528 98.038 16.1663 99.9427 12.9524L111.225 18.0229C114.528 19.5068 118.41 18.4242 120.457 15.4483ZM79.0316 -28.2623C80.2842 -28.3748 81.5148 -27.9273 82.4076 -27.0352L83.6215 -25.8222L80.2862 -20.9708C79.7748 -20.2266 79.9625 -19.2086 80.7074 -18.6971C81.4513 -18.1857 82.4692 -18.374 82.9808 -19.1181L85.9736 -23.4716L89.953 -19.4953L87.6975 -16.2148C87.1861 -15.4706 87.3744 -14.4529 88.1187 -13.9411C88.8626 -13.4297 89.8805 -13.6181 90.3921 -14.3621L92.3054 -17.1447L101.561 -7.89572L98.4986 -3.44001C97.9873 -2.69564 98.1754 -1.67828 98.9199 -1.16652C99.664 -0.654916 100.682 -0.843585 101.194 -1.58765L103.914 -5.54516L117.429 7.95949C117.429 7.9598 117.43 7.96011 117.43 7.96042C118.875 9.40506 119.088 11.6682 117.936 13.3429L117.762 13.5969C116.612 15.2695 114.427 15.8767 112.566 15.0408L106.296 12.2231L107.785 10.0577C108.238 9.39797 108.141 8.52304 107.595 7.97675C107.525 7.90677 107.448 7.84234 107.364 7.78423C106.619 7.27293 105.602 7.46145 105.09 8.20566L103.265 10.861L93.9583 6.67855C93.1347 6.30844 92.1668 6.67608 91.7967 7.49967C91.4265 8.32342 91.795 9.29192 92.6177 9.66109L96.9485 11.6073C94.7117 15.6051 94.3697 20.471 95.8774 24.9623C95.3661 25.662 94.9225 26.9685 95.8668 29.1453C96.4841 30.5686 97.5944 32.1225 98.9925 33.5206C99.9547 34.4828 100.98 35.2954 101.984 35.9131L101.286 36.6114C100.648 37.2498 100.647 38.2849 101.286 38.9235C101.556 39.1935 101.897 39.3479 102.249 39.3897C101.225 40.7779 100.102 42.1048 98.8771 43.3638L61.2213 5.70804C60.5826 5.06942 59.5476 5.06958 58.9091 5.70804C58.2706 6.34652 58.2705 7.3816 58.9091 8.02022L59.3822 8.49329C57.1298 9.27326 55.014 10.5573 53.2174 12.3539C52.1974 13.3738 52.1376 14.9945 53.0368 16.0845C52.1954 16.0598 51.3797 15.7947 50.6723 15.2973C50.4652 15.1514 50.2705 14.9879 50.0935 14.8109C48.6009 13.3183 48.4004 10.9823 49.6164 9.25662C49.7573 9.05685 49.9179 8.86602 50.0943 8.68937C50.6922 8.0899 50.7335 7.13296 50.1896 6.48416C48.9293 4.98125 48.838 2.81181 49.9674 1.20855C50.2679 0.782336 50.6343 0.431656 51.0404 0.151571L52.2808 1.39198C52.9195 2.0306 53.9545 2.03045 54.593 1.39198C55.2315 0.753512 55.2316 -0.281574 54.593 -0.920194L45.6076 -9.90562C47.757 -11.9977 50.1017 -13.7961 52.621 -15.2965L62.585 -12.7297C61.6345 -11.0128 61.3939 -8.99092 61.9342 -7.0769C62.5403 -4.93028 64.0555 -3.17426 66.091 -2.2594L83.8968 5.74211C84.7205 6.11237 85.6882 5.74457 86.0583 4.92098C86.4286 4.09723 86.0599 3.12919 85.2374 2.75956L82.8917 1.70536L85.2136 -1.67212C85.6671 -2.33186 85.5705 -3.20694 85.024 -3.75338C84.9542 -3.82321 84.8768 -3.88764 84.7925 -3.94575C84.0486 -4.45721 83.0306 -4.26884 82.519 -3.52479L79.8602 0.342868L67.4321 -5.24211C66.2806 -5.75973 65.424 -6.75228 65.0815 -7.96571C64.7395 -9.17682 64.9506 -10.4639 65.6603 -11.4967L75.9483 -26.4623C76.6578 -27.4943 77.7815 -28.1504 79.0316 -28.2623ZM65.8575 -23.338C66.4959 -22.8977 67.3556 -22.9666 67.9161 -23.5028C68.4764 -24.039 68.5828 -24.8951 68.1709 -25.5521L61.5377 -36.1339L63.1954 -37.3615L71.3807 -25.5899L64.5189 -15.6085L50.697 -19.1693L51.255 -21.1753L63.4863 -18.7449C64.2468 -18.5939 65.0089 -18.9977 65.3107 -19.712C65.6127 -20.4262 65.3713 -21.2546 64.733 -21.6946L51.1021 -31.0949L52.2298 -32.7356L65.8575 -23.338Z" fill="#333333" fill-opacity="0.06"/>
</g>
</svg>
