<svg width="100" height="100" viewBox="0 0 100 100" fill="none" xmlns="http://www.w3.org/2000/svg">
<mask id="mask0_45_98" style="mask-type:alpha" maskUnits="userSpaceOnUse" x="0" y="0" width="100" height="100">
<path d="M0 0H100V88C100 94.6274 94.6274 100 88 100H0V0Z" fill="#C4C4C4"/>
</mask>
<g mask="url(#mask0_45_98)">
<path d="M57.0637 68.7056C55.6712 68.6427 54.2983 69.1631 53.2976 70.1333C51.29 72.09 51.2305 75.3101 53.1775 77.3243C53.8052 77.9736 54.8403 77.991 55.4894 77.3635C55.4963 77.3569 55.5028 77.3504 55.5096 77.3436C56.139 76.7142 56.1496 75.6939 55.5284 75.0515C54.8329 74.3322 54.8468 73.1832 55.5733 72.4814C55.9354 72.1304 56.4121 71.9496 56.916 71.9723C57.8182 72.0131 58.5826 71.3147 58.6232 70.4128C58.664 69.5109 57.9658 68.7463 57.0637 68.7056Z" fill="#333333" fill-opacity="0.06"/>
<path d="M66.9826 66.3226C65.7953 65.844 64.448 65.8764 63.2858 66.4119C60.9491 67.4892 59.9213 70.2672 60.9938 72.6047C61.3704 73.4255 62.341 73.7854 63.1617 73.409C63.3434 73.3256 63.5025 73.2131 63.636 73.0796C64.1057 72.6099 64.2589 71.8802 63.9657 71.2411C63.6435 70.5391 63.9538 69.7047 64.6544 69.3818C65.0067 69.2195 65.3993 69.2101 65.7595 69.3555C66.5968 69.693 67.55 69.2879 67.8873 68.4506C68.2252 67.613 67.82 66.6605 66.9826 66.3226Z" fill="#333333" fill-opacity="0.06"/>
<path d="M64.1942 48.6324C63.2911 48.6332 62.56 49.3661 62.561 50.269L62.5632 52.4507C62.5641 53.3537 63.2969 54.085 64.1998 54.0839C64.6505 54.0836 65.0585 53.9006 65.354 53.6051C65.6503 53.3088 65.8334 52.8994 65.8329 52.4473L65.8308 50.2656C65.8299 49.3626 65.097 48.6313 64.1942 48.6324Z" fill="#333333" fill-opacity="0.06"/>
<path d="M71.9264 70.7499L70.3856 72.2908C69.747 72.9294 69.7471 73.9645 70.3856 74.6029C71.0241 75.2414 72.0591 75.2416 72.6978 74.6029L74.2386 73.0621C74.8772 72.4235 74.8771 71.3884 74.2386 70.7499C73.6001 70.1115 72.565 70.1113 71.9264 70.7499Z" fill="#333333" fill-opacity="0.06"/>
<path d="M83.741 58.9356L82.2 60.4766C81.5614 61.1152 81.5616 62.1503 82.2 62.7888C82.8385 63.4272 83.8737 63.4272 84.5122 62.7888L86.0532 61.2478C86.6917 60.6093 86.6917 59.5741 86.0532 58.9356C85.4147 58.2971 84.3795 58.2971 83.741 58.9356Z" fill="#333333" fill-opacity="0.06"/>
<path d="M134.733 49.6347L132.807 48.3107C131.577 47.4643 129.916 47.6174 128.859 48.6746C128.726 48.8074 128.605 48.9533 128.497 49.1092L123.494 56.3639L124.415 51.7329C124.656 50.5193 124.154 49.282 123.132 48.5778C122.852 48.3856 122.543 48.2415 122.211 48.1489L119.883 47.5014C119.085 47.2783 118.214 47.3894 117.497 47.8054C117.146 48.0089 116.839 48.2825 116.593 48.6023C115.196 46.5875 113.614 44.686 111.84 42.9125C111.053 42.1256 109.903 41.9217 108.926 42.2969C107.709 39.313 105.364 36.8477 102.289 35.5184C102.039 35.41 101.774 35.3553 101.501 35.3551C101.231 35.3551 100.969 35.4088 100.718 35.516C99.2548 36.1456 97.9441 37.0339 96.8218 38.1562C96.6783 38.2998 96.5391 38.4463 96.4034 38.5956C93.0166 35.529 87.7701 35.6236 84.5099 38.8838C84.0806 39.3131 83.7076 39.7774 83.3884 40.2668C81.989 38.3058 80.0659 36.7134 77.7613 35.7175C77.5096 35.6064 77.2412 35.5492 76.9519 35.5469C76.6756 35.5469 76.4071 35.6024 76.156 35.7107C74.5802 36.3888 73.1682 37.3457 71.9591 38.5549C70.1377 40.3762 68.9075 42.6306 68.3553 45.0868C66.214 44.0444 63.8133 43.4562 61.2781 43.4533C60.5357 43.4527 59.8377 43.7412 59.3129 44.2661C58.788 44.791 58.4995 45.4889 58.4999 46.2321L58.5127 57.4398C56.5529 57.5517 54.6375 58.3625 53.158 59.842C52.8223 60.1777 52.5128 60.5461 52.2379 60.9369C51.242 62.3527 50.7225 64.0526 50.7362 65.7678C49.119 66.3323 47.6897 67.4024 46.6978 68.8123C46.4795 69.1225 46.2879 69.4435 46.1181 69.7713L41.7949 65.4481C38.8177 62.4709 33.9986 62.4373 30.9875 65.3461L28.5357 62.8942C29.285 61.8314 29.1871 60.3499 28.2369 59.3998L22.6817 53.8445C21.6193 52.7822 19.8906 52.782 18.8281 53.8445L9.42659 63.246C8.36407 64.3085 8.36422 66.0372 9.42659 67.0996L14.9818 72.6549C15.932 73.605 17.4135 73.7029 18.4763 72.9536L20.9278 75.4051C18.0189 78.416 18.0527 83.2351 21.03 86.2124L54.7718 119.954C54.5481 124.347 56.0197 128.692 59.2361 131.909C65.5632 138.236 76.2638 137.83 83.0896 131.004L129.348 84.7184C130.927 83.1384 131.718 80.959 131.519 78.7393C131.326 76.5778 130.215 74.6304 128.466 73.3631L139.369 65.782C139.52 65.677 139.662 65.5577 139.792 65.4277C140.253 64.9669 140.553 64.3837 140.66 63.7425C140.797 62.9183 140.591 62.0612 140.095 61.3913L138.665 59.4613C138.461 59.1846 138.215 58.9463 137.933 58.7527C136.915 58.0528 135.58 58.0254 134.531 58.6831L130.526 61.1934L135.524 53.9458C135.995 53.2623 136.172 52.4372 136.022 51.6222C135.872 50.8091 135.414 50.1034 134.733 49.6347ZM99.1337 40.4681C99.8296 39.7722 100.624 39.1981 101.499 38.7574C103.877 39.9597 105.588 42.1108 106.263 44.6265L103.148 47.7408L103.146 45.751C103.145 44.848 102.412 44.1169 101.509 44.118C100.606 44.119 99.8746 44.8518 99.876 45.7547L99.8772 46.8075C98.8192 46.2424 97.6622 45.9461 96.5004 45.9158C96.7367 43.8572 97.6492 41.9525 99.1337 40.4681ZM86.8218 41.1957C88.9097 39.1078 92.3118 39.1129 94.4059 41.2069C94.4447 41.2458 94.4812 41.286 94.5187 41.3256C93.6963 42.9406 93.2351 44.7259 93.1763 46.5831C92.966 46.6777 92.7578 46.7787 92.5551 46.8935C90.3899 45.4048 87.6944 45.1715 85.3841 46.114C85.0133 44.3933 85.49 42.5275 86.8218 41.1957ZM74.2708 40.8669C75.056 40.0817 75.9547 39.437 76.9496 38.9447C79.3242 40.1241 81.1109 42.1549 82.0027 44.5698C81.9469 45.7659 82.1373 46.9721 82.5751 48.1042C82.3807 48.3226 82.1971 48.5518 82.0286 48.7912C81.2804 49.8548 80.8288 51.0926 80.6919 52.3695C80.0099 52.1697 79.308 52.0581 78.6035 52.0301L78.5975 46.7218C78.5966 45.8188 77.8636 45.0877 76.9606 45.0889C76.0577 45.0898 75.3264 45.8227 75.3275 46.7258L75.3341 52.5277C74.5221 52.8184 73.7449 53.233 73.0338 53.7745C71.9247 52.1244 71.2943 50.1551 71.2918 48.0815C71.2886 45.3533 72.3466 42.7911 74.2708 40.8669ZM83.2878 67.6014L82.2857 68.6034C81.6875 68.3428 80.9658 68.4556 80.4764 68.945C79.987 69.4345 79.8743 70.1563 80.1348 70.7544L78.9559 71.9333C78.7839 71.2137 78.1379 70.6784 77.3657 70.6792C76.4628 70.6801 75.7315 71.4129 75.7324 72.3159L75.7347 74.4975C75.7349 74.6934 75.7714 74.8804 75.8348 75.0544L73.4817 77.4074C71.2482 76.9364 69.1142 75.878 67.3334 74.2245L85.6745 55.8834C87.328 57.6642 88.3864 59.7982 88.8574 62.0318L86.4088 64.4804C86.2349 64.4169 86.0475 64.3805 85.8517 64.3802L83.6703 64.3777C82.7673 64.3771 82.0343 65.1076 82.0336 66.0107C82.0325 66.7832 82.568 67.4293 83.2878 67.6014ZM73.6212 63.3123C72.442 61.2615 72.7235 58.5967 74.4694 56.8508C76.2154 55.1048 78.8804 54.8235 80.931 56.0025L73.6212 63.3123ZM61.77 46.7327C64.0581 46.8215 66.1962 47.5055 68.036 48.6321C68.0871 49.8637 68.3056 51.0628 68.673 52.2038C68.3899 52.2718 68.121 52.4145 67.9002 52.6354L66.3596 54.1759C65.7212 54.8144 65.7212 55.8496 66.3596 56.4881C66.9981 57.1266 68.0333 57.1266 68.6718 56.4881L70.0232 55.1367C70.2664 55.5319 70.5305 55.9141 70.8132 56.2825C70.4747 56.8621 70.208 57.4722 70.0163 58.1011C67.9159 57.5418 65.6489 57.8269 63.7395 58.9412C63.7358 58.9384 63.7319 58.9358 63.7281 58.9332C63.1143 58.5006 62.4598 58.1624 61.7828 57.9167L61.77 46.7327ZM51.3032 78.0633C51.0458 77.9416 50.7999 77.7984 50.571 77.637C48.3279 76.057 47.7902 72.942 49.3718 70.6937C49.5385 70.4566 49.7258 70.2335 49.9284 70.031C50.69 69.2694 51.6608 68.7844 52.7355 68.6287C53.1802 68.5645 53.579 68.3195 53.838 67.952C54.0968 67.5844 54.193 67.1266 54.1037 66.6859C53.8278 65.3245 54.115 63.9509 54.9119 62.8179C55.079 62.5802 55.2669 62.3569 55.4699 62.1539C57.1828 60.441 59.864 60.2107 61.8452 61.6068C62.0722 61.7667 62.2911 61.951 62.4957 62.1549C63.0951 62.7523 64.0516 62.7934 64.7003 62.2496C66.1064 61.0707 68.0201 60.7838 69.6761 61.4197C69.8128 62.9221 70.3401 64.3962 71.259 65.6745L64.6659 72.2676C63.8461 73.0874 63.6488 74.2968 64.0717 75.3063C61.6332 75.7689 59.3915 76.9461 57.6 78.7376C56.4777 79.8599 55.5895 81.1708 54.9594 82.6345C54.8527 82.883 54.7986 83.1464 54.7986 83.4171C54.7986 83.6915 54.8541 83.9575 54.9614 84.2029C55.3663 85.14 55.8787 86.0072 56.4769 86.7972C55.5909 86.7399 54.7124 86.4453 53.9402 85.9012C52.0997 84.6045 51.359 82.2216 52.1382 80.1068C52.4311 79.3121 52.0687 78.4253 51.3032 78.0633ZM65.1948 85.0621L65.8263 85.0629L63.0497 87.8395C60.9801 87.0167 59.2394 85.4652 58.2015 83.4153C58.6428 82.5389 59.2167 81.7449 59.912 81.0496C61.654 79.3076 63.9736 78.3497 66.443 78.3525C66.7715 78.353 67.0966 78.3726 67.4181 78.4071C68.501 79.0981 69.6494 79.6444 70.8348 80.0541L69.0925 81.7964L65.1983 81.792C64.2953 81.7913 63.562 82.5221 63.5616 83.425C63.5607 84.3283 64.2918 85.0612 65.1948 85.0621ZM60.5875 90.3017L56.4661 94.4231C55.53 93.1195 55.249 91.4912 55.6211 89.9932C56.9162 90.1813 58.2383 90.0584 59.4769 89.6322C59.8357 89.8733 60.2054 90.0984 60.5875 90.3017ZM12.1241 65.1728L20.7549 56.5421L25.5394 61.3266L16.9086 69.9573L12.1241 65.1728ZM26.2537 65.2366L28.6727 67.6556L23.2378 73.0905L20.8188 70.6715L26.2537 65.2366ZM28.0308 88.5885L35.5382 81.0812C36.1768 80.4426 36.1766 79.4075 35.5382 78.769C34.8997 78.1305 33.8646 78.1304 33.226 78.769L25.7186 86.2763L23.3423 83.9C21.6082 82.1659 21.6039 79.3488 23.3326 77.62L33.2022 67.7504C34.9311 66.0215 37.7483 66.0258 39.4824 67.76L41.8587 70.1363L39.7001 72.2949C39.0615 72.9335 39.0616 73.9686 39.7001 74.6071C40.3385 75.2456 41.3736 75.2457 42.0123 74.6071L44.1709 72.4485L45.197 73.4746C45.1711 76.0978 46.3877 78.6902 48.6864 80.3095C48.6909 80.3128 48.6957 80.316 48.7003 80.3194C48.1181 83.4466 49.3921 86.697 52.0567 88.5745C52.2122 88.6841 52.3714 88.7857 52.5319 88.8832C52.2728 89.7793 52.1653 90.7092 52.202 91.635L41.6397 102.197L28.0308 88.5885ZM43.9515 104.51L53.1716 95.2895C53.4386 95.8019 53.7575 96.2941 54.1341 96.7551L53.9392 96.95C52.8752 98.014 52.8758 99.7463 53.9408 100.811C55.7765 102.647 57.7492 104.278 59.843 105.711C59.4841 106.016 59.1291 106.343 58.7826 106.689C57.3845 108.087 56.2742 109.641 55.6569 111.065C54.7124 113.242 55.1561 114.548 55.6673 115.248C55.5843 115.495 55.5087 115.745 55.4367 115.995L43.9515 104.51ZM72.793 104.072C73.5425 103.989 74.0801 104.018 74.4319 104.075C74.4182 104.089 74.4038 104.103 74.3892 104.118C73.7349 104.772 72.2954 105.684 70.2185 106.281C69.445 106.503 68.6749 106.65 67.9916 106.707C67.1948 106.772 66.5626 107.405 66.497 108.201C66.4407 108.885 66.2936 109.655 66.0715 110.427C65.4747 112.505 64.5628 113.944 63.9086 114.599C63.8936 114.613 63.8791 114.628 63.8649 114.642C63.8081 114.29 63.7792 113.752 63.8625 113.002C63.9351 112.347 63.6069 111.712 63.0304 111.392C62.4536 111.073 61.7413 111.131 61.2238 111.539C59.9634 112.535 58.9628 112.962 58.4198 113.087C58.5776 112.407 59.1913 110.905 61.0953 109.001C62.6722 107.424 64.1563 106.603 65.0195 106.361C65.5684 106.207 65.9971 105.778 66.1515 105.229C66.3942 104.366 67.2153 102.881 68.7922 101.304C70.6963 99.4003 72.1988 98.7869 72.8777 98.6291C72.7529 99.1721 72.3264 100.173 71.3302 101.433C70.9214 101.951 70.8633 102.663 71.1833 103.24C71.5027 103.817 72.1376 104.145 72.793 104.072ZM84.5517 120.456L84.8057 120.631C85.6857 121.236 86.6571 121.627 87.6548 121.815L80.7774 128.692C75.2267 134.243 66.6006 134.649 61.5483 129.597C58.0956 126.144 57.1942 121.023 58.7396 116.354C59.3628 116.264 60.0374 116.048 60.7504 115.706C60.8986 116.273 61.1372 116.803 61.5037 117.238C61.9912 117.817 62.6604 118.16 63.3889 118.204C64.3516 118.263 65.3044 117.827 66.2209 116.911C67.4423 115.689 68.5614 113.603 69.2144 111.33C69.3648 110.807 69.4865 110.292 69.5789 109.788C70.0824 109.696 70.5977 109.574 71.1213 109.424C73.3939 108.771 75.4799 107.651 76.7015 106.43L76.7017 106.43C77.6179 105.514 78.0531 104.561 77.9947 103.599C77.9507 102.87 77.6077 102.201 77.0288 101.713C76.5935 101.347 76.0632 101.108 75.4964 100.96C75.8388 100.247 76.0541 99.572 76.1448 98.9489C79.8472 97.7233 83.8337 98.0378 87.0476 99.9424L81.9771 111.225C80.4932 114.528 81.5758 118.41 84.5517 120.456ZM128.262 79.0314C128.375 80.284 127.927 81.5145 127.035 82.4073L125.822 83.6212L120.971 80.286C120.227 79.7745 119.209 79.9623 118.697 80.7071C118.186 81.451 118.374 82.469 119.118 82.9806L123.472 85.9733L119.495 89.9527L116.215 87.6973C115.471 87.1858 114.453 87.3742 113.941 88.1184C113.43 88.8623 113.618 89.8803 114.362 90.3919L117.145 92.3051L107.896 101.561L103.44 98.4984C102.696 97.9871 101.678 98.1751 101.167 98.9196C100.655 99.6637 100.844 100.682 101.588 101.193L105.545 103.914L92.0405 117.429C92.0402 117.429 92.0399 117.429 92.0396 117.43C90.5949 118.874 88.3318 119.087 86.6571 117.936L86.4031 117.762C84.7305 116.612 84.1233 114.427 84.9592 112.566L87.7769 106.296L89.9423 107.785C90.602 108.238 91.477 108.141 92.0232 107.595C92.0932 107.525 92.1577 107.448 92.2158 107.363C92.7271 106.619 92.5385 105.601 91.7943 105.09L89.139 103.265L93.3215 93.958C93.6916 93.1344 93.3239 92.1665 92.5003 91.7964C91.6766 91.4262 90.7081 91.7947 90.3389 92.6174L88.3927 96.9483C84.3949 94.7115 79.529 94.3694 75.0377 95.8771C74.338 95.3658 73.0315 94.9222 70.8547 95.8665C69.4314 96.4838 67.8775 97.5941 66.4794 98.9922C65.5172 99.9544 64.7046 100.979 64.0869 101.984L63.3886 101.286C62.7502 100.647 61.7151 100.647 61.0765 101.286C60.8065 101.556 60.6521 101.896 60.6103 102.248C59.2221 101.225 57.8952 100.102 56.6362 98.8768L94.292 61.221C94.9306 60.5824 94.9304 59.5473 94.292 58.9088C93.6535 58.2703 92.6184 58.2702 91.9798 58.9088L91.5067 59.3819C90.7267 57.1295 89.4427 55.0137 87.6461 53.2171C86.6262 52.1972 85.0055 52.1374 83.9155 53.0365C83.9402 52.1952 84.2053 51.3794 84.7027 50.6721C84.8486 50.4649 85.0121 50.2702 85.1891 50.0932C86.6817 48.6007 89.0177 48.4001 90.7434 49.6162C90.9431 49.7571 91.134 49.9177 91.3106 50.094C91.9101 50.6919 92.867 50.7333 93.5158 50.1893C95.0187 48.929 97.1882 48.8377 98.7915 49.9672C99.2177 50.2676 99.5683 50.634 99.8484 51.0402L98.608 52.2806C97.9694 52.9192 97.9695 53.9543 98.608 54.5927C99.2465 55.2312 100.282 55.2314 100.92 54.5927L109.906 45.6073C111.998 47.7567 113.796 50.1014 115.297 52.6208L112.73 62.5847C111.013 61.6342 108.991 61.3936 107.077 61.9339C104.93 62.54 103.174 64.0552 102.259 66.0907L94.2579 83.8965C93.8876 84.7202 94.2554 85.688 95.079 86.0581C95.9028 86.4283 96.8708 86.0596 97.2404 85.2371L98.2946 82.8915L101.672 85.2134C102.332 85.6669 103.207 85.5702 103.753 85.0238C103.823 84.9539 103.888 84.8766 103.946 84.7922C104.457 84.0483 104.269 83.0304 103.525 82.5187L99.6571 79.8599L105.242 67.4318C105.76 66.2803 106.752 65.4238 107.966 65.0812C109.177 64.7392 110.464 64.9504 111.497 65.6601L126.462 75.948C127.494 76.6575 128.15 77.7813 128.262 79.0314ZM123.338 65.8572C122.898 66.4957 122.967 67.3553 123.503 67.9158C124.039 68.4761 124.895 68.5825 125.552 68.1706L136.134 61.5374L137.361 63.1951L125.59 71.3804L115.609 64.5186L119.169 50.6967L121.175 51.2547L118.745 63.486C118.594 64.2465 118.998 65.0086 119.712 65.3105C120.426 65.6124 121.255 65.371 121.695 64.7327L131.095 51.1018L132.736 52.2295L123.338 65.8572Z" fill="#333333" fill-opacity="0.06"/>
</g>
</svg>
