<svg width="200" height="200" viewBox="0 0 200 200" fill="none" xmlns="http://www.w3.org/2000/svg">
<circle cx="100" cy="100" r="100" fill="#F4E858"/>
<path d="M151.353 98.2165H147.049C147.178 95.981 146.853 93.7429 146.094 91.6364L146.167 91.5631C148.312 89.4043 148.312 85.9194 146.167 83.7606C145.603 83.2043 144.926 82.7779 144.181 82.5103C144.181 82.3891 144.212 82.2731 144.212 82.1528C144.213 80.9531 143.909 79.7725 143.331 78.721C142.965 78.0828 142.965 77.2972 143.331 76.659C145.085 73.4731 144.155 69.4781 141.174 67.3951C140.625 66.9897 140.364 66.3 140.508 65.6322C141.222 61.9484 138.925 58.3519 135.282 57.4503C135.333 53.9122 132.868 50.8353 129.404 50.1151C128.19 49.9023 126.941 50.0017 125.776 50.4046C123.84 51.0916 121.725 51.0916 119.788 50.4046V50.415C119.433 50.2834 119.066 50.1831 118.693 50.1151C117.48 49.9023 116.231 50.0017 115.067 50.4046C113.13 51.0916 111.014 51.0916 109.078 50.4046C108.719 50.2825 108.351 50.1901 107.978 50.1273V50.1151C107.856 50.0942 107.733 50.0881 107.61 50.0741C107.487 50.0602 107.317 50.0349 107.167 50.0262C107.017 50.0166 106.892 50.0262 106.754 50.0262C106.576 50.0262 106.408 50.0262 106.235 50.0262C106.112 50.0262 105.989 50.0523 105.867 50.0671C105.746 50.0811 105.589 50.0881 105.449 50.1133C105.413 50.1133 105.379 50.1351 105.344 50.1421C105.007 50.204 104.675 50.2912 104.351 50.4028C102.414 51.0899 100.299 51.0899 98.3624 50.4028C97.1975 49.9983 95.949 49.898 94.7353 50.1133C91.2966 50.8292 88.8352 53.8634 88.8431 57.3753C85.2038 58.3274 82.9264 61.9388 83.6361 65.6322C83.7059 65.9992 83.6614 66.3785 83.5071 66.7177V64.2895C83.5071 56.3979 77.11 50 69.2176 50C61.3261 50 54.9282 56.3979 54.9282 64.2895V82.3795C54.3449 82.2295 53.745 82.151 53.1425 82.1458C50.9785 82.124 48.9174 83.0657 47.518 84.7153C46.2877 86.1705 45.7698 88.0974 46.1038 89.9728L47.6069 98.2523C46.701 98.336 46.0061 99.0928 46 100.002V114.287C46 115.273 46.7995 116.073 47.7856 116.073H53.1425V119.644H47.7856C46.7995 119.644 46 120.444 46 121.43V135.715C46 136.701 46.7995 137.501 47.7856 137.501H58.4995V133.929H49.5713V123.215H149.567V133.929H126.354V137.501H151.353C152.339 137.501 153.138 136.701 153.138 135.715V121.43C153.138 120.444 152.339 119.644 151.353 119.644H145.996V116.073H151.353C152.339 116.073 153.138 115.273 153.138 114.287V100.002C153.138 99.0161 152.339 98.2165 151.353 98.2165ZM140.889 86.2864C141.648 85.5261 142.881 85.5261 143.642 86.2856C144.402 87.0459 144.402 88.2778 143.642 89.0381L142.762 89.917C142.269 90.4096 142.107 91.1437 142.348 91.7977L142.683 92.7079C143.341 94.4657 143.605 96.3463 143.457 98.2165H120.104C120.447 94.6505 122.259 91.3879 125.103 89.2099C128.406 86.6404 132.764 85.8679 136.747 87.1461L138.216 87.603C138.85 87.8 139.541 87.63 140.01 87.1601L140.889 86.2864ZM126.96 53.7753C127.55 53.5704 128.182 53.5216 128.797 53.6332C130.555 54.0456 131.776 55.6455 131.711 57.4503C131.734 59.059 132.84 60.4488 134.401 60.8341C135.972 61.2457 137.067 62.666 137.067 64.2895C137.067 64.5118 137.047 64.7341 137.005 64.9521C136.592 67.0028 137.423 69.1049 139.126 70.3195C140.607 71.357 141.069 73.3441 140.198 74.9283C139.25 76.6416 139.25 78.7219 140.198 80.4352C140.488 80.9583 140.64 81.5477 140.639 82.1458C140.639 82.2409 140.623 82.3246 140.615 82.4248C139.767 82.6803 138.993 83.1398 138.362 83.7623L138.248 83.8783L137.812 83.7423C136.388 83.3011 134.912 83.0535 133.423 83.0046C133.464 82.7204 133.489 82.4335 133.496 82.1458C133.497 80.9461 133.194 79.7655 132.616 78.714C132.249 78.0749 132.249 77.2902 132.616 76.6511C134.365 73.4679 133.436 69.4781 130.46 67.3951C129.911 66.9897 129.65 66.3 129.794 65.6322C130.508 61.9484 128.211 58.3519 124.568 57.4503C124.56 56.3979 124.335 55.3578 123.907 54.3952C124.946 54.3159 125.971 54.1075 126.959 53.7753H126.96ZM103.14 57.4503C103.098 55.819 104.089 54.3377 105.613 53.7544C105.822 53.689 106.037 53.6445 106.255 53.6201C106.406 53.6035 106.559 53.5974 106.712 53.6009C106.869 53.5974 107.026 53.6053 107.183 53.6236C107.426 53.6497 107.665 53.7003 107.897 53.7753C110.599 54.73 113.546 54.73 116.248 53.7753C116.838 53.5704 117.471 53.5216 118.085 53.6332C119.842 54.0465 121.063 55.6455 120.997 57.4503C121.02 59.059 122.126 60.4488 123.687 60.8341C125.259 61.2457 126.354 62.666 126.354 64.2895C126.354 64.5118 126.333 64.7341 126.291 64.9521C125.878 67.0028 126.708 69.1049 128.412 70.3195C129.894 71.357 130.356 73.3441 129.484 74.9283C128.536 76.6416 128.536 78.7219 129.484 80.4352C129.774 80.9583 129.926 81.5477 129.925 82.1458C129.926 82.5347 129.86 82.9201 129.732 83.2871C127.251 83.7745 124.918 84.8339 122.918 86.3815C119.195 89.2343 116.865 93.5397 116.513 98.2165H113.854V93.8152L118.417 90.7793L116.434 87.8079L113.854 89.522V84.8801L123.774 78.2729L121.791 75.3015L113.854 80.5938V72.3248L120.283 67.5041L118.14 64.6469L113.854 67.8607V58.9325H110.283V67.8607L105.998 64.6469L103.854 67.5041L110.283 72.3248V80.5938L102.346 75.3032L100.363 78.2746L110.283 84.887V89.5299L107.703 87.8096L105.72 90.781L110.283 93.8152V98.2165H105.931L104.875 93.8937C104.754 93.4028 104.433 92.9861 103.988 92.7463C103.543 92.5065 103.018 92.4655 102.542 92.6347C101.603 93.0174 100.536 92.9163 99.6851 92.3653C98.7861 91.8718 98.127 91.0339 97.8584 90.0434C97.8157 89.8438 97.7913 89.6406 97.7835 89.4366C97.7573 87.6963 96.9613 86.0563 95.609 84.9603C94.2104 83.8992 93.8015 81.9741 94.6464 80.4352C95.5941 78.7219 95.5941 76.6416 94.6464 74.9283C93.7745 73.3441 94.2366 71.357 95.7171 70.3195C97.4207 69.1058 98.2517 67.0045 97.841 64.9538C97.8 64.735 97.7808 64.5127 97.7835 64.2895C97.7835 62.666 98.8786 61.2457 100.45 60.8341C102.011 60.4488 103.117 59.059 103.14 57.4503ZM102.248 98.2165H94.9088C95.4834 96.8023 95.8252 95.3044 95.9211 93.7812C96.4791 94.4421 97.1426 95.0045 97.8855 95.4474C99.0634 96.1667 100.436 96.5041 101.813 96.4135L102.248 98.2165ZM85.0094 70.3195C86.7122 69.1058 87.5448 67.0045 87.1342 64.9538C87.0906 64.735 87.0688 64.5127 87.0696 64.2895C87.0696 62.666 88.1647 61.2457 89.7359 60.8341C91.2974 60.4488 92.403 59.059 92.4265 57.4503C92.3612 55.6438 93.5844 54.0438 95.3439 53.6332C95.9586 53.5207 96.5907 53.5704 97.1801 53.7753C98.1627 54.1049 99.182 54.3124 100.215 54.3935C99.7923 55.3325 99.5656 56.3474 99.5517 57.3771C95.9124 58.3292 93.635 61.9406 94.3447 65.6339C94.4886 66.3009 94.2279 66.9906 93.6786 67.3951C90.7037 69.4781 89.7751 73.467 91.525 76.6494C91.8912 77.2885 91.8912 78.0732 91.525 78.7123C91.0167 79.647 90.7246 80.6845 90.6697 81.7474C88.8797 80.2974 86.7636 79.3043 84.5037 78.8535C84.7949 77.5187 84.5952 76.1237 83.9395 74.9248C83.0685 73.3406 83.5306 71.3544 85.0111 70.316L85.0094 70.3195ZM83.4984 88.1959L86.5055 89.1977L87.6338 85.8043L83.4984 84.4302V82.3062C86.9641 82.8756 89.9268 85.1172 91.4186 88.297C92.9096 91.4768 92.7378 95.1876 90.9592 98.2165H72.4689C71.5116 96.5931 71.0041 94.7438 70.9989 92.8596C71.0085 87.6379 74.7786 83.1816 79.9271 82.3062V84.4302L75.7917 85.8086L76.9199 89.2012L79.9271 88.1959V91.074H83.4984V88.1959ZM58.4995 64.2895C58.4995 58.3728 63.2966 53.5756 69.2133 53.5756C75.1299 53.5756 79.9271 58.3728 79.9271 64.2895V78.6975C76.4718 79.136 73.2963 80.824 70.9989 83.4423V81.0995L76.7255 75.373L74.2005 72.8479L70.9989 76.0495V70.3857L76.7255 64.6591L74.2005 62.1341L70.9989 65.3357V58.9325H67.4276V65.3357L64.226 62.1341L61.701 64.6591L67.4276 70.3857V76.0495L64.226 72.8479L61.701 75.373L61.9801 75.652C60.5946 76.3512 59.4001 77.3766 58.4995 78.6408V64.2895ZM64.226 77.898L67.4276 81.0995V83.0814C65.2584 81.8598 62.6148 81.8328 60.4211 83.0099C60.8475 80.8938 62.3733 79.1674 64.4205 78.4839L64.226 77.898ZM50.2609 87.0049C50.982 86.1687 52.0379 85.697 53.1425 85.7171C54.9892 85.6046 56.5822 87.0005 56.7138 88.8454C56.7138 89.8316 57.5133 90.6311 58.4995 90.6311C59.4856 90.6311 60.2851 89.8316 60.2851 88.8454C60.4167 87.0005 62.0097 85.6046 63.8564 85.7171C64.9611 85.697 66.0169 86.1687 66.738 87.0049C67.2916 87.6422 67.5288 88.4949 67.3832 89.3259L65.7684 98.2165H51.2305L49.6227 89.3328C49.4736 88.5002 49.7073 87.6448 50.2609 87.0049ZM67.4276 119.644H56.7138V116.073H67.4276V119.644ZM128.139 119.644H70.9989V116.073H128.139V119.644ZM142.424 119.644H131.711V116.073H142.424V119.644ZM149.567 112.502H49.5713V101.788H149.567V112.502Z" fill="#525252"/>
<path d="M60.2852 105.359H63.8564V108.93H60.2852V105.359Z" fill="#525252"/>
<path d="M135.282 105.359H138.853V108.93H135.282V105.359Z" fill="#525252"/>
<path d="M60.2852 126.787H63.8564V130.358H60.2852V126.787Z" fill="#525252"/>
<path d="M135.282 126.787H138.853V130.358H135.282V126.787Z" fill="#525252"/>
<path d="M54.9284 144.318C54.8543 147.374 57.2651 149.915 60.3211 150H101.462C105.822 149.912 109.635 147.041 110.926 142.876L121.104 143.154H121.152C121.633 143.154 122.092 142.961 122.429 142.618C122.764 142.275 122.948 141.811 122.938 141.331L122.783 133.894C122.772 133.382 122.544 132.9 122.153 132.568C121.763 132.237 121.25 132.089 120.743 132.162L110.01 133.696C109.309 132.458 108.364 131.377 107.232 130.517C104.848 128.695 101.741 128.111 98.8587 128.944L58.8607 138.847C56.49 139.608 54.8944 141.829 54.9284 144.318ZM119.252 135.983L119.322 139.533L111.51 139.318V139.286C111.505 138.558 111.431 137.833 111.287 137.119L119.252 135.983ZM59.8014 142.295L78.1417 137.753V141.072H81.713V136.868L97.7837 132.888V139.286H101.355V132.152C101.399 132.152 101.446 132.142 101.491 132.142C102.794 132.15 104.059 132.583 105.092 133.377C106.914 134.792 107.967 136.98 107.939 139.286C108.11 143.042 105.217 146.233 101.462 146.429H92.4268V141.072H88.8555V146.429H60.3211C59.2382 146.342 58.4265 145.402 58.4997 144.318C58.457 143.436 58.9801 142.623 59.8014 142.295Z" fill="#525252"/>
</svg>
