<svg width="75" height="76" viewBox="0 0 75 76" fill="none" xmlns="http://www.w3.org/2000/svg">
<path d="M37.4968 0.276855C16.7861 0.278689 -0.00183329 17.0695 1.50161e-07 37.7801C0.00183359 58.4908 16.7926 75.2785 37.5032 75.2769C58.2125 75.275 75 58.4862 75 37.7769C74.9766 17.0745 58.199 0.298398 37.4968 0.276855Z" fill="#01A453"/>
<path d="M27.7587 58.9763C26.8586 58.9779 26.1277 58.2495 26.126 57.3494C26.1252 56.9155 26.2976 56.4991 26.6048 56.1926L45.0142 37.7898L26.6048 19.387C25.9796 18.7397 25.9975 17.7079 26.6448 17.0826C27.2765 16.4726 28.2777 16.4726 28.9091 17.0826L48.4659 36.6393C49.1021 37.2756 49.1021 38.3073 48.4659 38.9438L28.9091 58.5005C28.6039 58.8051 28.1901 58.9763 27.7587 58.9763Z" fill="#FAFAFA"/>
</svg>
