<svg width="20" height="17" viewBox="0 0 20 17" fill="none" xmlns="http://www.w3.org/2000/svg">
<path d="M19.3711 5.45793L16.5527 3.46713V0.559203C16.5244 0.271145 16.3025 0.0399461 16.0158 0H3.66845C3.3818 0.0399889 3.15985 0.271145 3.13159 0.559203V3.44474L0.201315 5.45789C0.0852441 5.54215 0.0117312 5.67286 0 5.81578V16.4408C0.0381051 16.7324 0.267592 16.9619 0.559203 17H19.1251C19.3711 17 19.4606 16.7092 19.4606 16.4408V5.81582C19.4606 5.68159 19.483 5.54737 19.3711 5.45793ZM16.5527 4.5408L18.4764 5.86052L16.5527 7.31446V4.5408ZM4.02634 0.894741H15.6579V8.00793L9.84211 12.3922L4.02629 8.00793V0.894741H4.02634ZM3.13159 4.51845V7.3369L1.20789 5.86056L3.13159 4.51845ZM0.894741 6.77765L7.15793 11.5198L0.894741 15.7474V6.77765ZM1.96845 16.1053L7.91845 12.1014L9.50662 13.3092C9.59653 13.3787 9.70617 13.4179 9.81976 13.4211C9.90925 13.4211 9.95399 13.3763 10.0434 13.3092L11.6987 12.0342L17.7158 16.1053H1.96845ZM18.5659 15.5908L12.4369 11.475L18.5659 6.77765V15.5908Z" fill="#017D3F"/>
<path d="M6.2628 3.80258H8.27595C8.52303 3.80258 8.72332 3.60229 8.72332 3.35521C8.72332 3.10812 8.52303 2.90784 8.27595 2.90784H6.2628C6.01572 2.90784 5.81543 3.10812 5.81543 3.35521C5.81543 3.60229 6.01572 3.80258 6.2628 3.80258Z" fill="#017D3F"/>
<path d="M6.2628 5.81576H13.4207C13.6678 5.81576 13.8681 5.61547 13.8681 5.36839C13.8681 5.12131 13.6678 4.92102 13.4207 4.92102H6.2628C6.01572 4.92102 5.81543 5.12131 5.81543 5.36839C5.81543 5.61547 6.01572 5.81576 6.2628 5.81576Z" fill="#017D3F"/>
<path d="M13.8681 7.38157C13.8681 7.13449 13.6678 6.9342 13.4207 6.9342H6.2628C6.01572 6.9342 5.81543 7.13449 5.81543 7.38157C5.81543 7.62866 6.01572 7.82895 6.2628 7.82895H13.4207C13.6678 7.82895 13.8681 7.62866 13.8681 7.38157Z" fill="#017D3F"/>
</svg>
