<svg width="17" height="17" viewBox="0 0 17 17" fill="none" xmlns="http://www.w3.org/2000/svg">
<path d="M2.18757 12.6656L4.3339 14.8119C6.68301 17.1611 10.2987 17.657 13.1815 16.1134C13.2654 16.0733 13.6476 15.8562 13.9908 15.6106C14.7342 15.0787 14.815 13.9903 14.1638 13.3391L12.1149 11.2902C11.5324 10.7077 10.5844 10.7076 10.0018 11.2902L9.29747 11.9945C8.71359 12.5784 7.76846 12.5785 7.18441 11.9945L5.00494 9.81505C4.42109 9.2312 4.4209 8.28627 5.00478 7.70219C5.00481 7.70216 5.00484 7.70216 5.00484 7.70212L5.00501 7.70196L5.70928 6.99768C6.29187 6.4151 6.29187 5.46721 5.70928 4.88462L3.66044 2.83574C3.00942 2.18472 1.92095 2.26501 1.38887 3.00866C-0.704007 5.93345 -0.426659 10.0514 2.18757 12.6656ZM11.4105 11.9946L13.4594 14.0434C13.674 14.2581 13.6562 14.6253 13.4112 14.8006C13.2925 14.8855 13.1716 14.9658 13.0486 15.0415L10.3539 12.3468L10.7062 11.9945C10.9004 11.8003 11.2164 11.8004 11.4105 11.9946ZM6.4801 12.6989C7.33964 13.5584 8.65714 13.6515 9.61436 13.016L12.1137 15.5153C9.74087 16.4816 6.90354 15.9729 5.03818 14.1075L2.89185 11.9612C1.02652 10.0959 0.51781 7.25856 1.48416 4.88575L3.98347 7.38507C3.34863 8.34129 3.4401 9.6589 4.3006 10.5194L6.4801 12.6989ZM2.9561 3.54012L5.00498 5.589C5.19961 5.78367 5.19965 6.0987 5.00498 6.29334L4.65272 6.64559L1.958 3.95088C2.03374 3.82792 2.11403 3.707 2.19893 3.58833C2.37398 3.34375 2.74117 3.32519 2.9561 3.54012Z" fill="#017D3F"/>
<path d="M10.0264 0.9961C13.3219 0.9961 16.003 3.6772 16.003 6.9727C16.003 7.24776 16.226 7.47075 16.501 7.47075C16.7761 7.47075 16.9991 7.24776 16.9991 6.9727C16.9991 3.12795 13.8711 0 10.0264 0C9.75131 0 9.52832 0.222994 9.52832 0.49805C9.52832 0.773107 9.75131 0.9961 10.0264 0.9961Z" fill="#017D3F"/>
<path d="M10.0273 6.97219C10.0273 6.97219 10.0273 6.97232 10.0273 6.97266C10.0273 7.24771 10.2503 7.4707 10.5254 7.4707C10.8004 7.4707 11.0234 7.24771 11.0234 6.97266C11.0234 6.42341 10.5766 5.97656 10.0273 5.97656C9.75229 5.97656 9.5293 6.19932 9.5293 6.47438C9.52926 6.74943 9.75222 6.97219 10.0273 6.97219Z" fill="#017D3F"/>
<path d="M10.0264 4.98047C11.1249 4.98047 12.0186 5.87417 12.0186 6.97266C12.0186 7.24771 12.2415 7.47071 12.5166 7.47071C12.7917 7.47071 13.0147 7.24771 13.0147 6.97266C13.0147 5.32492 11.6741 3.98438 10.0264 3.98438C9.75131 3.98438 9.52832 4.20737 9.52832 4.48242C9.52832 4.75748 9.75131 4.98047 10.0264 4.98047Z" fill="#017D3F"/>
<path d="M10.0264 2.98828C12.2234 2.98828 14.0107 4.77567 14.0107 6.97266C14.0107 7.24771 14.2337 7.47071 14.5088 7.47071C14.7838 7.47071 15.0068 7.24771 15.0068 6.97266C15.0068 4.22643 12.7726 1.99219 10.0264 1.99219C9.75131 1.99219 9.52832 2.21518 9.52832 2.49023C9.52832 2.76529 9.75131 2.98828 10.0264 2.98828Z" fill="#017D3F"/>
</svg>
