<svg width="20" height="20" viewBox="0 0 20 20" fill="none" xmlns="http://www.w3.org/2000/svg">
<path d="M10.0037 4.86426C7.1679 4.86426 4.87207 7.16259 4.87207 9.99593C4.87207 12.8318 7.1704 15.1276 10.0037 15.1276C12.8396 15.1276 15.1354 12.8293 15.1354 9.99593C15.1354 7.16009 12.8371 4.86426 10.0037 4.86426ZM10.0037 13.3268C8.1629 13.3268 6.6729 11.8359 6.6729 9.99593C6.6729 8.15593 8.16374 6.66509 10.0037 6.66509C11.8437 6.66509 13.3346 8.15593 13.3346 9.99593C13.3354 11.8359 11.8446 13.3268 10.0037 13.3268Z" fill="white"/>
<path d="M14.1235 0.0628222C12.2835 -0.0230111 7.72602 -0.0188445 5.88436 0.0628222C4.26602 0.138656 2.83852 0.529489 1.68769 1.68032C-0.235644 3.60366 0.0101894 6.19532 0.0101894 9.99616C0.0101894 13.8862 -0.206477 16.4178 1.68769 18.312C3.61852 20.242 6.24769 19.9895 10.0035 19.9895C13.8569 19.9895 15.1869 19.992 16.5494 19.4645C18.4019 18.7453 19.8002 17.0895 19.9369 14.1153C20.0235 12.2745 20.0185 7.71782 19.9369 5.87616C19.7719 2.36532 17.8877 0.236156 14.1235 0.0628222ZM17.036 17.0395C15.7752 18.3003 14.026 18.1878 9.97936 18.1878C5.81269 18.1878 4.14186 18.2495 2.92269 17.027C1.51852 15.6295 1.77269 13.3853 1.77269 9.98282C1.77269 5.37866 1.30019 2.06282 5.92102 1.82616C6.98269 1.78866 7.29519 1.77616 9.96769 1.77616L10.0052 1.80116C14.446 1.80116 17.9302 1.33616 18.1394 5.95616C18.1869 7.01032 18.1977 7.32699 18.1977 9.99533C18.1969 14.1137 18.2752 15.7945 17.036 17.0395Z" fill="white"/>
<path d="M15.3388 5.86122C16.0011 5.86122 16.538 5.32434 16.538 4.66206C16.538 3.99978 16.0011 3.46289 15.3388 3.46289C14.6765 3.46289 14.1396 3.99978 14.1396 4.66206C14.1396 5.32434 14.6765 5.86122 15.3388 5.86122Z" fill="white"/>
</svg>
