<svg width="17" height="17" viewBox="0 0 17 17" fill="none" xmlns="http://www.w3.org/2000/svg">
<path d="M12.3983 0H4.60175C2.0643 0 0 2.0643 0 4.60175V12.3984C0 14.9357 2.0643 17 4.60175 17H12.3984C14.9357 17 17 14.9357 17 12.3984V4.60175C17 2.0643 14.9357 0 12.3983 0V0ZM8.5 13.1483C5.93687 13.1483 3.85169 11.0631 3.85169 8.5C3.85169 5.93687 5.93687 3.85169 8.5 3.85169C11.0631 3.85169 13.1483 5.93687 13.1483 8.5C13.1483 11.0631 11.0631 13.1483 8.5 13.1483ZM13.2595 4.94791C12.502 4.94791 11.8859 4.33184 11.8859 3.57439C11.8859 2.81695 12.502 2.20074 13.2595 2.20074C14.0169 2.20074 14.6331 2.81695 14.6331 3.57439C14.6331 4.33184 14.0169 4.94791 13.2595 4.94791Z" fill="#017D3F"/>
<path d="M8.50033 4.84827C6.48687 4.84827 4.84863 6.48637 4.84863 8.49996C4.84863 10.5134 6.48687 12.1517 8.50033 12.1517C10.5139 12.1517 12.152 10.5134 12.152 8.49996C12.152 6.48637 10.5139 4.84827 8.50033 4.84827Z" fill="#017D3F"/>
<path d="M13.2597 3.19751C13.0519 3.19751 12.8828 3.36664 12.8828 3.57442C12.8828 3.7822 13.0519 3.95132 13.2597 3.95132C13.4676 3.95132 13.6368 3.78233 13.6368 3.57442C13.6368 3.36651 13.4676 3.19751 13.2597 3.19751Z" fill="#017D3F"/>
</svg>
