<svg width="17" height="17" viewBox="0 0 17 17" fill="none" xmlns="http://www.w3.org/2000/svg">
<path d="M16.9954 17V16.9992H16.9997V10.7645C16.9997 7.71441 16.343 5.36487 12.7773 5.36487C11.0631 5.36487 9.91278 6.30554 9.44315 7.19733H9.39357V5.64962H6.0127V16.9992H9.53311V11.3793C9.53311 9.89962 9.81361 8.46879 11.6461 8.46879C13.4516 8.46879 13.4785 10.1575 13.4785 11.4742V17H16.9954Z" fill="#017D3F"/>
<path d="M0.280273 5.65039H3.80494V17H0.280273V5.65039Z" fill="#017D3F"/>
<path d="M2.04142 0C0.914458 0 0 0.914458 0 2.04142C0 3.16837 0.914458 4.10196 2.04142 4.10196C3.16837 4.10196 4.08283 3.16837 4.08283 2.04142C4.08212 0.914458 3.16767 0 2.04142 0V0Z" fill="#017D3F"/>
</svg>
