<svg width="30" height="12" viewBox="0 0 30 12" fill="none" xmlns="http://www.w3.org/2000/svg">
<path d="M24.2519 11.2767V8.97205C24.2519 8.87715 24.2476 8.78331 24.2414 8.69C25.5878 8.97181 27.0463 8.59217 28.0894 7.54902L30 5.63838L28.0894 3.72773C27.0462 2.68458 25.5878 2.305 24.2413 2.58675C24.2476 2.49344 24.2518 2.39954 24.2518 2.3047V0L20.9576 0C20.1581 0 19.4099 0.223965 18.7723 0.612341V0L15.4781 0C14.6785 0 13.9303 0.223965 13.2928 0.612341V0L9.99855 0C7.67556 0 5.78573 1.88983 5.78573 4.21282V4.75917H0V6.51758H5.78573V7.06393C5.78573 9.38692 7.67556 11.2767 9.99855 11.2767H13.2928V10.6644C13.9303 11.0528 14.6785 11.2767 15.4781 11.2767L18.7723 11.2767V10.6644C19.4099 11.0528 20.1581 11.2767 20.9576 11.2767H24.2519ZM22.4935 9.51833H20.9577C19.6043 9.51833 18.5032 8.41732 18.5032 7.06393V6.51758H20.039C21.3924 6.51758 22.4935 7.61865 22.4935 8.97205V9.51833ZM17.0139 1.75836V2.30464C17.0139 3.65804 15.9128 4.75911 14.5594 4.75911H13.0236V4.21276C13.0236 2.85937 14.1247 1.75836 15.4781 1.75836H17.0139ZM13.0236 7.06393V6.51758H14.5594C15.9128 6.51758 17.0139 7.61865 17.0139 8.97205V9.51833L15.4781 9.51833C14.1247 9.51833 13.0236 8.41732 13.0236 7.06393ZM26.846 4.97111L27.5132 5.63838L26.846 6.30564C25.889 7.26257 24.3318 7.26257 23.3748 6.30564L22.7075 5.63838L23.3748 4.97111C24.3318 4.01418 25.889 4.01418 26.846 4.97111ZM22.4935 1.75836V2.30464C22.4935 3.65804 21.3924 4.75911 20.039 4.75911H18.5032V4.21276C18.5032 2.85937 19.6043 1.75836 20.9577 1.75836H22.4935ZM7.54415 4.21276C7.54415 2.85937 8.64516 1.75836 9.99855 1.75836L11.5344 1.75836V2.30464C11.5344 3.65804 10.4333 4.75911 9.0799 4.75911L7.54415 4.75911V4.21276ZM9.99855 9.51833C8.64516 9.51833 7.54415 8.41732 7.54415 7.06393V6.51758L9.0799 6.51758C10.4333 6.51758 11.5344 7.61865 11.5344 8.97205V9.51833H9.99855Z" fill="#F4E858"/>
</svg>
