<svg width="20" height="16" viewBox="0 0 20 16" fill="none" xmlns="http://www.w3.org/2000/svg">
<path d="M18.9076 9.02984H16.2397V6.46573H18.9076C19.3085 6.46573 19.6335 6.14109 19.6335 5.74013C19.6335 5.33912 19.3085 5.01429 18.9076 5.01429H16.2397V1.45645C16.2397 0.937095 16.137 0.5559 15.9347 0.323694C15.7424 0.102791 15.4896 0 15.1396 0C14.8055 0 14.5622 0.102082 14.3737 0.321607C14.1737 0.554049 14.0722 0.935952 14.0722 1.45668V5.01472H9.05365L6.9198 1.78573C6.73718 1.49756 6.56547 1.22763 6.39872 0.968523C6.24859 0.735175 6.10216 0.545188 5.96384 0.403328C5.8414 0.277734 5.70186 0.180535 5.53866 0.105824C5.38467 0.0355241 5.18889 0.000236322 4.95728 0.000236322C4.66186 0.000236322 4.3937 0.0811697 4.13692 0.247447C3.88281 0.411914 3.70716 0.615251 3.59988 0.869118C3.50571 1.11038 3.45589 1.48008 3.45589 1.95729V5.01448H0.814432C0.413625 5.01452 0.0888672 5.33936 0.0888672 5.74032C0.0888672 6.14129 0.413625 6.46593 0.814471 6.46593H3.45593V9.03032H0.814471C0.413625 9.03032 0.0888672 9.35507 0.0888672 9.75616C0.0888672 10.157 0.413625 10.4815 0.814471 10.4815H3.45593V14.5437C3.45593 15.0477 3.56184 15.425 3.77159 15.6648C3.97107 15.8934 4.22399 15.9995 4.56746 15.9995C4.89883 15.9995 5.14978 15.8929 5.35789 15.6639C5.57099 15.4292 5.67878 15.0521 5.67878 14.5437V10.4815H10.22L12.6775 14.2499C12.8484 14.499 13.0249 14.7504 13.2008 14.9969C13.3596 15.2183 13.5328 15.4134 13.7155 15.5763C13.8801 15.7237 14.0566 15.8317 14.24 15.8976C14.4288 15.9655 14.6494 16 14.8943 16C15.5589 16 16.2396 15.7965 16.2396 14.2876V10.4815H18.9076C19.3084 10.4815 19.6334 10.1565 19.6334 9.75568C19.6335 9.35484 19.3085 9.02984 18.9076 9.02984ZM14.0722 6.46569V9.0298H11.7076L10.0132 6.46569H14.0722ZM5.67882 3.51944L6.65396 5.01429H5.67882V3.51944ZM5.67882 9.02984V6.46573H7.60083L9.27329 9.02984H5.67882ZM14.0722 12.6088L12.6669 10.4815H14.0722V12.6088Z" fill="#F5F5F5"/>
</svg>
