<svg width="21" height="17" viewBox="0 0 21 17" fill="none" xmlns="http://www.w3.org/2000/svg">
<path d="M7.74909 17C6.85088 17 5.92636 16.9273 4.99629 16.7815C3.35817 16.5244 1.69992 15.6676 1.23069 15.411L0 14.7381L1.33243 14.3C2.78894 13.8211 3.67495 13.5239 4.77173 13.0587C3.67353 12.5268 2.82713 11.5701 2.4197 10.3334L2.10973 9.39242L2.36392 9.43125C2.12288 9.18831 1.93256 8.94173 1.78502 8.71749C1.26032 7.92054 0.982523 6.94673 1.04163 6.11222L1.09995 5.29086L1.59169 5.48134C1.38425 5.0896 1.23433 4.67124 1.14622 4.23275C0.931495 3.16338 1.1112 2.0273 1.65238 1.03384L2.08073 0.247509L2.6536 0.935592C4.46541 3.11204 6.76023 4.40311 9.48388 4.78106C9.37263 4.01422 9.45599 3.27415 9.73189 2.61079C10.0531 1.8384 10.6246 1.18344 11.384 0.716584C12.2273 0.198224 13.2501 -0.0529529 14.2639 0.00932637C15.3394 0.075409 16.3159 0.478402 17.0915 1.17552C17.4702 1.07711 17.7493 0.97204 18.1264 0.83005C18.3534 0.744634 18.6107 0.647649 18.9327 0.536719L20.1194 0.127863L19.3456 2.33791C19.3966 2.33363 19.4492 2.32998 19.5042 2.32761L20.7713 2.27024L20.0224 3.29381C19.9794 3.35244 19.9685 3.36908 19.9533 3.39206C19.8929 3.48302 19.8178 3.59617 18.7898 4.96885C18.5324 5.31257 18.4039 5.76025 18.4279 6.22965C18.519 8.0134 18.3001 9.62727 17.777 11.0263C17.2823 12.3498 16.5156 13.4854 15.4985 14.4015C14.2399 15.5349 12.6351 16.311 10.7284 16.7078C9.79306 16.9024 8.78867 17 7.74909 17Z" fill="#017D3F"/>
</svg>
