<svg width="148" height="83" viewBox="0 0 148 83" fill="none" xmlns="http://www.w3.org/2000/svg">
<path d="M8.8016 16.904L7.0256 18.8V23H2.3216V6.2H7.0256V13.184L13.5296 6.2H18.7616L11.8976 13.64L19.1216 23H13.6016L8.8016 16.904ZM33.8565 19.328V23H20.3685V6.2H33.5445V9.872H25.0725V12.704H32.5365V16.256H25.0725V19.328H33.8565ZM52.4775 6.2V23H48.5655L41.1495 14.048V23H36.4935V6.2H40.4055L47.8215 15.152V6.2H52.4775ZM71.8134 6.2V23H67.9014L60.4854 14.048V23H55.8294V6.2H59.7414L67.1574 15.152V6.2H71.8134ZM88.6534 19.328V23H75.1654V6.2H88.3414V9.872H79.8694V12.704H87.3334V16.256H79.8694V19.328H88.6534ZM94.8664 9.968H89.7064V6.2H104.754V9.968H99.6184V23H94.8664V9.968ZM122.509 6.2V23H117.757V16.448H111.277V23H106.525V6.2H111.277V12.512H117.757V6.2H122.509ZM127.589 4.976C128.373 4.976 129.021 5.224 129.533 5.72C130.045 6.216 130.301 6.864 130.301 7.664C130.301 8.032 130.253 8.4 130.157 8.768C130.061 9.136 129.853 9.688 129.533 10.424L127.997 13.928H125.141L126.269 10.016C125.821 9.808 125.469 9.504 125.213 9.104C124.973 8.688 124.853 8.208 124.853 7.664C124.853 6.864 125.109 6.216 125.621 5.72C126.133 5.224 126.789 4.976 127.589 4.976ZM138.796 23.336C137.436 23.336 136.116 23.168 134.836 22.832C133.556 22.496 132.516 22.048 131.716 21.488L133.276 17.984C134.028 18.48 134.9 18.88 135.892 19.184C136.884 19.488 137.86 19.64 138.82 19.64C140.644 19.64 141.556 19.184 141.556 18.272C141.556 17.792 141.292 17.44 140.764 17.216C140.252 16.976 139.42 16.728 138.268 16.472C137.004 16.2 135.948 15.912 135.1 15.608C134.252 15.288 133.524 14.784 132.916 14.096C132.308 13.408 132.004 12.48 132.004 11.312C132.004 10.288 132.284 9.368 132.844 8.552C133.404 7.72 134.236 7.064 135.34 6.584C136.46 6.104 137.828 5.864 139.444 5.864C140.548 5.864 141.636 5.992 142.708 6.248C143.78 6.488 144.724 6.848 145.54 7.328L144.076 10.856C142.476 9.992 140.924 9.56 139.42 9.56C138.476 9.56 137.788 9.704 137.356 9.992C136.924 10.264 136.708 10.624 136.708 11.072C136.708 11.52 136.964 11.856 137.476 12.08C137.988 12.304 138.812 12.536 139.948 12.776C141.228 13.048 142.284 13.344 143.116 13.664C143.964 13.968 144.692 14.464 145.3 15.152C145.924 15.824 146.236 16.744 146.236 17.912C146.236 18.92 145.956 19.832 145.396 20.648C144.836 21.464 143.996 22.12 142.876 22.616C141.756 23.096 140.396 23.336 138.796 23.336Z" fill="#017D3F"/>
<path d="M9.2336 44.6V53H7.6736V49.4H3.3296V53H1.7696V44.6H3.3296V48.068H7.6736V44.6H9.2336ZM19.3084 50.036V53H17.7484V50.06L14.4484 44.6H16.1164L18.5764 48.692L21.0604 44.6H22.5964L19.3084 50.036ZM33.6529 48.632C34.1169 48.784 34.4849 49.04 34.7569 49.4C35.0289 49.752 35.1649 50.192 35.1649 50.72C35.1649 51.448 34.8849 52.012 34.3249 52.412C33.7649 52.804 32.9489 53 31.8769 53H27.7009V44.6H31.6369C32.6289 44.6 33.3929 44.796 33.9289 45.188C34.4649 45.572 34.7329 46.104 34.7329 46.784C34.7329 47.2 34.6369 47.568 34.4449 47.888C34.2529 48.208 33.9889 48.456 33.6529 48.632ZM29.2609 45.824V48.14H31.4689C32.0129 48.14 32.4289 48.044 32.7169 47.852C33.0129 47.652 33.1609 47.364 33.1609 46.988C33.1609 46.604 33.0129 46.316 32.7169 46.124C32.4289 45.924 32.0129 45.824 31.4689 45.824H29.2609ZM31.7809 51.776C32.9889 51.776 33.5929 51.372 33.5929 50.564C33.5929 49.756 32.9889 49.352 31.7809 49.352H29.2609V51.776H31.7809ZM46.5258 53L44.8098 50.54C44.7378 50.548 44.6298 50.552 44.4858 50.552H42.5898V53H41.0298V44.6H44.4858C45.2138 44.6 45.8458 44.72 46.3818 44.96C46.9258 45.2 47.3418 45.544 47.6298 45.992C47.9178 46.44 48.0618 46.972 48.0618 47.588C48.0618 48.22 47.9058 48.764 47.5938 49.22C47.2898 49.676 46.8498 50.016 46.2738 50.24L48.2058 53H46.5258ZM46.4898 47.588C46.4898 47.052 46.3138 46.64 45.9618 46.352C45.6098 46.064 45.0938 45.92 44.4138 45.92H42.5898V49.268H44.4138C45.0938 49.268 45.6098 49.124 45.9618 48.836C46.3138 48.54 46.4898 48.124 46.4898 47.588ZM54.0071 44.6H55.5671V53H54.0071V44.6ZM62.0391 44.6H65.7111C66.6071 44.6 67.4031 44.776 68.0991 45.128C68.7951 45.472 69.3351 45.964 69.7191 46.604C70.1031 47.236 70.2951 47.968 70.2951 48.8C70.2951 49.632 70.1031 50.368 69.7191 51.008C69.3351 51.64 68.7951 52.132 68.0991 52.484C67.4031 52.828 66.6071 53 65.7111 53H62.0391V44.6ZM65.6391 51.68C66.2551 51.68 66.7951 51.564 67.2591 51.332C67.7311 51.092 68.0911 50.756 68.3391 50.324C68.5951 49.884 68.7231 49.376 68.7231 48.8C68.7231 48.224 68.5951 47.72 68.3391 47.288C68.0911 46.848 67.7311 46.512 67.2591 46.28C66.7951 46.04 66.2551 45.92 65.6391 45.92H63.5991V51.68H65.6391Z" fill="#017D3F"/>
<path d="M3.3296 72.908V75.464H7.3856V76.784H3.3296V80H1.7696V71.6H7.9016V72.908H3.3296ZM17.4405 80.12C16.5845 80.12 15.8125 79.936 15.1245 79.568C14.4365 79.192 13.8965 78.676 13.5045 78.02C13.1125 77.356 12.9165 76.616 12.9165 75.8C12.9165 74.984 13.1125 74.248 13.5045 73.592C13.8965 72.928 14.4365 72.412 15.1245 72.044C15.8125 71.668 16.5845 71.48 17.4405 71.48C18.2965 71.48 19.0685 71.668 19.7565 72.044C20.4445 72.412 20.9845 72.924 21.3765 73.58C21.7685 74.236 21.9645 74.976 21.9645 75.8C21.9645 76.624 21.7685 77.364 21.3765 78.02C20.9845 78.676 20.4445 79.192 19.7565 79.568C19.0685 79.936 18.2965 80.12 17.4405 80.12ZM17.4405 78.752C18.0005 78.752 18.5045 78.628 18.9525 78.38C19.4005 78.124 19.7525 77.772 20.0085 77.324C20.2645 76.868 20.3925 76.36 20.3925 75.8C20.3925 75.24 20.2645 74.736 20.0085 74.288C19.7525 73.832 19.4005 73.48 18.9525 73.232C18.5045 72.976 18.0005 72.848 17.4405 72.848C16.8805 72.848 16.3765 72.976 15.9285 73.232C15.4805 73.48 15.1285 73.832 14.8725 74.288C14.6165 74.736 14.4885 75.24 14.4885 75.8C14.4885 76.36 14.6165 76.868 14.8725 77.324C15.1285 77.772 15.4805 78.124 15.9285 78.38C16.3765 78.628 16.8805 78.752 17.4405 78.752ZM31.43 80.12C30.27 80.12 29.366 79.796 28.718 79.148C28.07 78.492 27.746 77.556 27.746 76.34V71.6H29.306V76.28C29.306 77.928 30.018 78.752 31.442 78.752C32.858 78.752 33.566 77.928 33.566 76.28V71.6H35.102V76.34C35.102 77.556 34.778 78.492 34.13 79.148C33.49 79.796 32.59 80.12 31.43 80.12ZM48.9508 71.6V80H47.6668L43.0348 74.312V80H41.4868V71.6H42.7708L47.4028 77.288V71.6H48.9508ZM55.4016 71.6H59.0736C59.9696 71.6 60.7656 71.776 61.4616 72.128C62.1576 72.472 62.6976 72.964 63.0816 73.604C63.4656 74.236 63.6576 74.968 63.6576 75.8C63.6576 76.632 63.4656 77.368 63.0816 78.008C62.6976 78.64 62.1576 79.132 61.4616 79.484C60.7656 79.828 59.9696 80 59.0736 80H55.4016V71.6ZM59.0016 78.68C59.6176 78.68 60.1576 78.564 60.6216 78.332C61.0936 78.092 61.4536 77.756 61.7016 77.324C61.9576 76.884 62.0856 76.376 62.0856 75.8C62.0856 75.224 61.9576 74.72 61.7016 74.288C61.4536 73.848 61.0936 73.512 60.6216 73.28C60.1576 73.04 59.6176 72.92 59.0016 72.92H56.9616V78.68H59.0016ZM74.8465 78.056H70.6465L69.8185 80H68.2105L71.9905 71.6H73.5265L77.3185 80H75.6865L74.8465 78.056ZM74.3305 76.832L72.7465 73.16L71.1745 76.832H74.3305ZM83.8689 72.92H81.0849V71.6H88.2129V72.92H85.4289V80H83.8689V72.92ZM93.5837 71.6H95.1437V80H93.5837V71.6ZM105.54 80.12C104.684 80.12 103.912 79.936 103.224 79.568C102.536 79.192 101.996 78.676 101.604 78.02C101.212 77.356 101.016 76.616 101.016 75.8C101.016 74.984 101.212 74.248 101.604 73.592C101.996 72.928 102.536 72.412 103.224 72.044C103.912 71.668 104.684 71.48 105.54 71.48C106.396 71.48 107.168 71.668 107.856 72.044C108.544 72.412 109.084 72.924 109.476 73.58C109.868 74.236 110.064 74.976 110.064 75.8C110.064 76.624 109.868 77.364 109.476 78.02C109.084 78.676 108.544 79.192 107.856 79.568C107.168 79.936 106.396 80.12 105.54 80.12ZM105.54 78.752C106.1 78.752 106.604 78.628 107.052 78.38C107.5 78.124 107.852 77.772 108.108 77.324C108.364 76.868 108.492 76.36 108.492 75.8C108.492 75.24 108.364 74.736 108.108 74.288C107.852 73.832 107.5 73.48 107.052 73.232C106.604 72.976 106.1 72.848 105.54 72.848C104.98 72.848 104.476 72.976 104.028 73.232C103.58 73.48 103.228 73.832 102.972 74.288C102.716 74.736 102.588 75.24 102.588 75.8C102.588 76.36 102.716 76.868 102.972 77.324C103.228 77.772 103.58 78.124 104.028 78.38C104.476 78.628 104.98 78.752 105.54 78.752ZM123.381 71.6V80H122.097L117.465 74.312V80H115.917V71.6H117.201L121.833 77.288V71.6H123.381Z" fill="#017D3F"/>
</svg>
