<svg width="98" height="100" viewBox="0 0 98 100" fill="none" xmlns="http://www.w3.org/2000/svg">
<path d="M22.1544 23.3333C32.1544 23.3333 22.1544 6.66663 22.1544 6.66663C22.1544 6.66663 12.1544 23.3333 22.1544 23.3333Z" fill="#F0E021"/>
<path d="M22.154 36.6667C22.154 27.4617 14.6923 20 5.4873 20C5.4873 29.205 12.949 36.6667 22.154 36.6667Z" fill="#F0E021"/>
<path d="M38.821 20C29.616 20 22.1543 27.4617 22.1543 36.6667C31.3593 36.6667 38.821 29.205 38.821 20Z" fill="#F0E021"/>
<path d="M5.4873 33.3334C5.4873 42.5384 12.949 50 22.154 50C22.154 40.795 14.6923 33.3334 5.4873 33.3334Z" fill="#F0E021"/>
<path d="M22.1543 50C31.3593 50 38.821 42.5384 38.821 33.3334C29.616 33.3334 22.1543 40.795 22.1543 50Z" fill="#F0E021"/>
<path d="M5.4873 46.6666C5.4873 55.8716 12.949 63.3333 22.154 63.3333C22.154 54.1283 14.6923 46.6666 5.4873 46.6666Z" fill="#F0E021"/>
<path d="M22.1543 63.3333C31.3593 63.3333 38.821 55.8716 38.821 46.6666C29.616 46.6666 22.1543 54.1283 22.1543 63.3333Z" fill="#F0E021"/>
<path d="M5.4873 60C5.4873 69.205 12.949 76.6667 22.154 76.6667C22.154 67.4617 14.6923 60 5.4873 60Z" fill="#F0E021"/>
<path d="M38.821 60C29.616 60 22.1543 67.4617 22.1543 76.6667C31.3593 76.6667 38.821 69.205 38.821 60Z" fill="#F0E021"/>
<path d="M75.4874 23.3333C85.4874 23.3333 75.4874 6.66663 75.4874 6.66663C75.4874 6.66663 65.4874 23.3333 75.4874 23.3333Z" fill="#F0E021"/>
<path d="M58.8213 20C58.8213 29.205 66.283 36.6667 75.488 36.6667C75.488 27.4617 68.0263 20 58.8213 20Z" fill="#F0E021"/>
<path d="M75.4873 36.6667C84.6923 36.6667 92.154 29.205 92.154 20C82.949 20 75.4873 27.4617 75.4873 36.6667Z" fill="#F0E021"/>
<path d="M58.8213 33.3334C58.8213 42.5384 66.283 50 75.488 50C75.488 40.795 68.0263 33.3334 58.8213 33.3334Z" fill="#F0E021"/>
<path d="M75.4873 50C84.6923 50 92.154 42.5384 92.154 33.3334C82.949 33.3334 75.4873 40.795 75.4873 50Z" fill="#F0E021"/>
<path d="M58.8213 46.6666C58.8213 55.8716 66.283 63.3333 75.488 63.3333C75.488 54.1283 68.0263 46.6666 58.8213 46.6666Z" fill="#F0E021"/>
<path d="M75.4873 63.3333C84.6923 63.3333 92.154 55.8716 92.154 46.6666C82.949 46.6666 75.4873 54.1283 75.4873 63.3333Z" fill="#F0E021"/>
<path d="M58.8213 60C58.8213 69.205 66.283 76.6667 75.488 76.6667C75.488 67.4617 68.0263 60 58.8213 60Z" fill="#F0E021"/>
<path d="M75.4873 76.6667C84.6923 76.6667 92.154 69.205 92.154 60C82.949 60 75.4873 67.4617 75.4873 76.6667Z" fill="#F0E021"/>
<path d="M20.4873 76.6666H23.8206V100H20.4873V76.6666Z" fill="#F0E021"/>
<path d="M22.154 6.66667C21.234 6.66667 20.4873 5.92 20.4873 5V1.66667C20.4873 0.746667 21.234 0 22.154 0C23.074 0 23.8206 0.746667 23.8206 1.66667V5C23.8206 5.92 23.074 6.66667 22.154 6.66667Z" fill="#F0E021"/>
<path d="M38.8205 20C38.1705 19.35 38.1705 18.2933 38.8205 17.6433L41.4638 15C42.1138 14.35 43.1705 14.35 43.8205 15C44.4705 15.65 44.4705 16.7066 43.8205 17.3566L41.1772 20C40.5272 20.65 39.4705 20.65 38.8205 20Z" fill="#F0E021"/>
<path d="M3.13083 20L0.4875 17.3566C-0.1625 16.7066 -0.1625 15.65 0.4875 15C1.1375 14.35 2.19417 14.35 2.84417 15L5.4875 17.6433C6.1375 18.2933 6.1375 19.35 5.4875 20C4.8375 20.65 3.78083 20.65 3.13083 20Z" fill="#F0E021"/>
<path d="M38.8205 33.3333C38.1705 32.6833 38.1705 31.6267 38.8205 30.9767L41.4638 28.3333C42.1138 27.6833 43.1705 27.6833 43.8205 28.3333C44.4705 28.9833 44.4705 30.04 43.8205 30.69L41.1772 33.3333C40.5272 33.9833 39.4705 33.9833 38.8205 33.3333Z" fill="#F0E021"/>
<path d="M3.13083 33.3333L0.4875 30.69C-0.1625 30.04 -0.1625 28.9833 0.4875 28.3333C1.1375 27.6833 2.19417 27.6833 2.84417 28.3333L5.4875 30.9767C6.1375 31.6267 6.1375 32.6833 5.4875 33.3333C4.8375 33.9833 3.78083 33.9833 3.13083 33.3333Z" fill="#F0E021"/>
<path d="M38.8205 46.6667C38.1705 46.0167 38.1705 44.96 38.8205 44.31L41.4638 41.6667C42.1138 41.0167 43.1705 41.0167 43.8205 41.6667C44.4705 42.3167 44.4705 43.3734 43.8205 44.0234L41.1772 46.6667C40.5272 47.3167 39.4705 47.3167 38.8205 46.6667Z" fill="#F0E021"/>
<path d="M3.13083 46.6667L0.4875 44.0234C-0.1625 43.3734 -0.1625 42.3167 0.4875 41.6667C1.1375 41.0167 2.19417 41.0167 2.84417 41.6667L5.4875 44.31C6.1375 44.96 6.1375 46.0167 5.4875 46.6667C4.8375 47.3167 3.78083 47.3167 3.13083 46.6667Z" fill="#F0E021"/>
<path d="M38.8205 60C38.1705 59.35 38.1705 58.2933 38.8205 57.6433L41.4638 55C42.1138 54.35 43.1705 54.35 43.8205 55C44.4705 55.65 44.4705 56.7066 43.8205 57.3566L41.1772 60C40.5272 60.65 39.4705 60.65 38.8205 60Z" fill="#F0E021"/>
<path d="M3.13083 60L0.4875 57.3566C-0.1625 56.7066 -0.1625 55.65 0.4875 55C1.1375 54.35 2.19417 54.35 2.84417 55L5.4875 57.6433C6.1375 58.2933 6.1375 59.35 5.4875 60C4.8375 60.65 3.78083 60.65 3.13083 60Z" fill="#F0E021"/>
<path d="M73.8213 76.6666H77.1546V100H73.8213V76.6666Z" fill="#F0E021"/>
<path d="M75.488 6.66667C74.568 6.66667 73.8213 5.92 73.8213 5V1.66667C73.8213 0.746667 74.568 0 75.488 0C76.408 0 77.1546 0.746667 77.1546 1.66667V5C77.1546 5.92 76.408 6.66667 75.488 6.66667Z" fill="#F0E021"/>
<path d="M92.1545 20C91.5045 19.35 91.5045 18.2933 92.1545 17.6433L94.7978 15C95.4478 14.35 96.5045 14.35 97.1545 15C97.8045 15.65 97.8045 16.7066 97.1545 17.3566L94.5112 20C93.8612 20.65 92.8045 20.65 92.1545 20Z" fill="#F0E021"/>
<path d="M56.4638 20L53.8205 17.3566C53.1705 16.7066 53.1705 15.65 53.8205 15C54.4705 14.35 55.5272 14.35 56.1772 15L58.8205 17.6433C59.4705 18.2933 59.4705 19.35 58.8205 20C58.1705 20.65 57.1138 20.65 56.4638 20Z" fill="#F0E021"/>
<path d="M92.1545 33.3333C91.5045 32.6833 91.5045 31.6267 92.1545 30.9767L94.7978 28.3333C95.4478 27.6833 96.5045 27.6833 97.1545 28.3333C97.8045 28.9833 97.8045 30.04 97.1545 30.69L94.5112 33.3333C93.8612 33.9833 92.8045 33.9833 92.1545 33.3333Z" fill="#F0E021"/>
<path d="M56.4638 33.3333L53.8205 30.69C53.1705 30.04 53.1705 28.9833 53.8205 28.3333C54.4705 27.6833 55.5272 27.6833 56.1772 28.3333L58.8205 30.9767C59.4705 31.6267 59.4705 32.6833 58.8205 33.3333C58.1705 33.9833 57.1138 33.9833 56.4638 33.3333Z" fill="#F0E021"/>
<path d="M92.1545 46.6667C91.5045 46.0167 91.5045 44.96 92.1545 44.31L94.7978 41.6667C95.4478 41.0167 96.5045 41.0167 97.1545 41.6667C97.8045 42.3167 97.8045 43.3734 97.1545 44.0234L94.5112 46.6667C93.8612 47.3167 92.8045 47.3167 92.1545 46.6667Z" fill="#F0E021"/>
<path d="M56.4638 46.6667L53.8205 44.0234C53.1705 43.3734 53.1705 42.3167 53.8205 41.6667C54.4705 41.0167 55.5272 41.0167 56.1772 41.6667L58.8205 44.31C59.4705 44.96 59.4705 46.0167 58.8205 46.6667C58.1705 47.3167 57.1138 47.3167 56.4638 46.6667Z" fill="#F0E021"/>
<path d="M92.1545 60C91.5045 59.35 91.5045 58.2933 92.1545 57.6433L94.7978 55C95.4478 54.35 96.5045 54.35 97.1545 55C97.8045 55.65 97.8045 56.7066 97.1545 57.3566L94.5112 60C93.8612 60.65 92.8045 60.65 92.1545 60Z" fill="#F0E021"/>
<path d="M56.4638 60L53.8205 57.3566C53.1705 56.7066 53.1705 55.65 53.8205 55C54.4705 54.35 55.5272 54.35 56.1772 55L58.8205 57.6433C59.4705 58.2933 59.4705 59.35 58.8205 60C58.1705 60.65 57.1138 60.65 56.4638 60Z" fill="#F0E021"/>
</svg>
