<svg width="90" height="90" viewBox="0 0 90 90" fill="none" xmlns="http://www.w3.org/2000/svg">
<path d="M7.5 76.5H10.5C10.8978 76.5 11.2794 76.342 11.5607 76.0607C11.842 75.7794 12 75.3978 12 75C12 74.6022 11.842 74.2206 11.5607 73.9393C11.2794 73.658 10.8978 73.5 10.5 73.5H7.5C7.10218 73.5 6.72064 73.658 6.43934 73.9393C6.15804 74.2206 6 74.6022 6 75C6 75.3978 6.15804 75.7794 6.43934 76.0607C6.72064 76.342 7.10218 76.5 7.5 76.5Z" fill="#525252"/>
<path d="M79.5 76.5H82.5C82.8978 76.5 83.2794 76.342 83.5607 76.0607C83.842 75.7794 84 75.3978 84 75C84 74.6022 83.842 74.2206 83.5607 73.9393C83.2794 73.658 82.8978 73.5 82.5 73.5H79.5C79.1022 73.5 78.7206 73.658 78.4393 73.9393C78.158 74.2206 78 74.6022 78 75C78 75.3978 78.158 75.7794 78.4393 76.0607C78.7206 76.342 79.1022 76.5 79.5 76.5Z" fill="#525252"/>
<path d="M7.5 85.5H10.5C10.8978 85.5 11.2794 85.342 11.5607 85.0607C11.842 84.7794 12 84.3978 12 84C12 83.6022 11.842 83.2206 11.5607 82.9393C11.2794 82.658 10.8978 82.5 10.5 82.5H7.5C7.10218 82.5 6.72064 82.658 6.43934 82.9393C6.15804 83.2206 6 83.6022 6 84C6 84.3978 6.15804 84.7794 6.43934 85.0607C6.72064 85.342 7.10218 85.5 7.5 85.5Z" fill="#525252"/>
<path d="M43.5 76.5H46.5C46.8978 76.5 47.2794 76.342 47.5607 76.0607C47.842 75.7794 48 75.3978 48 75C48 74.6022 47.842 74.2206 47.5607 73.9393C47.2794 73.658 46.8978 73.5 46.5 73.5H43.5C43.1022 73.5 42.7206 73.658 42.4393 73.9393C42.158 74.2206 42 74.6022 42 75C42 75.3978 42.158 75.7794 42.4393 76.0607C42.7206 76.342 43.1022 76.5 43.5 76.5Z" fill="#525252"/>
<path d="M43.5 85.5H46.5C46.8978 85.5 47.2794 85.342 47.5607 85.0607C47.842 84.7794 48 84.3978 48 84C48 83.6022 47.842 83.2206 47.5607 82.9393C47.2794 82.658 46.8978 82.5 46.5 82.5H43.5C43.1022 82.5 42.7206 82.658 42.4393 82.9393C42.158 83.2206 42 83.6022 42 84C42 84.3978 42.158 84.7794 42.4393 85.0607C42.7206 85.342 43.1022 85.5 43.5 85.5Z" fill="#525252"/>
<path d="M79.5 85.5H82.5C82.8978 85.5 83.2794 85.342 83.5607 85.0607C83.842 84.7794 84 84.3978 84 84C84 83.6022 83.842 83.2206 83.5607 82.9393C83.2794 82.658 82.8978 82.5 82.5 82.5H79.5C79.1022 82.5 78.7206 82.658 78.4393 82.9393C78.158 83.2206 78 83.6022 78 84C78 84.3978 78.158 84.7794 78.4393 85.0607C78.7206 85.342 79.1022 85.5 79.5 85.5Z" fill="#525252"/>
<path d="M24.6787 46.5876C24.6071 46.404 24.5001 46.2364 24.3637 46.0943C24.2273 45.9521 24.0643 45.8382 23.8839 45.7591C23.7035 45.68 23.5093 45.6371 23.3123 45.6331C23.1154 45.629 22.9195 45.6638 22.736 45.7354L19.9411 46.8259C19.7576 46.8975 19.59 47.0045 19.4478 47.1409C19.3057 47.2773 19.1918 47.4404 19.1127 47.6208C19.0335 47.8012 18.9907 47.9955 18.9866 48.1924C18.9826 48.3894 19.0173 48.5852 19.089 48.7687C19.1606 48.9523 19.2676 49.1199 19.404 49.262C19.5404 49.4042 19.7035 49.5181 19.8839 49.5972C20.0643 49.6764 20.2586 49.7192 20.4555 49.7232C20.6525 49.7273 20.8483 49.6925 21.0318 49.6209L23.8265 48.5302C24.01 48.4586 24.1777 48.3516 24.3198 48.2152C24.462 48.0788 24.5758 47.9158 24.655 47.7354C24.7341 47.555 24.7769 47.3608 24.781 47.1638C24.7851 46.9669 24.7503 46.7711 24.6787 46.5876Z" fill="#525252"/>
<path d="M88.0836 36.0135C88.2776 34.2231 87.7859 32.4257 86.7077 30.9834C85.6294 29.541 84.0446 28.5608 82.2726 28.2401C81.1121 26.4763 79.5316 25.0283 77.6731 24.0264C75.8146 23.0245 73.7364 22.5 71.625 22.5C69.5136 22.5 67.4354 23.0245 65.5769 24.0264C63.7184 25.0283 62.1379 26.4763 60.9774 28.2401C60.1339 28.3932 59.3253 28.6986 58.5911 29.1414L64.4001 14.0385C64.4729 13.8493 64.5065 13.6473 64.4991 13.4447C64.4916 13.2421 64.4431 13.0431 64.3566 12.8598C64.2701 12.6764 64.1473 12.5125 63.9957 12.378C63.8441 12.2434 63.6667 12.141 63.4744 12.0769L58.9744 10.5769C58.6081 10.4546 58.2087 10.4783 57.8595 10.6431C57.5102 10.8079 57.2379 11.101 57.0994 11.4615L55.5 15.6214V1.5C55.5 1.10218 55.342 0.720644 55.0607 0.43934C54.7794 0.158035 54.3978 0 54 0H48C47.6022 0 47.2206 0.158035 46.9393 0.43934C46.658 0.720644 46.5 1.10218 46.5 1.5V15.6221L44.9001 11.4617C44.7615 11.1012 44.4893 10.808 44.14 10.6432C43.7908 10.4784 43.3914 10.4546 43.0251 10.5769L38.5251 12.0769C38.3327 12.141 38.1554 12.2434 38.0038 12.378C37.8521 12.5125 37.7293 12.6764 37.6428 12.8598C37.5563 13.0431 37.5078 13.2421 37.5004 13.4447C37.4929 13.6473 37.5266 13.8493 37.5994 14.0385L44.0252 30.7448C44.6709 32.4197 45.0014 34.1996 45.0002 35.9948V37.6896C44.5008 37.881 44.0165 38.1098 43.5516 38.3741L43.0414 37.3536C42.3914 36.0422 41.3869 34.9392 40.1419 34.1697C38.8969 33.4002 37.4612 32.995 35.9976 33H32.4375C32.1818 33 31.9304 33.0654 31.7071 33.1899C31.4837 33.3144 31.296 33.4939 31.1615 33.7114C31.0271 33.929 30.9505 34.1772 30.9391 34.4326C30.9276 34.6881 30.9816 34.9422 31.0959 35.1709L32.3334 37.6459C32.9834 38.9574 33.9879 40.0605 35.2329 40.8301C36.4779 41.5997 37.9137 42.005 39.3774 42H39.7822C39.2253 42.8977 38.8055 43.8736 38.5369 44.8954C37.9491 44.2981 37.2414 43.8323 36.4604 43.5285C35.6794 43.2246 34.8429 43.0898 34.0061 43.1328C33.1692 43.1758 32.3509 43.3957 31.6052 43.7779C30.8595 44.1602 30.2033 44.6961 29.6798 45.3504L29.3276 45.7909C28.9804 46.2255 28.666 46.6853 28.3869 47.1666L27.0516 42.5473C26.4202 40.3749 25.0525 38.49 23.1831 37.2159C24.493 36.2321 25.4449 34.8466 25.8935 33.2709C26.342 31.6953 26.2626 30.0161 25.6672 28.4899C25.0597 26.9562 23.9667 25.6636 22.5552 24.8098C21.1437 23.956 19.4914 23.5879 17.8509 23.7619C16.6123 22.7032 15.1096 22.0006 13.503 21.7289C11.8965 21.4571 10.2463 21.6264 8.72837 22.2188C7.21048 22.8112 5.88179 23.8043 4.88397 25.0925C3.88614 26.3806 3.25659 27.9153 3.06244 29.5331C1.73812 30.5167 0.772181 31.9068 0.312163 33.4909C-0.147855 35.0751 -0.0766595 36.7663 0.514875 38.3063C1.10627 39.8354 2.18417 41.1277 3.58244 41.9838C4.98072 42.84 6.62175 43.2125 8.25262 43.044C7.74091 45.2471 8.01177 47.5597 9.01875 49.5849L14.2138 60H1.5C1.10218 60 0.720644 60.158 0.43934 60.4393C0.158035 60.7206 0 61.1022 0 61.5V88.5C0 88.8978 0.158035 89.2794 0.43934 89.5607C0.720644 89.842 1.10218 90 1.5 90H88.5C88.8978 90 89.2794 89.842 89.5607 89.5607C89.842 89.2794 90 88.8978 90 88.5V61.5C90 61.1022 89.842 60.7206 89.5607 60.4393C89.2794 60.158 88.8978 60 88.5 60H79.1062C79.2768 58.9431 79.6283 57.9236 80.1452 56.9861C80.3042 56.9944 80.4639 57 80.6244 57C82.1014 56.9996 83.5556 56.6359 84.8587 55.9408C86.1619 55.2457 87.2741 54.2407 88.0971 53.0143C88.9201 51.7879 89.4288 50.3779 89.5782 48.9085C89.7277 47.4391 89.5133 45.9556 88.9539 44.5886C89.7658 43.2605 90.1203 41.703 89.963 40.1544C89.8057 38.6057 89.1454 37.1512 88.083 36.0135H88.0836ZM71.7429 57.4916C71.5244 56.4323 71.1667 55.4066 70.6791 54.4412C71.0021 54.2871 71.3183 54.1181 71.625 53.9329C71.9923 54.1536 72.3723 54.3525 72.7631 54.5284C72.2981 55.4686 71.9553 56.4644 71.7429 57.4916ZM67.7779 55.3766C68.5806 56.7852 69.0018 58.3788 69 60H67.4094C67.2485 58.6873 66.8768 57.4091 66.3088 56.2148C66.8237 55.9821 67.3156 55.7015 67.7779 55.3766ZM63.3321 56.9728C63.8529 57.9139 64.2069 58.9381 64.3783 60H59.9145C59.6979 58.9774 59.2606 58.0144 58.6331 57.1783L57.033 55.044C58.621 56.3116 60.593 57.0014 62.625 57C62.8625 57 63.0982 56.9909 63.3321 56.9728ZM50.79 58.7812C51.7249 57.2819 52.2941 55.5837 52.4515 53.8238C52.6089 52.0639 52.3501 50.2917 51.696 48.6502L53.7714 43.5364C53.9173 43.9009 54.0929 44.2529 54.2964 44.5886C53.5181 46.4891 53.4135 48.5987 54 50.5669V55.5C54 55.8246 54.1053 56.1404 54.3 56.4L56.2333 58.9785C56.4675 59.2912 56.6568 59.6351 56.7958 60.0002H50.0271L50.79 58.7812ZM59.3856 13.8763L61.0365 14.4266L55.1745 29.6676C54.5295 31.3443 54.146 33.1102 54.0375 34.9035L49.7588 45.4459L49.6824 45.3504C49.2171 44.7684 48.6464 44.2792 48 43.9084V41.6447L59.3856 13.8763ZM49.5 23.25V3H52.5V22.842C52.5002 22.9845 52.5207 23.1262 52.5609 23.2629L51 27.3225L49.4927 23.4038C49.4977 23.3527 49.5002 23.3013 49.5 23.25ZM40.9635 14.4266L42.6135 13.8763L48.7241 29.7658C48.9611 30.3835 49.1441 31.0206 49.2711 31.6699L47.9398 34.5761C47.8063 32.8949 47.431 31.2418 46.8255 29.6677L40.9635 14.4266ZM45 41.3173V43.1265C44.0038 43.1347 43.0258 43.3941 42.1566 43.8806C42.8283 42.683 43.8106 41.6888 45 41.0027V41.3173ZM35.0171 36.3051L34.8645 36H35.9976C36.9036 35.9969 37.7923 36.2478 38.563 36.7241C39.3337 37.2004 39.9555 37.8832 40.3579 38.6949L40.5105 39H39.3774C38.4714 39.0031 37.5827 38.7522 36.812 38.2759C36.0413 37.7996 35.4195 37.1168 35.0171 36.3051ZM31.6701 47.6649L32.0224 47.2247C32.3103 46.8649 32.6789 46.5782 33.0985 46.3877C33.518 46.1971 33.9766 46.1083 34.4369 46.1282C34.8972 46.1482 35.3463 46.2764 35.7478 46.5026C36.1492 46.7287 36.4917 47.0463 36.7474 47.4296C37.0693 47.9125 37.5054 48.3084 38.0171 48.5822C38.5287 48.856 39.1 48.9993 39.6803 48.9993C40.2607 48.9993 40.832 48.856 41.3436 48.5822C41.8553 48.3084 42.2914 47.9125 42.6133 47.4296C42.9734 46.8902 43.5022 46.4854 44.1168 46.2784C44.7315 46.0715 45.3974 46.0741 46.0104 46.2859C46.0198 46.2891 46.0292 46.293 46.0386 46.296C46.5501 46.4786 47.0005 46.8003 47.3393 47.2249L47.6914 47.6649C48.7578 49.0005 49.3837 50.6339 49.4829 52.3401C49.5821 54.0463 49.1497 55.7413 48.2453 57.1914L46.4902 60H32.8719L31.1164 57.1912C30.2119 55.7412 29.7794 54.0462 29.8785 52.3401C29.9777 50.6339 30.6036 49.0005 31.6701 47.6649ZM26.8815 52.2399C26.8781 52.2298 26.8751 52.2199 26.8716 52.2097L26.8822 52.2217C26.8819 52.2285 26.8819 52.2345 26.8815 52.2407V52.2399ZM3.30956 37.215C2.92364 36.2125 2.90694 35.1054 3.26245 34.0917C3.61795 33.0781 4.32247 32.2239 5.25 31.6821C5.47194 31.5543 5.65748 31.3719 5.78896 31.1522C5.92045 30.9324 5.99348 30.6827 6.00113 30.4268C6.03555 29.249 6.41589 28.1075 7.09471 27.1444C7.77354 26.1814 8.72083 25.4394 9.81847 25.0111C10.9161 24.5828 12.1155 24.4871 13.2672 24.7359C14.4189 24.9847 15.4719 25.5669 16.2949 26.4101C16.4739 26.5932 16.6968 26.7274 16.9424 26.7999C17.1879 26.8724 17.448 26.8809 17.6978 26.8245C18.7471 26.5949 19.8439 26.7462 20.792 27.2511C21.7401 27.7561 22.4777 28.5819 22.8728 29.5808C23.1213 30.2116 23.2236 30.8906 23.172 31.5666C23.1203 32.2427 22.9161 32.8983 22.5746 33.484C22.2331 34.0698 21.7633 34.5705 21.2004 34.9486C20.6375 35.3266 19.9963 35.5721 19.3249 35.6666C19.2726 35.658 19.2206 35.6479 19.1683 35.6394C19.4843 34.1646 20.1817 32.7984 21.1907 31.6772C21.3247 31.5314 21.4285 31.3605 21.4962 31.1744C21.5638 30.9883 21.594 30.7906 21.5848 30.5928C21.5757 30.395 21.5275 30.2009 21.4429 30.0218C21.3584 29.8427 21.2393 29.6821 21.0924 29.5493C20.9455 29.4165 20.7738 29.3141 20.5871 29.248C20.4004 29.1819 20.2025 29.1534 20.0048 29.1642C19.807 29.175 19.6134 29.2248 19.435 29.3108C19.2566 29.3968 19.097 29.5173 18.9654 29.6653C17.5515 31.2371 16.5922 33.1642 16.1904 35.2399C15.9485 35.2617 15.7155 35.3421 15.5117 35.4743L13.3978 30.0578C13.3262 29.8742 13.2192 29.7066 13.0828 29.5645C12.9464 29.4223 12.7834 29.3084 12.603 29.2293C12.4226 29.1502 12.2284 29.1074 12.0314 29.1033C11.8345 29.0992 11.6386 29.134 11.4551 29.2056C11.2716 29.2772 11.104 29.3842 10.9619 29.5206C10.8197 29.657 10.7058 29.82 10.6267 30.0004C10.5476 30.1808 10.5047 30.375 10.5007 30.572C10.4966 30.7689 10.5313 30.9647 10.6029 31.1482L12.7168 36.5648C12.4774 36.6058 12.2516 36.7044 12.0587 36.852C10.3571 35.5975 8.34618 34.8298 6.2415 34.6312C6.04533 34.6132 5.84753 34.634 5.6594 34.6924C5.47126 34.7509 5.29647 34.8458 5.14502 34.9717C4.99356 35.0977 4.86839 35.2523 4.77667 35.4266C4.68495 35.6009 4.62846 35.7916 4.61044 35.9878C4.59241 36.184 4.6132 36.3818 4.67162 36.5699C4.73004 36.7581 4.82495 36.9328 4.95091 37.0843C5.07688 37.2358 5.23145 37.3609 5.40579 37.4526C5.58013 37.5444 5.77083 37.6009 5.967 37.6189C7.46877 37.7601 8.9072 38.2928 10.1387 39.1639C10.1053 39.2053 10.0742 39.2484 10.0416 39.2903C9.48357 39.6752 8.84559 39.9286 8.17556 40.0316C7.50554 40.1345 6.8209 40.0843 6.17308 39.8847C5.52526 39.685 4.93111 39.3411 4.43528 38.8789C3.93944 38.4166 3.55482 37.848 3.31031 37.2157L3.30956 37.215ZM16.4865 57.8355L19.0215 56.8462C19.2057 56.7751 19.3741 56.6684 19.5169 56.5321C19.6597 56.3957 19.7743 56.2326 19.8539 56.0519C19.9335 55.8712 19.9767 55.6766 19.981 55.4792C19.9852 55.2818 19.9505 55.0855 19.8787 54.9016C19.8069 54.7176 19.6995 54.5497 19.5626 54.4073C19.4258 54.265 19.2622 54.1511 19.0812 54.0721C18.9003 53.9931 18.7055 53.9507 18.5081 53.9471C18.3107 53.9436 18.1145 53.9791 17.9308 54.0516L15.1419 55.14L13.7972 52.4438L15.4429 51.8016C15.8135 51.6569 16.1115 51.371 16.2713 51.0066C16.4311 50.6423 16.4396 50.2294 16.295 49.8588C16.1503 49.4882 15.8644 49.1902 15.5001 49.0304C15.1357 48.8706 14.7228 48.8621 14.3522 49.0067L12.4524 49.7481L11.7024 48.2453C11.2812 47.4112 11.0406 46.4977 10.9964 45.5644C10.9522 44.6311 11.1053 43.6989 11.4457 42.8288C11.6323 42.345 11.8735 41.8841 12.1646 41.4551C12.7229 41.013 13.2147 40.493 13.6249 39.9109C14.1273 39.528 14.6808 39.2173 15.2692 38.9878H15.2721L15.2751 38.9865C15.8637 38.7567 16.4815 38.6104 17.1107 38.5519C17.8063 38.702 18.5198 38.7515 19.2294 38.6987C19.7345 38.817 20.2244 38.9927 20.6895 39.2224C21.5292 39.6319 22.2731 40.2139 22.8726 40.9303C23.4721 41.6468 23.9138 42.4816 24.1687 43.3804L26.5562 51.6386C26.5656 51.6714 26.5776 51.7027 26.5892 51.7344C26.3863 51.5027 26.1169 51.3391 25.8178 51.2658C25.5186 51.1925 25.2041 51.2131 24.9171 51.3247L23.5196 51.8702C23.149 52.0148 22.851 52.3007 22.6912 52.665C22.5314 53.0294 22.5228 53.4423 22.6674 53.8129C22.812 54.1835 23.098 54.4815 23.4623 54.6413C23.8266 54.8011 24.2395 54.8097 24.6101 54.6651L26.0076 54.1198C26.2077 54.0417 26.3887 53.9214 26.5382 53.7671C26.6877 53.6128 26.8022 53.4281 26.874 53.2256C26.9425 55.1944 27.528 57.1104 28.5716 58.7812L29.3333 60H17.5663L16.4865 57.8355ZM87 78H3V72H87V78ZM87 87H3V81H87V87ZM87 69H3V63H87V69ZM76.0757 60H74.4851C74.484 58.4239 74.8822 56.8732 75.6424 55.4925C76.1138 55.808 76.6142 56.078 77.1367 56.2988C76.5909 57.4691 76.2328 58.7182 76.0757 60ZM86.0664 43.4867C85.8776 43.717 85.7615 43.9983 85.7331 44.2948C85.7047 44.5913 85.7652 44.8895 85.9069 45.1515C86.3994 46.0657 86.6464 47.092 86.6236 48.1302C86.6007 49.1684 86.309 50.1828 85.7767 51.0745C85.2445 51.9661 84.49 52.7044 83.587 53.2172C82.684 53.73 81.6634 53.9997 80.625 54C79.2908 54.0042 77.994 53.5588 76.9438 52.7359C76.7329 52.5716 76.4819 52.4667 76.2169 52.4319C74.8775 52.2556 73.6063 51.7368 72.5259 50.9258C72.2661 50.7306 71.95 50.625 71.625 50.625C71.3 50.625 70.9839 50.7306 70.7241 50.9258C69.6437 51.7368 68.3725 52.2556 67.0331 52.4319C66.7681 52.4667 66.5171 52.5716 66.3062 52.7359C65.256 53.5588 63.9592 54.0042 62.625 54C61.5866 53.9997 60.566 53.73 59.663 53.2172C58.76 52.7044 58.0055 51.9661 57.4733 51.0745C56.941 50.1828 56.6493 49.1684 56.6264 48.1302C56.6036 47.092 56.8506 46.0657 57.3431 45.1515C57.4848 44.8895 57.5453 44.5913 57.5169 44.2948C57.4885 43.9983 57.3724 43.717 57.1836 43.4867C56.6497 42.8354 56.3283 42.0362 56.2625 41.1966C56.1968 40.3571 56.39 39.5175 56.8161 38.7911L56.8198 38.7848C57.0615 38.3742 57.3724 38.0084 57.7386 37.7036C57.9529 37.5251 58.1133 37.2903 58.2015 37.0257C58.2898 36.761 58.3025 36.477 58.2383 36.2055C58.0991 35.6222 58.0889 35.0156 58.2083 34.4279C58.3278 33.8403 58.574 33.2858 58.9298 32.803C59.2855 32.3203 59.7424 31.921 60.2683 31.633C60.7943 31.345 61.3768 31.1752 61.9751 31.1355C62.2213 31.1193 62.4597 31.0426 62.6692 30.9123C62.8787 30.7819 63.0528 30.6019 63.1761 30.3881C64.0304 28.9024 65.2614 27.6683 66.7449 26.8101C68.2284 25.9519 69.9119 25.5 71.6257 25.5C73.3396 25.5 75.0231 25.9519 76.5066 26.8101C77.9901 27.6683 79.2211 28.9024 80.0754 30.3881C80.1987 30.6019 80.3728 30.7819 80.5823 30.9123C80.7918 31.0426 81.0302 31.1193 81.2764 31.1355C81.8747 31.1752 82.4572 31.3449 82.9831 31.6329C83.5091 31.9209 83.9659 32.3201 84.3217 32.8028C84.6775 33.2855 84.9237 33.84 85.0432 34.4276C85.1626 35.0152 85.1524 35.6218 85.0132 36.2051C84.9489 36.4767 84.9616 36.7608 85.0499 37.0255C85.1381 37.2902 85.2985 37.5251 85.5129 37.7036C85.9788 38.0904 86.3536 38.5751 86.6106 39.1232C86.8677 39.6714 87.0006 40.2696 87 40.875C87.0039 41.828 86.6735 42.7521 86.0664 43.4867Z" fill="#525252"/>
<path d="M71.6248 28.5C70.3841 28.5012 69.1742 28.8863 68.1612 29.6025C67.1481 30.3187 66.3815 31.3309 65.9666 32.5001C65.834 32.8752 65.8559 33.2876 66.0274 33.6466C66.1989 34.0056 66.5059 34.2817 66.881 34.4143C67.2561 34.5469 67.6685 34.525 68.0275 34.3535C68.3865 34.182 68.6626 33.875 68.7952 33.4999C69.0023 32.915 69.3856 32.4086 69.8923 32.0505C70.399 31.6923 71.0043 31.5 71.6248 31.5C72.2453 31.5 72.8505 31.6923 73.3573 32.0505C73.864 32.4086 74.2473 32.915 74.4543 33.4999C74.52 33.6856 74.6216 33.8566 74.7533 34.0031C74.885 34.1495 75.0443 34.2686 75.2221 34.3535C75.3998 34.4384 75.5925 34.4875 75.7893 34.4979C75.986 34.5084 76.1828 34.48 76.3685 34.4143C76.5543 34.3487 76.7252 34.2471 76.8717 34.1154C77.0182 33.9836 77.1373 33.8244 77.2222 33.6466C77.3071 33.4689 77.3562 33.2761 77.3666 33.0794C77.377 32.8827 77.3486 32.6859 77.283 32.5001C76.8681 31.3309 76.1015 30.3187 75.0884 29.6025C74.0753 28.8863 72.8654 28.5012 71.6248 28.5Z" fill="#525252"/>
<path d="M64.125 39C64.5228 39 64.9044 38.842 65.1857 38.5607C65.467 38.2794 65.625 37.8978 65.625 37.5C65.625 37.1022 65.467 36.7206 65.1857 36.4393C64.9044 36.158 64.5228 36 64.125 36C62.9315 36 61.7869 36.4741 60.943 37.318C60.0991 38.1619 59.625 39.3065 59.625 40.5C59.625 41.6935 60.0991 42.8381 60.943 43.682C61.7869 44.5259 62.9315 45 64.125 45C64.5228 45 64.9044 44.842 65.1857 44.5607C65.467 44.2794 65.625 43.8978 65.625 43.5C65.625 43.1022 65.467 42.7206 65.1857 42.4393C64.9044 42.158 64.5228 42 64.125 42C63.7272 42 63.3456 41.842 63.0643 41.5607C62.783 41.2794 62.625 40.8978 62.625 40.5C62.625 40.1022 62.783 39.7206 63.0643 39.4393C63.3456 39.158 63.7272 39 64.125 39Z" fill="#525252"/>
<path d="M10.5 64.5H7.5C7.10218 64.5 6.72064 64.658 6.43934 64.9393C6.15804 65.2206 6 65.6022 6 66C6 66.3978 6.15804 66.7794 6.43934 67.0607C6.72064 67.342 7.10218 67.5 7.5 67.5H10.5C10.8978 67.5 11.2794 67.342 11.5607 67.0607C11.842 66.7794 12 66.3978 12 66C12 65.6022 11.842 65.2206 11.5607 64.9393C11.2794 64.658 10.8978 64.5 10.5 64.5Z" fill="#525252"/>
<path d="M79.5 67.5H82.5C82.8978 67.5 83.2794 67.342 83.5607 67.0607C83.842 66.7794 84 66.3978 84 66C84 65.6022 83.842 65.2206 83.5607 64.9393C83.2794 64.658 82.8978 64.5 82.5 64.5H79.5C79.1022 64.5 78.7206 64.658 78.4393 64.9393C78.158 65.2206 78 65.6022 78 66C78 66.3978 78.158 66.7794 78.4393 67.0607C78.7206 67.342 79.1022 67.5 79.5 67.5Z" fill="#525252"/>
<path d="M46.5 64.5H43.5C43.1022 64.5 42.7206 64.658 42.4393 64.9393C42.158 65.2206 42 65.6022 42 66C42 66.3978 42.158 66.7794 42.4393 67.0607C42.7206 67.342 43.1022 67.5 43.5 67.5H46.5C46.8978 67.5 47.2794 67.342 47.5607 67.0607C47.842 66.7794 48 66.3978 48 66C48 65.6022 47.842 65.2206 47.5607 64.9393C47.2794 64.658 46.8978 64.5 46.5 64.5Z" fill="#525252"/>
<path d="M35.3621 57C35.6588 57 35.9488 56.912 36.1955 56.7472C36.4422 56.5824 36.6344 56.3481 36.748 56.074C36.8615 55.7999 36.8912 55.4983 36.8333 55.2073C36.7755 54.9163 36.6326 54.6491 36.4228 54.4393C36.2084 54.2253 36.0668 53.9492 36.0183 53.6501C35.9697 53.3511 36.0167 53.0444 36.1524 52.7735L36.7037 51.6709C36.8779 51.3155 36.9047 50.9056 36.7781 50.5306C36.6515 50.1556 36.3818 49.8459 36.0278 49.6688C35.6738 49.4918 35.2641 49.4619 34.8882 49.5855C34.5122 49.7092 34.2003 49.9765 34.0205 50.3291L33.4684 51.4312C33.0504 52.2651 32.9059 53.2095 33.0554 54.1302C33.2048 55.0509 33.6405 55.9011 34.3007 56.5601C34.4399 56.6998 34.6053 56.8105 34.7875 56.886C34.9696 56.9615 35.1649 57.0002 35.3621 57Z" fill="#525252"/>
</svg>
